<svg xmlns="http://www.w3.org/2000/svg" viewBox="0 0 2464.89 376.36">
  <defs>
    <style>
      .cls-1, .cls-3 {
        fill: #010101;
      }

      .cls-2 {
        fill: #fff;
      }

      .cls-3 {
        font-size: 28.35px;
        font-family: MyriadPro-Regular, Myriad Pro;
      }

      .cls-10, .cls-4, .cls-5, .cls-6, .cls-7, .cls-8, .cls-9 {
        fill: none;
        stroke-miterlimit: 10;
      }

      .cls-4 {
        stroke: #c04894;
        stroke-width: 1.42px;
      }

      .cls-5 {
        stroke: #2e519f;
        stroke-width: 2.13px;
      }

      .cls-6 {
        stroke: #e52521;
      }

      .cls-10, .cls-6 {
        stroke-width: 2.83px;
      }

      .cls-7, .cls-8, .cls-9 {
        stroke: #f4e600;
        stroke-width: 0.71px;
      }

      .cls-8 {
        stroke-dasharray: 2.83;
      }

      .cls-9 {
        stroke-dasharray: 5;
      }

      .cls-10 {
        stroke: #f1854d;
      }
    </style>
  </defs>
  <g id="Calque_1" data-name="Calque 1">
    <g>
      <g>
        <rect class="cls-1" x="2377.78" y="272.44" width="9.12" height="45.43"/>
        <rect class="cls-2" x="2377.91" y="227.1" width="9.12" height="45.43"/>
        <rect class="cls-1" x="2377.51" y="181.68" width="9.12" height="45.43"/>
        <rect class="cls-2" x="2377.54" y="136.18" width="9.12" height="45.43"/>
        <rect class="cls-1" x="2377.14" y="90.76" width="9.12" height="45.43"/>
        <rect class="cls-2" x="2377.28" y="45.43" width="9.12" height="45.43"/>
        <rect class="cls-1" x="2376.88" width="9.12" height="45.43"/>
      </g>
      <g>
        <polygon class="cls-2" points="0 339.85 0 330.73 197.03 330.73 197.03 339.46 197.03 339.85 0 339.85"/>
        <polygon class="cls-1" points="197.03 330.73 197.03 330.33 394.03 330.33 394.03 339.45 394.03 339.46 197.03 339.46 197.03 330.73"/>
        <polygon class="cls-2" points="394.03 339.45 394.03 330.33 591.06 330.33 591.06 339.06 591.06 339.45 394.03 339.45"/>
        <polygon class="cls-1" points="591.06 330.33 591.06 329.93 788.06 329.93 788.06 330.06 787.65 330.06 787.65 339.06 591.06 339.06 591.06 330.33"/>
        <rect class="cls-2" x="787.65" y="330.06" width="0.41" height="9"/>
        <polygon class="cls-2" points="787.65 339.19 787.65 339.06 788.06 339.06 788.06 330.06 984.67 330.06 984.67 338.79 984.67 339.19 787.65 339.19"/>
        <polygon class="cls-1" points="984.67 330.06 984.67 329.67 1181.7 329.67 1181.7 338.79 984.67 338.79 984.67 330.06"/>
        <polygon class="cls-2" points="1181.98 338.82 1181.98 329.7 1379.01 329.7 1379.01 338.42 1379.01 338.82 1181.98 338.82"/>
        <polygon class="cls-1" points="1379.01 329.7 1379.01 329.3 1576.01 329.3 1576.01 329.43 1575.6 329.43 1575.6 338.42 1379.01 338.42 1379.01 329.7"/>
        <rect class="cls-2" x="1575.6" y="329.43" width="0.41" height="8.99"/>
        <polygon class="cls-2" points="1575.6 338.56 1575.6 338.42 1576.01 338.42 1576.01 329.43 1772.63 329.43 1772.63 338.16 1772.63 338.56 1575.6 338.56"/>
        <polygon class="cls-1" points="1772.63 329.43 1772.63 329.03 1969.65 329.03 1969.65 338.16 1772.63 338.16 1772.63 329.43"/>
        <polygon class="cls-2" points="1969.65 338.16 1969.65 329.03 2166.66 329.03 2166.66 337.76 2166.66 338.16 1969.65 338.16"/>
        <polygon class="cls-1" points="2166.66 329.03 2166.66 328.64 2363.68 328.64 2363.68 337.76 2166.66 337.76 2166.66 329.03"/>
      </g>
      <text class="cls-3" transform="translate(2228.41 368.3)">10 m</text>
      <text class="cls-3" transform="translate(2396.66 306.37)">2 m</text>
    </g>
  </g>
  <g id="Rank_4">
    <path id="rank4_2" class="cls-4" d="M1011.56,93.67l26.12,1.5,16.88,1.13,14.5.62,15.12.25,13.38.63,11.37.37,9.17,1.63,13.08,1.62,14.38,1.5,14.86,3.88,16.67,2.5,19.66,1.66,20.31-2.29,16.75-1.75,18.92-3.75,22.83-1.5,15.37-.75,12.13-.87,11-.38,15.17.63,14.7.75,27.13,3.12,22.62,1.88,17.71.58,20.67-1.33,21.5-3,27.75-.5,29.75.16,19,1.09,28.25-.75,50.5.75,28.25.5,28.75.5s22.75-.5,23.5-.5l20.08-.09,21.92-1.91,20-3.25,33.5-3,25.75-.25,30,2.25,38.5,3.25,53,1.5,37.5,4.5,20-1.25,23.5-1.25,25.25,1,24-.5,26.25.5,32.5-.75,9.75-.5,17.08,1.08,13.92.83,14.67,2.59,8.58,1.5,4.62.5,5.75-.25,6.3-.92,6.09-.93,4.9-.75,7.67-1.15,7.5-1.17,6.41-1,6.26-1,7-.58,7-.59,13.17-1,14-1,16.66-.83,16.92-2.83,7-.25,9.25.25h4.75l27.37-1.25" transform="translate(0 0.91)"/>
    <polyline id="rank4_3" class="cls-4" points="2365.23 41.46 2351.23 42.21 2341.23 42.46 2331.23 43.46 2322.73 44.71 2315.85 45.21 2305.85 45.71 2282.98 46.21 2262.23 46.33 2253.1 46.08 2244.1 45.58 2234.6 44.83 2222.6 44.33 2209.81 44.21 2201.81 44.71 2192.81 44.04 2180.48 44.54 2170.81 45.54 2161.81 46.04 2149.31 46.54 2138.64 46.88 2130.64 46.71 2123.89 46.87 2114.14 46.88 2103.16 47.65 2091.35 48.65 2079.06 48.54 2065.98 48.96 2057.64 49.96 2049.6 50.33 2041.54 49.96 2032.23 49.83 2019.98 50.21 2014.64 49.96 2007.06 49.54 2000.98 48.71 1992.14 47.54 1980.73 45.42 1973.16 44.65 1963.98 44.37 1952.81 44.87 1941.31 45.54 1929.64 46.04 1916.81 46.71 1907.35 47.08 1897.31 47.21 1886.35 46.96 1876.64 46.71 1869.14 47.21 1858.6 47.46 1847.35 46.96 1835.98 45.83 1822.1 45.33 1812.73 44.83 1801.48 44.58 1790.98 44.21 1783.1 43.46 1773.73 42.58"/>
    <path id="rank4_1" class="cls-4" d="M449.68,164.39,473.06,168l18.25,2.5,17.5,2.38,15.87,1.75,14.55.62,19.16,2.17,19.5.83,15.17,1,20,.33,11.33.84h15.34l11.33.5,16.83,1,14.67-.17h9.33l13.5.83,9.17.67,17.5,1.33,15.67.34,16,1,17.33.83,12.33,1.67,11,1.33,24.84,1.33,12.33.84,32.33,1.66,24,.5,24.5.84,17.5.33,10.34,1,19,.83,18.66-.66,15.67.33,16.83,1.67,17.84.33,15.83,1.83,10.67.34,13.83.33s11.17.33,12,.33,13.33,1,13.33,1l16.67.17,20.33-.5,18.34-.17,21.16-.16,20.67-1.67,13.33.33,20.17.34,16.67.5,18.5.83h20.16l12.5,1,8.34,1.83,10.83,3.67,15.83,5.67,11.67,1.33,15.17-1,13.16-1,9.5-.33,13.17.16,8.83.17,6.29.12h3.46l10.5-.17,15.84,1,13.83,1.17,13.67.5,17,1.67,14,.5,15.33.83,8.67-.17,14.5,1.5,14.66-.16h28.84l15-.67,17.5-.33h16l15.33-.34,18-.83,13.5-2.17,14.21-2.58,10.25-.12,10.25-.63h9.62l9.63-.12h10l11.75.37,12,.75,9.25.5,11,.38,12.37.37,11.75-.25,11.5-.25,13.63.25,18.75.75,20,.38,20-.25,19.75.37,17,.5,15.37-.5,16.63.25h12.12l11.38-1.25h17l14.12.38,15.63.25,18.75.87,15.62.63,14.38,1.12,13.29.67,13.75.75,11.42,1.08,12.66.58h12.84l10.16.34,11,2.91,12.67,1.17,14.5.33,17,.34,13.46,1,11.75.87,11,1,14.12.38,11.88-.25,12-.63,12.37-1.25,8.75.75,9,1.5,13.5,3.5,14.5,4,16,1.5" transform="translate(0 0.91)"/>
  </g>
  <g id="Rank_5">
    <path id="rank6" class="cls-5" d="M805.73,119.46l17.16,3.5,25,5.17,25,4.83,22.5,3,17.34,3,14.66,1,17.84,2.17,14.83,2,13.83,2.17,13.34,1.83,13.33,1.67,26,1.5,23.5,2.5,24.5,3.5,45,2,24-.67,11.67.33,15.66,1.34h15.34l22.66.66h42.34c1.33,0,34.66,2.67,34.66,2.67l24-.67s17.67,1,19.34,1h26.66l40.67,1.34,35.33,2,30.67,1.33,24.67-1,39.66-2.33,39.34.66s28-1.66,30.33-1.66,35-.34,35-.34l23-.33h52.33s31,1.33,32.67,1.33,40,1.67,40,1.67l30-1,27.33-3,36.67.33,28.33-1.33,30.34,2.67,34.33,2.33,38.75.92,38.75,2,35,3.75,28.67,1.16,28.08,2.59,32.25-.5,28.75-.75,25.75-.75,27.75,1,25.75.25,24.5-1,14.75,2,27.75.37,19.75-1.12" transform="translate(0 0.91)"/>
  </g>
  <g id="Rank_7">
    <path id="rank7" class="cls-6" d="M52.4,241.8l17-.5,13-1.54,16.62.16,10.87-.25,9.34-1.37,9.29-.38h10.12l16.55.88,16,.83L186.56,242l11.5,3.67L207.4,249l11,3.17,18.16,2.33,12.84.67,10.83-.33,9-.34,14.17-1.83,23.66-.67,11.5-.33,15.5-1.33,16.17,1.5h13.5l18-3.34,12.5-2.83,15.83-.17,20-2,12-.83,11,.17,12.87-.38,11.13,1.38,7.17-.17,8.7-.71,11.63.88,10.33,1.5,9,2.33,13.34,1.67,12.16,2.16,11.67,2.17,16.67-1.83,17.33.16,11.17-.5,17.66.17,17.17-1,13.17-1.5,8.16.5,12.5.17,7.84-2,10.16.16,9.67.34,11.67-.34,11.66.17,9,.5,10.67-.67,12.83,1,14.5.5,15.5-.66,14.34-.84,18.66.34,12.34-.34,22.33.67,26.17,1,19.66,3.83,14.67,1.67,4.83,1,8.5-.33,7,.83,6.5-.33,9.67.5,14,1.66h15.83l15.34,1.17,16.33,1,15,2.67h11.33l14.67.16,16.33-.16,15.67.5,13.67-1.84,18.66-.83,3.67-.33h6.33l8.67,1.5,9.5,1.5,12.83,3.33,12,2.17h7.84l10.83,1.83,9.33.83,10.17,3.34,12,2.66s10.17,4,10.67,4.17l7.58,5.67,4.25,1.5,7.5,2,8.75,1.75,9.75.25,11.75.5h7.75l13.75,1.5,10,.25,7,1h12l9.37.75,7.88.75,13.37,1.12,14,1,16.13.38,16.37.62,13.88-.75,11.37-.5,11.38-1,10.67-.33h8.66l12.17,1.5,7.33-.17,5.84-.33,8-1.17,6-.16,7.33-.67,3.33-.83,7.84-.5,8-2.34,6.33-1.83,6.33-.67,8.5-1.66,14.34-3,15.66-.5h11.84l13.5,1,7.16.41,8.84,1.84,9.16,1.16,6,.25,7.16.25,6.67.34,7.76-.17,9.58-.25,12.16-.58,9.33-.5,9.84-.17,12.5-.83,9.5-.5,11,.16,10-.33,9.25-.42,12-1.08,9.08-1.67,11.5-.83,7.67.17,12.83,1.33,8.5.17,11.67,1,11.33.33,8.5-.17,12.84-.16,11.33-.5,8.67.33h9.33l8.17-.33,11,.5,7.17-1.59,5.83-1.16,7.33-.34,8.34-1.16,9.16-1,10.84,1.33,9.16.5,6.34-.33,7.33.5,4.67-.09,13.16.59,8.59.58,13.25.33,11.16.09,10.84.08,9.16-.75,9.84-1.17,13.33-1.91,14.5-.17,15.83-.5,11.67,1,10-.33,15.58,1,14,.16,12.59-.66,17.5.25,13,.75,12.7.12,10.05-1.29,11.58-.46h9.75l11.12.38,14.25,1.12,9.88.88,8.87-.25,13.5.37,13.25,1.25,46.05-.21" transform="translate(0 0.91)"/>
  </g>
  <g id="Rank_3">
    <polyline class="cls-7" points="1185.01 269.84 1174.01 267.01 1159.51 263.34 1149.51 261.01 1136.51 259.51 1122.18 257.68 1110.35 256.18 1098.85 254.18 1087.01 251.01 1076.85 248.51 1065.01 245.34 1052.68 243.18 1044.01 241.68 1038.43 241.34 1029.43 240.84 1021.18 241.01 1013.01 240.18"/>
    <polyline class="cls-7" points="1922.18 285.01 1917.35 284.01 1910.85 282.84 1903.85 281.51 1898.51 280.84 1889.18 279.51 1874.01 279.34 1860.68 279.01 1844.35 279.34 1829.01 279.84 1808.18 281.84 1789.18 281.51 1773.51 281.51 1759.51 279.84 1746.35 278.01 1735.01 278.18 1720.51 278.84 1701.35 278.34 1696.43 278.76 1691.68 278.51 1684.93 278.76 1678.18 278.26 1672.43 277.88 1666.18 276.76 1660.93 276.01 1656.81 275.76 1649.43 275.51"/>
    <polyline class="cls-7" points="1577.01 285.84 1587.85 284.34 1604.35 281.84 1623.51 279.84 1636.51 277.68 1652.01 274.84 1665.01 272.34 1681.51 269.34 1689.85 267.34 1702.68 265.51 1721.01 263.84 1738.85 264.18 1752.68 263.18 1771.51 260.84 1785.85 258.51 1791.51 256.68"/>
    <path class="cls-7" d="M218.68,207.77,233,208.93l14.67,1,14.67-.16,15.83.16,16,.67,12.17,1.83,13.66.67,17.5,1.17h13l14.67.16,13.67-.33,14.16-.5,13.17-.33L420,213.1h17.34l12.5-.33,15.5,1.16,12.16.34,10.67.16,11,.17s12-1,12.5-1,14.33-.83,14.33-.83l13.67-.67,11.33-.5,12.79-1.88" transform="translate(0 0.91)"/>
    <polyline class="cls-7" points="1412.85 257.51 1416.01 257.51 1432.01 256.01 1444.01 255.01 1458.68 253.84 1480.35 252.18 1491.35 251.34 1501.51 251.01 1511.18 250.51 1520.85 250.34 1533.85 250.51 1548.68 250.68 1562.68 250.34 1577.01 251.01 1589.18 250.68 1605.35 250.84 1615.12 251.07 1620.81 251.57 1631.74 252.01 1640.93 252.13 1651.18 252.26 1658.06 252.38 1666.18 251.84 1679.81 250.88 1688.18 250.26 1700.68 249.76 1709.56 249.26 1713.85 248.51 1718.85 246.84"/>
    <polyline class="cls-7" points="2135.85 178.68 2150.01 181.18 2165.35 181.84 2183.35 183.51 2196.68 184.84 2210.35 187.51 2225.68 191.34 2243.85 194.01 2266.85 197.34 2283.68 200.34 2301.85 202.51 2314.85 204.01 2321.43 204.26 2328.93 204.01 2339.18 203.76 2344.68 203.76 2362.68 204.01"/>
    <polyline class="cls-7" points="1497.43 169.51 1508.68 170.51 1528.93 172.51 1540.43 173.51 1561.68 176.26 1576.43 177.26 1596.68 178.76 1618.85 180.18 1632.68 181.18 1649.01 183.68 1663.85 186.34 1669.35 188.18 1676.85 191.01 1683.18 193.84 1690.18 196.84 1697.81 199.01"/>
    <path class="cls-7" d="M2140.43,203.6l-18.38-5.38-10.87-2.95-13.67-3-11.83-2.34-14.33-2.33-14.17-1.67-12.67-.33-13.16-.67-9.34-1.16-17.33-.67-8.83-.83-8.34-1.17h-10.33l-12.67-.33-16.83-.17-13.17-1-7.5-.67-12.66-2.5-14-2.33-10.17-2.83s-12.5-1.67-13-1.67-11.67-1.5-11.67-1.5l-10.33-1.17-11.67-3.5" transform="translate(0 0.91)"/>
    <path class="cls-7" d="M1728.68,246.27,1723,247.6l-15,2.5-18,2.5-12,1.67-11.66.33-15.67.33-23.17-.16-16.33.16-11.17.5h-14.16l-19.17.84-19.17.16H1531l-18.83.84-13.83.16-28.67,1.17-20.67.33-16.33-.83L1414,256.77l-23.5-1.5-19.66-1.17-19.67.33-19.67-.66-18.66-.67-20.34-1.33-22.5-1-15.33-.5-18.33-.5-20.5-1.5-21-2-18.17-1.5-20.17-1.5-18.83-1.5-12.33-1.5-11.67-.84s-16-.5-18-.83-16.33-.33-16.33-.33l-12.67-.17-16.5.33-12.83-.33-11.5.17c-.87,0-23.84,1.66-23.84,1.66l-11,.67-16.83-1-12.67-1.5-13-.5L936.8,238l-7.79-.11-12.16-.16-20,.5h-9.5L866,237.93l-21.5-1.66-5.33-.8-7.88-.62-5.12-.38-7-1-4.38-.5-7.5-.5-5.87-1.12L796.3,231l-4-.5-5-.5-3.5-.5-9.87-1-13-.25-14.25.63-6.5.5-12,.87-15.38.38-14.12-.13-11.13.38-14.87.62-14.92.46H647.43l-13.13-.71-18.87-.29-11.33.84-15,.33-21,.67-20.67,1.33-4-.5-7.25-.25-4.5-.38H513.8l-13-.87-11,.37-8.95-.95-11.42.25-11.5.08-9.83-.17" transform="translate(0 0.91)"/>
    <path class="cls-7" d="M2297.18,229.1l-6.83,3-7.84,1.5-10.5,1-8.83.67-13.08,1-14.38,1.25s-17.25,1.5-18.12,1.5l-11.75.12h-14.5l-13.75-.37h-15.75l-11.13-.63-9.62-1.75-4.63-1L2124,235l-14-1-11.16-1.67-8.63.17-14.37.12-19.25.38-14.5.25-8.75-.13L2020,232.6l-8,1.83-10,3.17-8.5,3.17-7-1.09-7.83-2.25-4.83-1.5-5.34-3.66-2.66-4.67-9.17-3.17-18.83-1-9.34,1.17-14.5-.17-12.16-.83-14.25-1.08-12.09-.92-11.41.58-11.75-1.41-4.25-.92-6.25-.5-4.42.33-4.58,2-4.61,3.29-4.81,3.75-5.31,2.32-5.44.56-4.25-.38-5.63-1-6.25-2.37-4.06-2.3-5-3-6.08-2.67h-5.67l-9.5,1.33-8.33,1.25-9.67.5s-7.79.73-8.16.92-4.61.94-4.61.94l-5.94,1.43h-7.87l-5.13.07-9.81-1.38-7.56-.94-9.38-.5-6.93-.43-11.19-.57-13.06.69-7.13-.25-8.12-.25L1636,223l-7.25,1.37-8.69,2.56-9.87-.12-8.81-.75-10.44-.75L1575.55,222l-5.81-1.38" transform="translate(0 0.91)"/>
    <polyline class="cls-7" points="2033.68 261.01 2043.06 263.63 2062.3 266.76 2072.8 268.76 2089.68 270.01 2102.55 270.38 2119.18 270.97 2140.01 272.76 2163.01 274.59 2186.01 275.59 2209.68 276.51 2229.18 278.09 2239.18 278.72 2253.18 281.47"/>
    <path class="cls-7" d="M376.62,173.18l5.31,2,5.94,1.44,9.56,1.56,12.12,2.63,4.82,1.25,5.93,2,3.19,1.43,6.31,1.94,7.5,1,5,.5,6.44-.12,7.81.25,10.13-.13,8.87-.12,6.57-.32,8.18.19s6-.25,6.19-.12,5.06-.88,5.06-.88,6.19.38,6.38.38l6.75.12,5.06.13,5,.18s6.81,1.63,7.13,1.57,6,.87,6,.87l6.12.75,4.38.06,8.81,1.82,8,.87,8.56.88,10.63.62,11.81,1.5,10.87,1.17,10.13.75,9.37.37,8.38.63,6.75.5,4.87.5,5.21.92" transform="translate(0 0.91)"/>
    <path class="cls-7" d="M340.68,179.81l4.87,1,8.13,1.12,5.37.75,9.88.5,4.44-.19,5.06.07,6.5.31,7.81.37,8.63.07,6.37.18s4.31-.68,4.69-.68,3.75-.5,3.75-.5" transform="translate(0 0.91)"/>
    <polyline class="cls-7" points="1678.12 165.76 1698.45 170.09 1713.62 172.26 1729.45 174.76 1736.12 177.09 1745.79 179.59 1758.62 180.26 1771.62 181.59 1783.79 184.09 1797.12 187.76 1815.12 190.43 1823.62 191.93 1836.79 193.76 1849.79 194.93 1862.95 195.43 1876.49 196.76 1889.62 199.26 1901.37 200.01 1913.24 201.88 1920.99 202.76"/>
    <polyline class="cls-7" points="790.68 171.68 783.05 171.51 775.68 171.13 765.43 170.26 758.3 169.63 750.55 169.01 742.8 168.51 735.68 168.38 728.68 168.76 718.18 168.84 710.18 169.01 701.18 168.84 694.68 168.51 686.35 168.18 679.35 167.01 674.18 166.34 667.18 166.84"/>
    <polyline class="cls-8" points="653.05 204.01 659.43 205.63 664.01 206.01 670.93 206.63 677.8 207.38 687.3 207.63 692.93 207.13 701.43 206.26 709.18 205.88 713.55 205.26 721.55 205.26 727.93 205.26 737.55 205.26 746.18 205.63 756.55 205.38 762.55 205.26 773.18 204.88 778.55 205.26 788.93 205.88 795.05 206.26 803.8 206.01 811.68 206.88 818.93 207.13 826.18 207.01 833.55 207.01 840.43 207.51 849.8 207.38 858.55 206.76 868.18 206.88 878.18 208.01 887.18 208.01 901.68 208.01 914.68 207.01 926.18 206.51 932.93 206.76 954.18 207.76 963.18 208.26 974.18 209.01 986.93 210.51 996.93 211.26 1006.18 212.01 1014.18 211.76 1025.43 211.51 1035.93 211.26 1042.93 211.26 1054.93 211.26 1061.43 210.51 1066.43 210.13 1072.81 210.51 1079.06 210.01 1086.31 209.76 1091.81 209.38 1098.06 209.38 1103.31 208.63 1111.18 207.76 1121.56 206.76 1129.06 206.13 1135.31 205.63 1141.06 205.13 1146.18 204.38 1152.93 204.26 1156.43 203.88 1159.56 203.51 1163.18 202.88"/>
    <path class="cls-7" d="M1813.55,80.77l-11.87.16-8.08.09h-10.84l-6.41.41-8,.34s-5.75-.75-6.17-.75l-8.25.16-6.08.42-9.09.67-7.58.33-12.67,1.08-11.25,1.17-10.5,1-10.16,1.33-10.92.92h-8.17l-11.83-.17-10.33.84-7.84,1.66-8.16,1.17-11.5,1-7.5,1.17-8.84.83-13.5.17h-10.33l-13.33.16h-10.5l-9.84.84-9.33,1L1526,98.1l-6.16.5-9.55,1.25-8.25,1.12-2.75.63" transform="translate(0 0.91)"/>
    <path class="cls-7" d="M1758.05,81l-11.87-.5-8.13-.25L1729.8,80l-7.5-.25L1712,79.6s-7.58.5-7.83.58-4.67.42-4.67.42l-11.25-.08s-6.91.5-7.16.66-9.92-.41-9.92-.41l-6.5-.17-9.17.33h-28.16l-8.34.34h-13.16l-7.5-.17-13.34.83-11.16-.33-11-.67-11.67-.16-12.67-.17-7.66.17-7.67.5-7.83-.5-7.5.16-12.17,1-7.83.34h-10.17l-11.83-.67-10.5-.17-5.67-.33h-7.75l-6.63.12-7.25-.25-7.12-.37h-8.63l-11.37-.13L1390.8,79l-11.25-1.87-12.12-1.38-8-1-9.25-1.25-9.75-2.12-7.75-1.25" transform="translate(0 0.91)"/>
    <path class="cls-8" d="M793.18,170.93l9.17-.33,12.33.17L830,170.6l17.34-.17,12.83.17,11.17.67,7.5.33h6.66l11.67.33,14.17,1.17s4.33.17,5.33.33,12.17.67,12.17.67l9,.33,8.16.34,7.67.5,10.33.83,13.67.5L992,178.43l8.67.67,10.67,2,11.5,1.67,9,.66,11.66,1.34,17.17.66,14.33.84,8.5-.17h15l15,.5,13,.5,10,.33,10.84.84,12.66.33,12.5-.17,11-.16,15.84-.84h15l13.83-.66,15.83-.67,15.84.5,14.83-.5,12.5-1.5,8.17-1.84" transform="translate(0 0.91)"/>
    <polyline class="cls-8" points="663.85 167.84 655.01 169.01 644.68 170.34 628.51 173.18 617.85 174.34 605.68 174.84 590.18 175.01 575.35 175.51 564.18 176.18 553.68 176.68"/>
    <polyline class="cls-7" points="1682.31 134.63 1688.18 136.38 1696.43 139.01 1707.81 141.51 1715.18 143.63 1723.18 145.13 1730.93 145.63 1739.18 144.88 1749.31 142.88 1758.18 140.51 1765.18 138.26 1769.31 136.88 1772.31 136.63 1776.81 136.76 1783.18 136.76 1790.43 135.88 1797.31 134.63 1802.68 132.26"/>
    <path class="cls-7" d="M1479.68,134l15.67,3.55,17.33,2.2,5.25,2.13,3.25,2.37,6,.75,10.62-1.37,8.75.75,9.25,1.25,6.75.75,8.63.25h8.75l10,.5,9.62-.5,9.63-.5,12.12-1.25,9.5-.13,10.13.5,9.58,1.71,9,1.17,8.5.37,10.63-.75,12.12.13,8.38.5,9.78.19,11.83-.67,10.14.35,8.62-.62,10.63-1.13,14.75-1.12,13-1.33,9.25-1.34,4.33-1,3.09-.5s3.83-.83,4.08-.75,4.25-.58,4.25-.58l5-.17,5.33-.25,5.17-.91,7.58-1.09s5.75-1.33,6-1.33,6.5-1.83,6.5-1.83l4.59-1.25,4-.59" transform="translate(0 0.91)"/>
    <polyline class="cls-7" points="2026.18 149.76 2016.68 149.88 2007.68 150.01 1996.56 149.88 1984.06 150.13 1975.31 149.88 1967.68 149.76 1960.06 149.88 1950.81 149.76 1943.31 149.76 1936.18 149.38 1926.68 148.13 1919.81 147.76 1912.18 146.76 1905.43 145.38 1902.68 144.63 1897.18 144.51 1890.06 144.51 1882.68 144.38 1874.93 144.38 1867.43 143.88 1859.43 143.51 1852.18 142.63 1844.56 141.51 1839.31 141.26 1831.85 140.26 1823.18 138.68"/>
    <polyline class="cls-7" points="1833.1 140.43 1837.35 142.59 1843.31 144.51 1850.68 145.63 1856.93 146.51 1866.68 148.01 1880.43 150.13 1896.56 152.01 1907.31 152.76 1919.06 153.63 1927.81 154.01 1941.18 154.51 1952.18 154.88 1964.81 155.26 1975.18 155.01 1988.68 154.26 1998.85 153.26 2010.06 152.26 2019.26 151.59 2029.68 150.09"/>
    <polyline class="cls-7" points="1347.81 131.88 1353.56 132.63 1363.56 134.13 1372.18 135.26 1381.56 136.26 1389.81 137.01 1401.68 137.88 1418.56 139.76 1433.81 140.88 1443.56 141.63 1452.81 142.63 1464.56 143.63 1474.93 144.88 1483.56 146.26 1492.43 147.51 1506.93 148.88 1519.06 149.51 1528.18 149.38 1534.31 149.13 1542.56 148.76 1549.43 148.51 1557.93 147.01"/>
    <polyline class="cls-7" points="1598.56 95.76 1603.06 96.76 1615.18 99.38 1618.91 100.01 1625.68 101.13 1636.18 102.51 1644.31 102.88 1654.81 104.13"/>
    <polyline class="cls-7" points="1620.06 100.38 1624.93 99.51 1631.56 98.88 1643.18 97.63 1650.93 96.26 1654.06 96.38 1662.68 97.13 1674.18 96.63 1681.35 95.93 1687.35 95.43 1695.68 93.84 1703.6 92.18 1709.35 90.43 1716.35 88.18 1726.26 83.93"/>
    <polyline class="cls-7" points="2208.18 23.13 2213.55 24.51 2223.18 25.88 2231.43 27.01 2239.43 28.38 2248.55 29.63 2259.18 30.38 2269.05 30.63 2279.3 30.51 2286.8 30.76 2302.55 30.51 2310.93 30.38 2314.93 30.26 2323.43 28.51 2330.18 26.51 2338.18 23.51 2346.18 20.76 2357.68 18.01"/>
    <polyline class="cls-7" points="2166.8 224.88 2154.93 224.63 2143.93 225.01 2131.8 224.88 2120.93 225.26 2106.18 224.88 2088.05 224.01 2073.43 223.88 2061.8 223.76 2051.05 223.63 2041.93 223.26 2029.93 223.01 2021.06 222.38 2010.68 222.51 2003.68 222.26 1994.93 222.26 1986.93 222.26 1978.18 223.01 1970.06 222.88 1955.31 223.01 1945.81 222.38 1934.06 221.51 1922.56 221.51 1914.06 221.51 1904.81 220.76 1896.31 220.63 1888.31 220.13 1882.18 219.76 1877.06 219.51 1869.93 219.63 1861.56 219.51 1854.18 219.13 1846.93 218.88 1841.18 218.51 1835.93 218.26 1828.81 218.01 1820.68 217.51 1814.81 217.51 1805.93 217.51 1798.68 217.26 1791.68 217.26 1783.31 217.63 1773.43 217.76 1760.43 217.13 1752.56 216.76 1740.81 216.26 1729.93 216.76 1716.43 216.51 1704.68 215.51 1695.81 214.63"/>
    <polyline class="cls-7" points="1682.68 164.34 1670.35 162.34 1661.01 160.84 1651.85 159.68 1641.35 158.51 1631.01 158.51 1621.01 158.01 1606.68 158.18 1594.51 157.84 1583.51 157.18 1578.68 157.18"/>
    <polyline class="cls-7" points="1671.06 149.38 1680.81 152.26 1691.56 153.01 1703.56 153.63 1713.56 153.76 1725.56 154.26 1741.93 155.51 1752.06 156.01 1764.43 157.13 1774.68 157.51 1787.81 158.26 1798.31 158.51 1813.68 159.38 1830.06 160.13 1842.68 160.13 1848.85 160.34 1856.51 161.18 1866.51 161.68 1875.51 162.51 1883.68 163.34"/>
    <polyline class="cls-7" points="994.6 96.34 1004.43 97.68 1014.35 97.43 1018.26 97.59 1023.6 97.84 1029.51 98.34 1035.51 98.84 1041.1 99.01 1048.35 99.59 1054.76 99.68 1061.35 100.09 1067.43 100.26 1074.93 100.59 1081.01 100.93 1084.93 100.84 1091.6 101.18 1097.18 101.43 1101.81 101.38 1106.64 100.68 1111.93 99.76"/>
    <polyline class="cls-8" points="1576.68 157.01 1568.01 156.18 1557.51 155.84 1549.01 156.01 1540.01 156.01 1529.51 156.18 1518.68 156.34 1510.18 156.18 1498.01 156.51 1487.35 156.18 1474.35 156.18 1462.35 156.01 1451.68 155.01 1441.85 154.34 1429.35 153.68 1420.68 153.18 1407.68 153.18 1397.68 152.68 1385.85 153.01 1373.85 153.18 1365.18 152.34 1353.85 151.34 1344.68 151.01 1336.18 150.51 1327.68 150.84 1319.35 150.51 1311.35 150.34 1299.68 149.68 1288.85 149.01 1276.18 149.01 1266.35 148.34 1252.18 147.84 1241.85 147.34 1232.35 146.51 1221.01 146.01 1212.01 145.01 1201.68 144.34 1193.35 143.68 1184.01 143.18 1173.68 142.51 1165.18 142.01 1151.68 141.01 1143.85 140.51 1134.68 139.63 1122.06 139.01 1110.81 139.01 1100.31 138.63 1091.31 138.38 1081.81 138.13 1071.43 137.63 1059.81 137.51 1048.43 136.26 1037.93 135.38 1026.43 135.01 1015.68 134.01 1008.3 133.38 997.93 133.38 987.68 133.76 975.18 133.38 961.3 133.01 950.05 132.76 936.8 132.38 926.8 132.26 917.18 131.76 908.93 131.38 900.43 131.26 892.3 131.51 881.8 130.76 868.3 130.01 856.43 129.38"/>
    <path class="cls-8" d="M1459,115.6" transform="translate(0 0.91)"/>
    <polyline class="cls-8" points="2027.43 149.76 2035.93 149.76 2046.93 150.01 2059.68 150.26 2069.43 150.01 2081.93 150.01 2094.43 149.51 2105.18 149.51 2115.93 149.01 2127.18 149.01 2138.68 149.01 2153.93 148.76 2165.43 149.01 2176.18 150.01 2184.68 150.51 2195.68 151.01 2206.18 152.01 2216.68 152.26 2225.43 152.51 2230.18 152.51 2232.8 152.63 2240.3 152.76 2248.51 153.01 2256.01 153.34 2265.85 153.51 2272.85 153.34 2284.01 154.01 2294.35 154.01 2305.8 154.51 2314.18 154.51 2321.3 154.38 2330.68 153.51 2341.43 153.76 2356.55 152.51 2363.3 152.01"/>
    <polyline class="cls-7" points="1932.93 103.01 1937.81 105.51 1944.68 108.38 1952.68 112.13 1958.93 115.13 1969.81 119.63 1979.56 123.51 1992.06 128.38"/>
    <polyline class="cls-7" points="926.18 238.63 933.18 238.01 941.85 237.51 951.85 237.34 962.85 237.34 972.51 236.84 977.51 236.68 985.85 236.01 993.18 235.68 1001.51 235.34 1009.85 235.34 1018.85 235.01 1026.18 235.01 1036.18 234.84 1043.35 235.18 1053.01 235.51 1065.18 236.34 1074.68 237.01 1082.01 237.01 1092.51 237.01 1098.85 237.34 1105.85 238.18 1115.85 238.51 1123.18 238.76 1131.85 238.76 1139.18 238.26 1145.6 237.26 1152.51 236.76 1161.26 235.76"/>
    <polyline class="cls-7" points="546.8 234.88 554.43 236.38 562.55 237.51 570.93 238.26 582.93 239.88 590.55 241.26 594.93 242.51 599.3 243.76"/>
    <polyline class="cls-7" points="2040.43 105.88 2051.18 108.13 2063.3 109.13 2074.3 110.51 2088.3 112.01 2102.43 113.01 2118.18 113.51 2128.93 113.38 2144.93 112.76 2156.68 112.13 2169.3 111.88 2184.68 111.88"/>
    <polyline class="cls-8" points="2128.66 103.35 2134.49 102.19 2141.66 100.69 2149.49 99.19 2156.99 97.35 2163.33 96.35 2168.83 96.02 2175.41 94.94 2183.43 94.51 2187.93 94.01 2196.68 94.26 2203.93 94.01 2211.68 93.26 2223.43 92.26 2229.93 91.26 2249.43 91.01 2261.18 92.01 2274.68 91.76 2288.93 91.76 2299.93 90.76 2311.18 88.51 2320.68 87.51 2329.68 87.26 2342.18 87.01 2350.8 85.13 2364.18 82.51"/>
    <polyline class="cls-8" points="2311.18 141.26 2318.18 138.76 2321.43 137.76 2330.43 134.51 2335.68 132.51 2344.93 128.51 2352.43 125.13 2363.55 121.63"/>
    <polyline class="cls-7" points="2323.68 141.26 2331.43 144.26 2340.18 147.76 2352.05 149.76 2363.05 152.13"/>
    <polyline class="cls-8" points="2276.85 46.34 2296.43 50.51 2310.43 52.26 2316.68 54.26 2327.18 56.26 2338.93 58.26 2343.18 58.76 2351.93 59.38 2357.68 60.01 2364.3 60.26"/>
    <polyline class="cls-9" points="2332.43 44.01 2339.93 46.26 2348.93 48.51 2359.43 50.76 2364.68 51.38"/>
    <path class="cls-7" d="M1829.93,223.6h5.5l3.5.08h4.33l3.67-.16,3.75.41,2.75.5,3.5.84,3,.66,2.83.34,3.5.83,3.42.08,4.17-.41h4.25l3-.34,4.91-.08c.34,0,3.42.58,3.42.58l3.08.34,3.5.75,4.59.41,4.58.42,4.83.5,4.42.42h4.75s4-.75,4.25-.75,4.25-.5,4.25-.5l4.17-.42s4-.25,4.25-.33,5.16.08,5.16.08l4.67.08,3.75.67,4.67,1,4.25,1,2.83,1.08,3.17,2,3.16,1.5,3.17,1.25,4.17.75,2.75.09" transform="translate(0 0.91)"/>
    <polyline class="cls-7" points="1788.18 285.01 1791.51 284.34 1794.51 283.68 1797.26 282.76 1800.43 281.76"/>
    <polyline class="cls-7" points="1753.43 263.09 1758.6 263.59 1762.1 263.93 1765.93 263.93 1770.01 263.43 1775.01 263.18 1780.26 262.59 1784.18 261.93 1788.6 261.34 1792.85 260.76 1797.51 260.51 1801.6 260.26 1805.6 259.51"/>
    <polyline class="cls-7" points="1044.01 241.68 1047.68 242.88 1051.81 244.13 1056.31 245.26 1060.68 245.88 1063.81 246.51 1067.56 247.26 1070.93 248.01 1074.31 248.76 1078.06 250.13 1082.81 251.38 1084.81 252.13 1089.06 253.63 1091.93 255.01 1096.31 256.51 1101.06 257.63 1106.06 258.76 1110.81 259.26 1117.56 260.26 1121.06 261.38"/>
    <polyline class="cls-7" points="797.93 232.13 802.43 231.13 807.8 230.88 813.8 230.13 819.3 229.38 827.05 228.51 832.93 228.26 838.55 227.63 843.93 227.34"/>
    <path class="cls-7" d="M1243.8,231.72l4.13.75,4.87.5,5.88.88,5.5.87,5.87,1,7.63.75,6,.38h13.37l6.63.25,5.87.5,6.13.37,4.08.46h3.75l3.5.34,6.34-.17,4.91.33h4.84l4.41.09,4.67.08,5.33.83L1364,241l6.34.75s3.58.33,3.83.33,4.67-.33,4.67-.33l5.08-.09,4.17-.16,6.66.33,5.42-.25h10.25l5.87.25,6.25.75,7.13.37h8.87l9.25.13h5.88l8.08-.58,5.84-.17,6.91-.42,5.84-.83,5.58-.08,6-.42,4.83.17,5.92-.5,5.37-.17,5.88.12,7.12-.12,5.88-1.13" transform="translate(0 0.91)"/>
    <path class="cls-7" d="M2062.43,125.68l4.75.92,6.92.42h12.08l7.17.33,6.75.42,5.5.75,6,.08,7.58.08s4.94-.46,5.19-.46l5.39-.2,4,.08,6.36.12,6.31,0,4.58-.08,8.25-.92,5-.58,8.25-1.25" transform="translate(0 0.91)"/>
    <polyline class="cls-7" points="1485.31 136.26 1489.56 138.51 1492.93 140.13 1497.43 141.51 1503.06 142.63 1507.56 143.76 1514.31 144.18 1520.93 145.26"/>
    <polyline class="cls-7" points="2073.51 125.01 2079.18 123.34 2086.51 121.34 2094.68 120.34 2105.01 118.84 2111.85 117.18 2119.18 115.34 2125.35 114.34 2130.35 113.34"/>
    <polyline class="cls-8" points="2246.26 91.26 2242.18 90.09 2234.18 88.26 2226.1 86.26 2218.68 83.84 2209.35 81.26 2202.18 79.76 2196.01 78.26 2190.76 77.09 2184.26 75.93 2176.35 73.76 2168.68 71.84 2160.93 70.59 2153.76 69.34 2147.18 68.26 2139.85 67.76 2133.76 66.84 2128.55 65.88 2123.68 64.09 2117.35 62.34 2111.01 60.84 2103.76 59.43 2098.62 57.32 2089.68 54.32 2083.18 53.13 2076.99 52.07 2071.43 51.07 2067.43 50.2 2062.3 49.26"/>
    <polyline class="cls-7" points="2114.01 27.84 2111.35 29.26 2108.09 30.69 2099.51 33.26 2095.18 34.26 2091.01 35.01 2086.35 36.01 2080.93 36.43 2076.18 36.84 2070.6 36.34 2067.1 36.01 2060.74 36.13 2056.93 36.38 2053.43 37.01 2048.87 37.57 2044.99 38.07 2041.59 38.36 2037.18 38.51 2031.81 38.63 2026.56 38.63 2020.59 38.52 2014.68 37.88 2008.6 37.68 2003.43 37.68 1996.99 37.76 1990.49 38.01 1984.68 38.57 1978.93 38.18 1974.35 37.09 1970.43 37.09 1964.35 36.51 1960.51 36.34 1956.1 36.43 1950.35 35.93 1945.01 35.68 1939.85 34.68 1934.76 33.76"/>
    <polyline class="cls-8" points="1979.1 38.26 1982.43 39.68 1984.93 41.07 1989.87 43.51 1993.18 44.57 2000.43 45.45 2007.31 45.26 2014.99 44.82 2021.43 43.7 2026.18 42.57 2029.43 42.13 2034.24 41.63 2039.12 41.32 2043.68 40.88 2048.8 40.57 2051.74 39.82 2054.49 38.63 2056.74 37.63 2059.93 36.2"/>
    <polyline class="cls-8" points="2180.93 94.84 2177.1 93.68 2172.76 92.68 2167.18 91.84 2160.85 90.84 2156.1 89.93 2149.74 87.63 2142.99 85.7 2139.1 84.76 2132.43 83.68 2125.55 82.13 2120.55 80.88 2113.93 79.63 2108.05 78.63 2103.43 77.63 2097.93 76.09 2093.01 74.68 2088.35 73.51 2083.51 72.09 2078.18 70.76 2074.01 69.09 2067.85 67.68 2064.01 66.59 2061.43 65.13 2054.68 62.63 2050.18 60.01 2043.68 56.01 2039.68 53.76"/>
    <polyline class="cls-8" points="1980.18 123.76 1975.18 123.76 1969.43 124.13 1963.43 124.38 1959.06 124.26 1954.43 124.51 1946.43 124.38 1940.31 124.76 1934.93 125.01 1928.81 125.13 1922.31 125.51 1916.18 126.13 1907.18 126.13 1900.56 126.01 1894.43 125.51 1887.31 124.76 1877.06 123.01 1871.81 121.51 1865.81 119.51 1860.56 118.01 1855.35 116.51 1847.51 114.68 1841.18 112.68 1832.31 110.51 1826.18 108.63 1821.06 107.76 1814.93 106.51 1809.31 105.76 1803.93 105.51 1794.93 104.26 1786.6 103.76 1780.01 103.34 1775.18 103.18 1769.85 102.68 1764.43 101.51 1758.43 100.76 1752.18 100.38 1748.43 99.63"/>
    <polyline class="cls-7" points="1729.81 103.01 1717.81 106.01 1707.31 107.63 1701.43 108.63 1695.81 109.26 1688.31 109.76 1681.56 110.13 1676.81 110.51 1670.43 110.38 1664.68 110.63 1658.81 110.26 1651.81 110.13 1646.56 110.38 1639.43 110.76 1630.43 111.63 1623.56 111.51 1615.56 112.01 1606.56 112.26 1599.18 113.26 1592.06 114.01 1583.43 115.01 1575.1 115.34 1565.68 115.84 1558.85 116.18 1551.68 116.34 1544.35 116.34 1536.18 116.68 1524.68 116.84 1510.18 117.51 1497.68 117.18 1486.01 117.51 1477.18 117.01 1465.68 116.51 1460.31 116.51 1455.56 116.51 1448.56 117.01 1443.93 116.88 1440.06 116.76 1430.93 117.38 1421.93 117.51 1410.68 118.01 1401.18 118.63 1392.81 119.13 1384.81 119.26 1374.81 119.88 1365.31 120.26 1354.7 120.84 1343.81 121.63 1334.18 122.01 1326.18 122.26 1318.18 122.26 1307.18 123.63 1293.68 125.26 1284.81 127.01 1275.18 128.51"/>
    <polyline class="cls-7" points="1903.35 162.51 1909.35 161.68 1916.18 161.34 1924.85 160.18 1934.35 159.18 1941.51 158.18 1949.85 157.34 1959.18 155.01"/>
    <polyline class="cls-8" points="1031.18 163.13 1036.31 162.63 1040.56 162.01 1047.18 161.26 1054.18 161.01 1061.06 160.76 1065.56 160.38 1070.18 160.01 1074.93 159.76 1079.68 159.38 1083.18 159.26 1087.43 158.76"/>
    <polyline class="cls-8" points="1240.93 106.34 1245.85 106.59 1252.76 106.09 1258.68 106.59 1264.43 106.01 1271.81 105.63 1277.56 105.51 1283.06 105.88 1288.31 105.88 1292.93 106.01 1299.06 106.01 1304.56 106.63 1310.06 107.01 1314.18 107.01 1320.93 107.26 1327.06 107.63 1332.06 107.51 1337.68 107.51 1342.56 107.51 1347.31 107.51 1351.68 107.88 1357.01 107.76 1361.85 107.84 1367.1 108.01 1371.6 108.34 1376.51 108.51 1380.76 108.51 1386.43 108.68 1391.35 108.76 1394.1 108.59 1398.6 108.51 1402.93 108.68 1406.35 108.51 1409.51 108.68 1413.51 108.59 1417.43 108.51 1426.81 109.01 1437.93 109.26 1450.81 109.51 1461.06 109.76 1471.43 109.76 1479.81 109.63 1489.56 109.26 1500.81 109.01 1511.43 109.26 1519.06 109.38 1522.43 109.51 1529.18 109.51 1539.68 109.26 1550.43 108.76 1559.68 108.26 1568.43 107.26 1578.68 106.01 1588.68 103.76"/>
    <path class="cls-8" d="M1207.3,109.85l9,.58,5,.54,8.38.5,6.62.25,6.13,0,5.62.33,6.5.62,6.38.75,6.25.38,7.75.62,5.25,0,6.37.42,4.63.5,4.75.37,4.5.38,7,.37,5.42.13c.37,0,2.5.33,2.5.33l4.5.84,4.83.66,5.33.92,3.25,1,3.17.67" transform="translate(0 0.91)"/>
    <polyline class="cls-8" points="1323.26 119.09 1318.51 119.59 1312.26 119.43 1308.6 119.51 1303.51 119.68 1299.1 120.26 1294.18 120.43 1289.43 120.93 1285.1 120.84 1280.43 120.84 1276.43 120.84 1272.43 121.01 1268.6 121.01 1266.76 121.26 1262.68 121.51 1257.76 121.93 1251.51 122.51 1246.26 123.43 1240.68 123.68 1237.26 124.51 1230.93 125.26 1227.51 126.01 1224.26 126.68 1221.93 127.09 1217.01 128.01"/>
    <path class="cls-7" d="M494,243.77l5.67-1.5,10.17-.5h6.83l7.67,1.66,4.5.34,6.33.83h5l7.33.5,8.34-.5,5.16-.33s3.67-.17,4.5-.17h6.84l9.16-.33,4.67-.17h7.37s7.13-.88,7.5-.75,5.5.5,5.5.5l5.63-.38,6.87-.5,9.25-.25h9l7.88-.12,6,.5,8,.62,9.75,1.13,5.37.87,7.63.88,6.5,1.37" transform="translate(0 0.91)"/>
    <polyline class="cls-8" points="1678.51 291.51 1683.93 290.09 1687.76 289.01 1693.68 288.18 1699.68 287.51 1704.93 287.01 1712.6 286.51 1720.26 285.68 1727.1 285.34 1733.01 284.68 1736.93 284.76 1742.93 283.76 1748.01 283.09 1752.93 282.34 1758.68 281.34 1766.31 280.54"/>
    <polyline class="cls-8" points="1993.85 241.43 1997.68 242.84 2002.6 244.76 2006.18 246.09 2009.85 247.59 2015.93 248.43 2021.43 248.84 2028.01 248.76 2032.68 248.43 2038.68 248.68 2046.35 248.43 2053.43 248.18 2062.35 248.68 2068.01 248.34 2074.51 249.18 2082.35 249.43 2091.18 250.84 2099.01 252.43 2103.1 253.59 2107.6 253.68 2113.43 254.26 2117.18 254.76"/>
    <polyline class="cls-8" points="1626.01 251.68 1630.85 251.18 1634.85 250.84 1642.18 249.01 1648.01 248.18 1654.85 247.01 1659.18 246.68"/>
    <polyline class="cls-8" points="722.85 222.34 727.01 223.34 734.85 224.18 742.01 224.68 753.01 225.18 758.18 226.18 764.51 227.51 769.18 228.51 774.85 229.34"/>
    <polyline class="cls-8" points="352.31 182.63 355.43 182.76 361.81 183.01 369.31 183.01 376.06 182.88 383.93 182.51 389.81 181.76 401.31 180.01"/>
    <path class="cls-8" d="M400.8,178.85" transform="translate(0 0.91)"/>
    <polyline class="cls-8" points="972.35 230.51 962.85 229.18 955.68 229.01 944.01 228.18 931.85 226.68 922.68 226.68 910.01 225.18 900.51 224.51 890.35 224.01 881.68 223.68 869.35 222.84 859.68 220.68 847.68 219.34 831.85 218.34 818.51 215.68 807.35 214.01 797.85 211.34 789.18 208.84 777.35 205.34"/>
    <polyline class="cls-7" points="845.18 128.51 839.35 129.34 834.51 129.68 829.85 129.84 824.68 129.68 817.35 130.34 808.68 131.68 801.51 132.01 795.35 132.51 789.35 131.84 781.85 131.34 773.51 130.51 768.8 129.88 762.8 128.38 754.68 127.38 748.68 126.38 743.93 125.76"/>
    <polyline class="cls-7" points="769.8 129.76 776.43 129.63 784.93 129.01 793.18 128.13 799.93 127.88 808.93 127.13 816.43 126.01 822.18 126.13 826.3 125.63 831.8 125.38"/>
    <polyline class="cls-7" points="1609.68 147.01 1614.56 147.38 1622.18 147.38 1629.18 148.01 1636.18 148.13 1643.06 148.51 1648.18 148.63 1655.81 148.38"/>
    <polyline class="cls-8" points="2085.18 36.26 2088.68 36.76 2094.68 36.76 2100.68 35.88 2106.94 35.6 2114.18 34.38 2125.18 34.01 2129.18 34.38 2132.68 34.38 2140.93 33.38 2144.3 31.63 2148.55 29.51 2153.18 27.63 2158.68 26.38"/>
    <polyline class="cls-7" points="2096.68 56.51 2091.93 56.63 2080.3 55.88 2066.55 54.13 2054.43 53.51 2042.81 53.38 2029.18 52.84 2016.35 52.68 2001.18 52.34 1989.51 52.34 1976.68 52.18 1959.18 52.34 1945.01 51.68 1933.35 51.51 1918.76 51.3 1906.87 50.38 1895.81 49.76 1888.81 48.38 1880.99 47.2 1877.49 46.45"/>
    <path class="cls-7" d="M311.8,186.93l11.67,1.34,13.17,1.33L354,191.43l13.67.67,16,1.17,28.66,3,28.5,2.5L459,199.93l15.83,1.5,13,2,22.34,2.34,15.16,1,20,1,14.34,1.66,27,2.34,15.66,2,22.67.33,21.67,1,22.83,1.33,24.17,3.34h11.5l18.5,1.5h10.83l17-1.67,14-.33,12.5,1.16,13.83,2.84,19,2,10.67.66,19.83.34,21.5.66,23.67,2.34,25.83,1,18.17.5,15.17-.3,18.12-.37,14.13-.75,11.37-.88,16.25.38,10.25.12,18.75.63L1051,231l19.63.38,15,.75h15.16l32.67,1.5,24.83.67,12.84,1.66,8.87,1.17,21.75-1.75,17.63-1,13.5-1.38,16.25-2.2,16-.5,20.16-2,15-.17s19.71.75,20.21.5,18.38-.13,18.38-.13,27.12-.37,27.62-.5,21-.37,21-.37l22.88-.13,14.37.25,13.63.38,14.17,1.92,11.08,2.25,13.83,1.83,15.5,1.17,13.5,1.66,12.5,1.17,10,1,15,1.62,9.63-.37,11.5-.25,10.33,2,13.34.5,19.83,1.17,15.33,1.16,16.67,1,23.83-.16,19.84-.5,23.66.33,17.5.17,13.34,2.5,16.83,4.5,13.17.16,15.33,1,13.33,4,11.5.84,10.67-.67,11.83.67,11.67.16,15.83.5,15.84.34,17.83.66,16.5-.33,18.5,1.5,21,.17,16.67-.34,14.16,1,16-.33h7.67l13.67-.21,12.12-1.62,11.88-.75,9.37-.13,15-1.37,9,.37,13.13-1,14.12-2.37,9.25-.5,8.38-.88,11.75.13,9,.37,9.5.38h10.62l9.75.25,9.25.12,13.13.38,18.87.62,12.38-.75,13.5-.62,15,1,17.75-1,8.87-.5,17,.5,12.63-.88,5.58-1.54,8.5-5,10-5.5,12-4.5" transform="translate(0 0.91)"/>
    <path class="cls-7" d="M699.76,134.85l5.63,1.5,7.37,2,5.44,1.19,6.06,1.12,6.38,1.56,6.25,1,6.25.5,6.37,1.13,8,.56,6.75,1,7.32,1.44,7.81.81L790,150.22l8.25.13,12,.12,15.25.75,18.25.88,17.88.62,31.5,1.21,18.33,1,23.33.84,18.67.16,19,1.34,15.5,1.16,15.33,1L1024,161.6l21,2,25,1.83,17.67,2.34,20.5,1.58,19.75,1.5,21,2.25,23,2.5,12.37.87,17.75,1.38,23.88.12,13.62.75,11.5,1,15.88,1.25,13.5.75,14.83,1.13,12.08,1.08,10.84,2.67,9.91,1.25,15.59,2.08,12.37.29,15.13.46,8.25-.75,16.25,1.09,19.25,2.08,24.12,1.12,15.13.5,14.75,1,16.62.75,8.13.25,12.25.88,9.87.12,13.63,1.13,10.87.37,19.13-2.12,9.37-1.5,15.63-.13,9.75.13,10.12.75,10.75,1,9.88-.88,11.75-.7,9.5-.17c.37,0,8,.87,8,.87l7.75,1.38,11.87,1.25,11.63-.75,12.37-.25,14.38-.38,10.5-.37,11.62-1.13h11.38l9.5-.37,10-.75,13.62-.25h13.13l8.75.37,10.87.63,8,.58s11.79,2.46,12.17,2.34,7.33.33,7.33.33l13.84.33,14.33.25,15.67.5,10.41,1.42,9.25.83,9.59-.41s10.33.58,10.83.58,13.5-.63,13.5-.63l9.75.13,10.75.25H1976l11.13-.25h27.12l9.13-.63h9.75l12-.12,11.75,1.12h10.75l11.5-.12,13-.5,9.75-.13,9.87.13,11.38.5,13,1,9.5.5,11.25,1,11.37,1.75,12,2.62,9.75,1.25,12.88,1.75,8.37.88,11.88,1.62,15.62,2.25,12.5,1.5,14,1.13,11,.12s10.38.3,10.88.25l14.5-1.37,10.62-.63,4.63.38h5.5l11.25,1.5,11,2.5,17.91,3.5" transform="translate(0 0.91)"/>
    <path class="cls-7" d="M1452.39,60.18l4.92.42,9.45.62,7.13.63,6,.58,5.83.5,7.42.59,6.25.16h4.75l5.5.09,7.75.08,5.58.33h6l6.17.42,6,.08,6.58.17,5.17.42,5.17.25,6.16.41,5.42.09,6,.16,6.33.42,7.34.33,7.16.59,6.42.5,8.25,1.08,4,1,5.5,1,4,1,3.25.33,4.25,1,4.25.38,4.58.42,5.29.58,6.88.25,5.67.25,6.75.25,5.16.25,6.5.08,5.42.42,5.62-.13,4.71.21,5.92-.08,7.25-.17,6.33-.16,7.25.16,7.42.5,7.83.09h6.42l6.33.08,8.17.17,8.92.16,8.08.42,7.83.17,6.34.5,7.91.25,6.25.25,5.59.83,6.41.83,6.84,1,16.41.84,4.34-.09,7.91.34,6.84.75,10.41.58,10,.08,5.5-.16,4.67.25,4.92.5,5.75.66,5.83.17s4.75.17,5,.25,7.67.17,7.67.17L1924,86l9.09.83,9.41.83h8.25l6.59.59,5.83.58,5.17.5,5.66.83,4.75.84,6.09.66,5.75.75,5.41.67,8.17,1.42,8.33,1.5,5.09,1.25,5.08,1.25,6.67.83,4,.42,6.08.41,6.25.92,5.5.58,6.42,1,6.08,1.59" transform="translate(0 0.91)"/>
    <polyline class="cls-7" points="885.72 111.34 893.72 111.84 909.22 113.59 926.72 114.84 945.47 115.59 960.47 116.34 971.47 117.34 986.72 118.59 999.47 119.09 1014.72 119.59 1028.97 120.84 1043.47 122.34 1057.72 124.34 1068.72 125.84 1080.72 126.59 1091.22 127.17 1103.31 127.26 1119.97 127.34 1134.06 127.34 1148.22 127.09 1163.89 127.59 1174.64 127.76 1185.22 127.84 1196.22 128.47 1210.72 128.09 1223.22 127.84 1236.35 128.59 1253.97 128.34 1273.22 128.34 1288.72 128.97 1306.35 129.34 1318.47 130.09 1328.35 130.59 1338.35 130.97 1351.6 131.59 1364.97 131.84 1377.35 132.47 1389.85 133.09 1403.72 133.72 1417.1 134.22 1431.22 134.47 1444.1 134.72 1453.85 134.72 1466.22 134.84 1477.72 134.84 1486.47 134.34 1494.85 133.47 1506.97 132.97 1516.47 132.47 1532.1 131.59 1545.1 132.34 1556.35 133.09 1570.35 133.97 1582.22 134.22 1591.35 134.34 1601.35 134.59 1611.47 134.84 1623.47 134.59 1632.72 134.34 1644.47 134.59 1654.97 134.84 1666.1 134.72 1678.85 134.59 1690.1 134.84 1703.35 135.59 1716.22 135.34 1734.72 134.84 1751.1 133.97 1763.6 133.97 1777.72 133.34 1792.97 132.97 1805.22 132.22 1818.22 132.09 1831.97 132.34 1840.85 132.72 1852.1 133.84 1866.6 133.97 1881.6 133.72 1897.1 133.22 1910.97 132.72 1920.72 132.09 1931.6 131.59 1944.47 131.47 1956.6 131.34 1967.22 131.59 1978.97 129.09 1990.73 128.27 1995.14 128.63 2005.14 129.76 2013.89 129.51 2026.39 128.51 2039.39 127.76 2053.39 127.01 2063.89 126.26 2077.64 125.01 2089.56 125.01 2103.39 124.51 2115.64 124.76 2131.14 124.76 2145.14 125.51 2159.64 125.51 2174.64 126.26 2191.14 127.51 2207.64 129.01 2225.01 131.38 2238.89 133.51"/>
    <polyline class="cls-8" points="2241.39 133.76 2252.14 137.01 2260.39 138.76 2268.64 140.01 2276.22 140.34 2284.89 140.68 2294.22 140.68 2301.56 141.01 2307.89 141.01 2314.22 141.01 2322.14 141.01 2331.89 141.26 2346.39 141.51 2363.3 141.51"/>
    <polyline class="cls-8" points="481.93 215.26 475.18 217.76 466.93 222.38 456.68 227.76 446.93 233.38 434.56 238.26 425.43 241.13 419.43 243.76 412.18 245.76"/>
    <polyline class="cls-7" points="147.81 225.01 155.31 227.63 163.68 231.01 170.81 233.88 180.81 237.63 187.56 241.13 194.56 245.01 200.06 247.76"/>
    <path class="cls-8" d="M1819.68,95.35l11.62-1,14.13-.5,13.87-.25,16.25-.25,12-.88,15.25-1.75,11.63-2.12s8.5-1.38,8.87-1.38,7.88-.5,7.88-.5" transform="translate(0 0.91)"/>
    <polyline class="cls-8" points="1990.51 43.76 1994.51 46.01 2001.43 48.84"/>
  </g>
  <g id="Top">
    <polyline class="cls-10" points="52.99 242.69 70.44 240.35 90.39 235.95 143.18 225.03 178.47 217.95 218.59 208.92 312.13 190.15 339.07 184.06 384.5 173.88 503.39 159.71 610.56 147.66 700.02 136.66 743.84 126 831.71 118.71 888.21 113.6 905.25 111.02 923.99 108.18 993.51 97.66 1034.83 91.4 1044.09 90 1142.21 86.86 1178.36 84.64 1233.15 80.52 1315.13 74.36 1452.99 62.17 1570.02 55.11 1687.52 48.02 1794.6 41.77 1847.42 39.09 1933.55 34.78 2014.48 32.03 2092.63 29.38 2175.43 25.66 2270.49 21.69 2364.21 18.29"/>
  </g>
</svg>
