<?xml version="1.0" encoding="UTF-8"?>
<svg id="Calque_1" data-name="Calque 1" xmlns="http://www.w3.org/2000/svg" viewBox="0 0 3544.41 363.29">
  <defs>
    <style>
      .cls-1 {
        stroke: #e52521;
        stroke-width: 2.13px;
      }

      .cls-1, .cls-2, .cls-3 {
        stroke-miterlimit: 10;
      }

      .cls-1, .cls-2, .cls-3, .cls-4 {
        fill: none;
      }

      .cls-2, .cls-4 {
        stroke: #c04894;
        stroke-width: .99px;
      }

      .cls-3 {
        stroke: #3154a2;
        stroke-width: 1.42px;
      }

      .cls-4 {
        stroke-linecap: round;
        stroke-linejoin: round;
      }
    </style>
  </defs>
  <polyline id="rank4_2" class="cls-2" points="1220.6 84.12 1208.1 88.62 1197.47 91.24 1192.1 92.87 1185.77 93.7 1178.1 95.2 1170.77 94.7 1162.93 94.2 1154.93 93.2 1145.77 92.87 1135.77 93.87 1123.43 94.7 1111.77 95.7 1099.27 96.54 1085.93 97.2 1072.6 98.37 1058.97 99.37 1044.97 99.99 1024.22 102.74 1000.85 103.99 980.77 104.37 967.43 104.2 954.43 103.03 938.93 102.37 921.77 100.37 904.43 99.87 888.93 97.2 880.72 97.37 860.47 99.87 836.72 102.24 825.1 103.62 811.72 104.12 797.6 104.99 777.47 106.37 753.85 108.49 734.47 108.99 719.1 109.12 706.47 109.24 695.72 108.37 686.35 107.99 676.22 107.99 665.72 107.74 647.72 108.49 631.1 107.62 618.85 107.62 602.22 108.12 586.35 108.99 569.72 110.62 554.97 111.99 539.1 113.12 524.72 113.99 513.72 115.24 500.6 115.12 481.22 115.62 470.6 115.24 461.47 114.49 451.47 113.99 442.72 114.24 435.35 114.12 425.22 113.87 406.1 112.99 392.47 111.74 382.1 112.62 369.6 111.62 359.22 109.49 342.22 111.37 325.85 114.49 311.97 113.62 293.1 113.49 273.35 113.87 258.93 114.03 244.72 113.49 232.43 113.37 219.47 113.12 209.72 113.12 197.72 112.74 190.1 113.03 172.27 111.53 158.93 110.87 152.6 109.87 136.93 110.2 115.77 112.03 94.97 113.12 80.72 114.87 74.6 114.62 65.85 115.62 52.35 116.12 43.1 118.12 19.77 120.87 3.6 122.37"/>
  <polyline id="rank4_1" class="cls-2" points="708.6 42.66 702.18 44.58 695.35 45.66 686.1 47.08 676.6 47.74 665.77 48.74 655.52 50.74 649.47 52.33 641.35 55.45 631.97 57.7 623.85 58.58 616.22 57.83 607.97 57.58 599.72 57.2 589.47 56.33 578.6 54.95 566.18 52.74 558.35 52.16 550.27 51.49 543.27 51.08 535.47 49.95 528.91 49.33 522.72 49.39 515.22 49.39 506.35 49.39 499.66 49.26 491.04 49.64 483.1 49.49 477.77 49.49 471.27 49.91 460.52 49.83 454.35 49.83 447.27 48.91 440.27 48.08 433.02 47.16 423.02 45.58 413.27 44.83 403.77 44.58 392.43 44.49 382.43 44.83 373.18 44.49 363.43 43.66 352.85 42.33 341.68 41.33 330.43 40.74 322.27 41.08 315.6 41.33 307.43 41.66 298.27 41.66 290.1 41.83 280.91 41.08 271.91 40.26 265.35 40.95 255.35 40.83 248.22 40.83 241.47 41.58 232.85 43.58 227.85 45.58 219.47 46.64 211.1 47.91 202.27 48.08 191.6 47.74 181.85 47.49 172.68 46.49 162.18 45.74 156.18 45.99 148.77 46.24 142.52 45.91 134.6 45.58 128.85 44.99 123.85 44.66 117.72 43.83 112.1 43.83 104.85 44.08 98.97 43.08 94.6 42.2 89.72 40.95 84.72 41.2 81.1 41.33 73.52 41.66 63.52 41.66 55.52 41.99 41.85 41.99 33.18 41.66 19.85 42.66 12.18 42.99 3.77 43.87"/>
  <path id="rank4_3" class="cls-4" d="M1.87,267.09l7,1.5,19.5,1.75,23.24,.58,13-1.5,7.1-.75,9.23-.25,8.67,.16,17.25-.41,17,1.25h16.5l17.5,.75,16.42,.75,19.83-.17,30.17-3.33,20.5-5.17,17.33-2.17,18.5,.17,21.33-.33,5.67,.16,9.67-.66,13.33-.17,11.67,2.17,12.66,2.5,12.84-.17,9.5,1.33,20.58,1.09s16.5-1.5,17.25-1.25,24-3.25,24-3.25l16,.5,32.67-1.25h10.83l8.5-.34,17.33-1,17.17-.66h14.67l14.5,1.16,9.83,1.5,13.67,2.67,22.33,1.17h15.17l8.83,.66,12.5,.34,13.88,.37,8.62-.62,16.5-3,19.5-5.25,13.75-1,12.42-2.5,10.16-2.17,7.67,.5,8.63,2.17,14.37,1.37,11.5-.12,13,2.12,10.5,.63,15.5-1,14.5-1.5,16.25-.25,26.25-1,20.75-1.75h18.25l11.63-.5,7.5-.63,9.12-.12,11.13-.75,8.62-.38h8.75l9.63,.5,11.87,1,10.63,1,17.37,2.75,10-1.37,9-3,9.5-.25,10.33-.59,12.17-.16,9.5-1.25,5.42,.25,10.83-1,9.83-.67,7.17,.17,6.83,.16,9.17,.17,7.5,.79,8,1.5,12.38,1.88,19.25,1.37,11.37-.25,9.25-1.37,12.75-.38,10.38,.13,12.95,1.08,10.8,.54,8.87,1.04,7.67,1.17,8.66,.33,11.17-.5,12-1.16,12.83-1.5,12.17-2,13.83-1.34,13.17-2h13.5l16-.33,6.17,.5,13,.67,15.33,.5h15l18.33-.5,16.84-.84,15.33-1.16,14-1.17,14.33-2,13.34-2.17,7.83-.33,7.67,.83,18.9,1.89,9.72,1.36,9.84,.84,7.33,.16,13.83-.16,14.5-.67,27-2.67,15.84,1.17,10,.33,16.83,.17,24.67,.17,8.83,.66,12.33,.34,10.67,1.16,10.33,.5,11.17,.5,16.83,3.5,10,1.17,12.67,1.83,19.17,1.67,9.16-.17h10.34l7-.5,19.83-1h6.33l12.5,.34,7.34,.16,10.49-.5,11.34-.33,17.67,.5,14.5-.83,10.16,.5,11.34-1.34,9.5,.5,10.33,.67,11-.17,9.67,.5,13.33,.5,13.33,1,23.5,1.5,15.84-.16h9l3.02,.41,2.25,.31,2.25,.44,1.93,.38,15.63-.63,19,.5,13.75,1.5,20.25,1,23.5-.5,27-1,16.5-1.25,20-3,18.75-1.75,17-2.5,12.37-1.12,12-.63,14.13-.12,18.25-1.13,11.5,.13,10.75,.62,10.92,1.39,2.45,.61,3.5,.5,3.63,.63,4.87,.12,6.88,.38,7.75-.38,3.75-1,7.75-.66,11.17-.25,8.33-1.46,5.87-.25,6.63,.62,7.17,.57,6.31,.56,8-1.17,11-3.37,7.87-2.13,5.63-2.37,6.74-1.76,9.63-2.24,7.63-.13,5.87-.63,10.03-.25,11.6,.87c4.12,.37,31.37,1.87,33.74,1.87s16.38,0,21.76-.5c5.37-.5,18-.37,22.37-.37s24.63-.37,28.37-1.63"/>
  <path id="rank6" class="cls-3" d="M2335.93,202.2l-16.5-.17-23.33-.5-27.33,.33-19.67,.33-17.33,.17-20.83-.17-14-.67-11.83,.83-17,.33h-36l-26.5,.83-18.83,1-31-.17-25.33,1.17-23.33,.33-18.5-1.5-21.33-1.33-16.17,1.17-16,1-18.83-2-17-.17-10.5-.33-17.54-1.21-14.12,.88-15.12-3.88-12.31-1.25-8.12,.25-8.25,3.12-8.87,1.69-10.37,1.12-4.56-.5-6.44-2.81-7-.38-7.87-.19-6.31,1.44-8.5-.25-24.88-.12-28.12-.88-15.25-1.25-9.38-1.62-9.5-1.38-4.5,2.12-6.5,4.62-20.75,1.75-25.88,.62-10.12,.25-14.12-3-10.5-2.62-9-1.62-7.25,1.62-8.25-1-10-1.5-11.88-.38-20.75,1-15.25,1.12-17,.62-11.62-1.38h-11.75l-12.88,.12-15,.25-14,2-9.62-.5-11.5-2.25-15.25-.62-16.75,.12-17.75-.5-23-.12-8.25,1.12-13.75-2.38-8.5-.88-14.75-1.88-16-2-17-1.62-10.75-2.12-4.88-1.75-9.5-2.12-12.5-1.38-14.75-3.5-11.25-3-8.5-1.12-19,1.62-15.75-.12-28.96-3.08-15-1.5-27-3.17-22-1.33-20.83-1.67-14.5-1-12.33-2.33-16.5-1-26.5,.67-12-.67-14,2.67-10.83,1.17-13.67-2.67-8.67,.67-12.5,1.5h-15.67l-11.33,1.67-12,2.5-21.67,5.17-14,2.5-22.5,2.17h-34.5l-17.67,.67-23.5-.67-11.75-.25-11.25,.25h-16.17l-17.83-2-20.17-.08-16.58,1.33-22.25,3-18,1.75-18.33,2.33-16.17,1.67-15.75,3.5-17.75,2.5-12.33,1.67-17.17,2.5-20.18,1.17-15.33-1-19.67,.33-15.67-.67-11.67-1.67h-9.67l-10.66,.67-12.67-2-13.67-.67-13.67,.67-16,3.67-9.67,1.33-25,1.33-15.67,3.33s-26.67,1-27.67,1l-7.29,.33-6.62,1-8,.88-5.25,.38-5.38-1.12-5.12-.75-5.88-1.12-5.75,.12-6.12,.88-4.75,.12-4.38-.5-4.46-.21-20.67,.33s-14.75,1.12-16.75,1.12-18.58,1.71-18.58,1.71l-14,.67-13.67,1.5-8.17,1.17-7.83,.67-7.83,.5h-6l-4.17,.33-44.25-.17"/>
  <path id="rank7" class="cls-1" d="M3544.41,325.74l-4.25,2.5-4.06,.38-4.31,.75-5.62-.69-4.23,1.08-5.08,.92-2.81-1.12-4.44-.37-5.81,.31-4.19,.81-4.06-.31-4.77,.99-4,.21-5.65-.47-6.35-.53-5.54-.08h-5.88l-5.17-.42h-8.59l-10.67,1-6.59-.13-6.32-.12-4.76-.09-2.16,.09-7.17,.28-7.51,.3-5.08,.36-4.42,.31-4.44,.52-5.61,.65-4.28,.5h-8.24l-3.51-.12-3.74-.13-6.84,.75-4.89,.63-5.44,.7-4.44,.36-3.88,.32-4.5,.37-5.5,.6-4.84,.52-5.05,.73-5.28,.77h-9.5c-.17,0-1.88,.08-4.07,.2-2.07,.11-4.57,.24-6.63,.35-2.27,.12-4,.21-4,.21l-3.31,.03-7.15,.05-8.66,.11-4.17,.05-5.33,.06-4.75,.05-4.83,.06-4.79-.53-4.96-.55-5.17,1.79-7.49,.13-5.25-.08-5.11-.08-5.14-.08-5.12,.12-5.12,.12-6.81,.38-6.69,.37-5.38,.25-5.24,.25-4.14,.17-4.99,.2-3.12,.13-3.62,.32-4.53,.4-6.1,.54-6.62,.75-5.5,.62-4.25-.04-5.5-.05-4.75-.04h-13.25l-13.12,1.12-9.25,.88-9.88,.62-11.12,1.38-14.62-.25-13.88,.38-15.62-.38-16.88,.75-15.75,2.62-11.75,.25-5.62-1-4.12-.62-2.75-1-6.25-.88-5.62,.25-4,.38-3.75,1.5-3.88,1.62-3.88,.62h-6.88l-5.5-.62-3.25-1.75-4.71-.79-5.33-2.58-3.71-1.13-6.75-.38-5.5,.88-8.75,1.12-6.88,1.38-7,1.88-8.88-.12-6.75,.25-8.12-.12-7.58-.42-7.42-2.67-7.17-1.25-4.71-.54-6.38,.75-6-.38-4.62,.12-6,.75-4.5,.88-4.38,.38-7.25,.88h-5.5l-5.75,.08-5.25-.25-2.17-.25h-3.25l-3.67,.5-3.33,.67-2.5,.75-3.33,1.08h-8l-3.75,.67-5.83-.17-16.17-1.83-8-1.5-8.25-1.38-8.42-1.38h-8.46l-10.62-.38-7.5-.62-10-.88-8.38-1.88-9.75-1.25-7.62-.83-8.83-.33-8.83,.33-7.58-.29-9.62,.38-6.75-.38-10.38-1.12-7.38-.25-7.5,.75-8,.25-7,.25h-6.5l-7.88,.12-6.08,.12-7.17-.33-5-.54-6.67-1.46-7.5-1.67-5.96-1.83-6.75-1.42-10-.62-14.5-1.25-13.25-1.62-13.62-1.75-12.62-1-12.46,.17-8.83,.5-6.83-.5-5.67,.17-7.67-.83-5.83-.33-11.67-.33-7.67-.5-6.83-2.17-7.5-3-6.33-2.17-9.67-.67-7.33-1.33-10.5-.83-7.33,.5h-9.5l-13,1.5-9.67-1.33-16.17-1.5-14.67-.83h-12.17l-9.67,1-8.54,.75-9.75,.88-12.75,.62-10.38-.25s-7.12-.25-7.5-.25-6.25,.12-6.25,.12l-9-.75-6.62-.5s-9.62,.5-10.12,.5-5.75-1-6.25-1.12-6.38-1.25-6.38-1.25c0,0-7.62,.25-8,.25s-11.25,1.5-11.25,1.5h-10.38l-13.25,.38-9.12-.62-6.04-1.17-6.25-1.08-4.17-.83h-4.83l-3.17,1-6.42,.25-6.75-1.67-3.5-1-5.25-.75-8.5-.38-6.12-.5-7.62,.12h-3.88l-4.12,.38h-3.62l-4.88,1.25-3.75,.38-4.38,1-7.12,1.12-4.42,.96-6,.33-8.5-.83-8,.67h-5.5l-5.58,1.25-16.5,2.75-17.25,2-17.5-.5-18,.75-20.25-.5-12.5-1.25s-13-1-13.75-1-15.5,1.75-15.5,1.75l-18.5,3.25-12.75,2.25-8.58,1.58-16.33-.17-7.33-.5-17.83-1.5-18-1.67-12.5-2-16.83-1.5-15.5-.83-10.67,2.17-15,1.83-11.5,.67-18.5-1.17-13,.67-10.29-.33-6.71-.67h-7.17l-7.17-.5-8.83-.67h-8l-9.38-1.42-5.79-1.92-6.5,1.17-10.17-1.67s-6.83,1.17-7.5,1.17h-7.17l-9.33,.33-8.83,.5s-9.67,1.5-10.17,1.5-7.5,1.67-7.5,1.67l-9.33,2-10.17-1.5-8.17-.83-10.33-2.83h-9.17l-10.17-.17-9.5,1.17-7.5,.17-10.5,1.5-8.66,.5-8.17,2-12.83,1.83-10.67,.33-14.67,.33-14.67,.83-13.67-.33-7-1.83-9.5-1-11.17-1.33-14.83-.5-11.17,1-9.5,1.17-11.67-.33-7-1-10.33-4.83-7.17-3-10.67,1-11.67,.5-7.67-.67-11-.33-6.33,2-5.33,1-6.67,2.5-11.5,.83-8.5,.33-11.67-1.33-9.67-1.17-6.17-.33-7-1.33-8.5,.17h-9l-6.83,.33-11.33,.33-8.67-.17-11.67-1.83s-14.17-.33-14.67-.33-6.67-2-6.67-2h-6.67l-7.5,.83-8.5,1.17-7.17,1.33-8.5,.67-7.17-.17-10.83-1.67h-7.5l-10.17-.83-8.83-1.17-6.17,.17-7.67,.33-9.33-.33-10,1.33-8.33,1h-11.83l-11,1-6.83-.17-10.67,2.5-9.33,2.25-9.5,.67-4.83-.25-4.83-.5-7.83,1-8.17,1.08-9.67,.58-10.33-.17-4.83-2-14.67,.17-10.67-.83-11.33-.5-8.5-.83-10.67,.67-6.67,.67-10.83,1.33-5.83,.09-10.5-1.33-9.67-.67-10,.08-9.16,.42h-7l-6.5,.58-7,1.33-8.17-1.17-10.33-2-7.67-1-6,.17-6.67-.33-9.5-1.5-10.17,1.17-8,2.17-8.83,1.67-7.83,2.17-9.16,1.09-9.83-1.5-7.17-1.17-14.5,1-8.83-.17-11.67,.17-9.5,.5-11.83-1.83-6.83-.83-7.33-.83-11.83-.17-6.67-.67h-9.5l-6.33,.5-7.5,1.33-6.17,2.33-7.67,1.17-8.33-1-8.17-1.83-6.83-1.17-10.33-1.33-5.5-.67-9.83,.5-9.17,.33-10.17-.17-9.17-.5-9-.17-7.67-1.17-9.17-.17-5.17-.17-12.5-.17-10.17-.33h-8l-13.33-.83-12.5,.33-16-1.67h-14.83l-10,.17h-13.83l-10.83-2.17-12.83-1.5-11.67-.83-9.17-.33-10.83,.17-12.17-.83-8.67,.33-6.67,.67-6.5,.5-4.5,1.83-76.84,1.08"/>
  <g/>
</svg>