<svg xmlns="http://www.w3.org/2000/svg" viewBox="0 0 2363.5 316.04">
  <defs>
    <style>
      .cls-1, .cls-2, .cls-3, .cls-4, .cls-5, .cls-6, .cls-7 {
        fill: none;
        stroke-miterlimit: 10;
      }

      .cls-1 {
        stroke: #c04894;
        stroke-width: 1.42px;
      }

      .cls-2 {
        stroke: #2e519f;
        stroke-width: 2.13px;
      }

      .cls-3 {
        stroke: #e52521;
      }

      .cls-3, .cls-7 {
        stroke-width: 2.83px;
      }

      .cls-4, .cls-5, .cls-6 {
        stroke: #f4e600;
        stroke-width: 0.71px;
      }

      .cls-5 {
        stroke-dasharray: 2.83;
      }

      .cls-6 {
        stroke-dasharray: 5;
      }

      .cls-7 {
        stroke: #f1854d;
      }
    </style>
  </defs>
  <g id="Rank_4">
    <path id="rank4_2" class="cls-1" d="M1011.56,93.67l26.12,1.5,16.88,1.13,14.5.62,15.12.25,13.38.63,11.37.37,9.17,1.63,13.08,1.62,14.38,1.5,14.86,3.88,16.67,2.5,19.66,1.66,20.31-2.29,16.75-1.75,18.92-3.75,22.83-1.5,15.37-.75,12.13-.87,11-.38,15.17.63,14.7.75,27.13,3.12,22.62,1.88,17.71.58,20.67-1.33,21.5-3,27.75-.5,29.75.16,19,1.09,28.25-.75,50.5.75,28.25.5,28.75.5s22.75-.5,23.5-.5l20.08-.09,21.92-1.91,20-3.25,33.5-3,25.75-.25,30,2.25,38.5,3.25,53,1.5,37.5,4.5,20-1.25,23.5-1.25,25.25,1,24-.5,26.25.5,32.5-.75,9.75-.5,17.08,1.08,13.92.83,14.67,2.59,8.58,1.5,4.62.5,5.75-.25,6.3-.92,6.09-.93,4.9-.75,7.67-1.15,7.5-1.17,6.41-1,6.26-1,7-.58,7-.59,13.17-1,14-1,16.66-.83,16.92-2.83,7-.25,9.25.25h4.75l27.37-1.25"/>
    <polyline id="rank4_3" class="cls-1" points="2365.23 40.55 2351.23 41.3 2341.23 41.55 2331.23 42.55 2322.73 43.8 2315.85 44.3 2305.85 44.8 2282.98 45.3 2262.23 45.42 2253.1 45.17 2244.1 44.67 2234.6 43.92 2222.6 43.42 2209.81 43.3 2201.81 43.8 2192.81 43.13 2180.48 43.63 2170.81 44.63 2161.81 45.13 2149.31 45.63 2138.64 45.97 2130.64 45.8 2123.89 45.96 2114.14 45.97 2103.16 46.73 2091.35 47.73 2079.06 47.63 2065.98 48.05 2057.64 49.05 2049.6 49.42 2041.54 49.05 2032.23 48.92 2019.98 49.3 2014.64 49.05 2007.06 48.63 2000.98 47.8 1992.14 46.63 1980.73 44.51 1973.16 43.73 1963.98 43.46 1952.81 43.96 1941.31 44.63 1929.64 45.13 1916.81 45.8 1907.35 46.17 1897.31 46.3 1886.35 46.05 1876.64 45.8 1869.14 46.3 1858.6 46.55 1847.35 46.05 1835.98 44.92 1822.1 44.42 1812.73 43.92 1801.48 43.67 1790.98 43.3 1783.1 42.55 1773.73 41.67"/>
    <path id="rank4_1" class="cls-1" d="M449.68,164.39,473.06,168l18.25,2.5,17.5,2.38,15.87,1.75,14.55.62,19.16,2.17,19.5.83,15.17,1,20,.33,11.33.84h15.34l11.33.5,16.83,1,14.67-.17h9.33l13.5.83,9.17.67,17.5,1.33,15.67.34,16,1,17.33.83,12.33,1.67,11,1.33,24.84,1.33,12.33.84,32.33,1.66,24,.5,24.5.84,17.5.33,10.34,1,19,.83,18.66-.66,15.67.33,16.83,1.67,17.84.33,15.83,1.83,10.67.34,13.83.33s11.17.33,12,.33,13.33,1,13.33,1l16.67.17,20.33-.5,18.34-.17,21.16-.16,20.67-1.67,13.33.33,20.17.34,16.67.5,18.5.83h20.16l12.5,1,8.34,1.83,10.83,3.67,15.83,5.67,11.67,1.33,15.17-1,13.16-1,9.5-.33,13.17.16,8.83.17,6.29.12h3.46l10.5-.17,15.84,1,13.83,1.17,13.67.5,17,1.67,14,.5,15.33.83,8.67-.17,14.5,1.5,14.66-.16h28.84l15-.67,17.5-.33h16l15.33-.34,18-.83,13.5-2.17,14.21-2.58,10.25-.12,10.25-.63h9.62l9.63-.12h10l11.75.37,12,.75,9.25.5,11,.38,12.37.37,11.75-.25,11.5-.25,13.63.25,18.75.75,20,.38,20-.25,19.75.37,17,.5,15.37-.5,16.63.25h12.12l11.38-1.25h17l14.12.38,15.63.25,18.75.87,15.62.63,14.38,1.12,13.29.67,13.75.75,11.42,1.08,12.66.58h12.84l10.16.34,11,2.91,12.67,1.17,14.5.33,17,.34,13.46,1,11.75.87,11,1,14.12.38,11.88-.25,12-.63,12.37-1.25,8.75.75,9,1.5,13.5,3.5,14.5,4,16,1.5"/>
  </g>
  <g id="Rank_5">
    <path id="rank6" class="cls-2" d="M805.73,119.46l17.16,3.5,25,5.17,25,4.83,22.5,3,17.34,3,14.66,1,17.84,2.17,14.83,2,13.83,2.17,13.34,1.83,13.33,1.67,26,1.5,23.5,2.5,24.5,3.5,45,2,24-.67,11.67.33,15.66,1.34h15.34l22.66.66h42.34c1.33,0,34.66,2.67,34.66,2.67l24-.67s17.67,1,19.34,1h26.66l40.67,1.34,35.33,2,30.67,1.33,24.67-1,39.66-2.33,39.34.66s28-1.66,30.33-1.66,35-.34,35-.34l23-.33h52.33s31,1.33,32.67,1.33,40,1.67,40,1.67l30-1,27.33-3,36.67.33,28.33-1.33,30.34,2.67,34.33,2.33,38.75.92,38.75,2,35,3.75,28.67,1.16,28.08,2.59,32.25-.5,28.75-.75,25.75-.75,27.75,1,25.75.25,24.5-1,14.75,2,27.75.37,19.75-1.12"/>
  </g>
  <g id="Rank_7">
    <path id="rank7" class="cls-3" d="M52.4,241.8l17-.5,13-1.54,16.62.16,10.87-.25,9.34-1.37,9.29-.38h10.12l16.55.88,16,.83L186.56,242l11.5,3.67L207.4,249l11,3.17,18.16,2.33,12.84.67,10.83-.33,9-.34,14.17-1.83,23.66-.67,11.5-.33,15.5-1.33,16.17,1.5h13.5l18-3.34,12.5-2.83,15.83-.17,20-2,12-.83,11,.17,12.87-.38,11.13,1.38,7.17-.17,8.7-.71,11.63.88,10.33,1.5,9,2.33,13.34,1.67,12.16,2.16,11.67,2.17,16.67-1.83,17.33.16,11.17-.5,17.66.17,17.17-1,13.17-1.5,8.16.5,12.5.17,7.84-2,10.16.16,9.67.34,11.67-.34,11.66.17,9,.5,10.67-.67,12.83,1,14.5.5,15.5-.66,14.34-.84,18.66.34,12.34-.34,22.33.67,26.17,1,19.66,3.83,14.67,1.67,4.83,1,8.5-.33,7,.83,6.5-.33,9.67.5,14,1.66h15.83l15.34,1.17,16.33,1,15,2.67h11.33l14.67.16,16.33-.16,15.67.5,13.67-1.84,18.66-.83,3.67-.33h6.33l8.67,1.5,9.5,1.5,12.83,3.33,12,2.17h7.84l10.83,1.83,9.33.83,10.17,3.34,12,2.66s10.17,4,10.67,4.17l7.58,5.67,4.25,1.5,7.5,2,8.75,1.75,9.75.25,11.75.5h7.75l13.75,1.5,10,.25,7,1h12l9.37.75,7.88.75,13.37,1.12,14,1,16.13.38,16.37.62,13.88-.75,11.37-.5,11.38-1,10.67-.33h8.66l12.17,1.5,7.33-.17,5.84-.33,8-1.17,6-.16,7.33-.67,3.33-.83,7.84-.5,8-2.34,6.33-1.83,6.33-.67,8.5-1.66,14.34-3,15.66-.5h11.84l13.5,1,7.16.41,8.84,1.84,9.16,1.16,6,.25,7.16.25,6.67.34,7.76-.17,9.58-.25,12.16-.58,9.33-.5,9.84-.17,12.5-.83,9.5-.5,11,.16,10-.33,9.25-.42,12-1.08,9.08-1.67,11.5-.83,7.67.17,12.83,1.33,8.5.17,11.67,1,11.33.33,8.5-.17,12.84-.16,11.33-.5,8.67.33h9.33l8.17-.33,11,.5,7.17-1.59,5.83-1.16,7.33-.34,8.34-1.16,9.16-1,10.84,1.33,9.16.5,6.34-.33,7.33.5,4.67-.09,13.16.59,8.59.58,13.25.33,11.16.09,10.84.08,9.16-.75,9.84-1.17,13.33-1.91,14.5-.17,15.83-.5,11.67,1,10-.33,15.58,1,14,.16,12.59-.66,17.5.25,13,.75,12.7.12,10.05-1.29,11.58-.46h9.75l11.12.38,14.25,1.12,9.88.88,8.87-.25,13.5.37,13.25,1.25,46.05-.21"/>
  </g>
  <g id="Rank_3">
    <polyline class="cls-4" points="1185.01 268.93 1174.01 266.1 1159.51 262.43 1149.51 260.1 1136.51 258.6 1122.18 256.77 1110.35 255.27 1098.85 253.27 1087.01 250.1 1076.85 247.6 1065.01 244.43 1052.68 242.27 1044.01 240.77 1038.43 240.43 1029.43 239.93 1021.18 240.1 1013.01 239.27"/>
    <polyline class="cls-4" points="1922.18 284.1 1917.35 283.1 1910.85 281.93 1903.85 280.6 1898.51 279.93 1889.18 278.6 1874.01 278.43 1860.68 278.1 1844.35 278.43 1829.01 278.93 1808.18 280.93 1789.18 280.6 1773.51 280.6 1759.51 278.93 1746.35 277.1 1735.01 277.27 1720.51 277.93 1701.35 277.43 1696.43 277.85 1691.68 277.6 1684.93 277.85 1678.18 277.35 1672.43 276.97 1666.18 275.85 1660.93 275.1 1656.8 274.85 1649.43 274.6"/>
    <polyline class="cls-4" points="1577.01 284.93 1587.85 283.43 1604.35 280.93 1623.51 278.93 1636.51 276.77 1652.01 273.93 1665.01 271.43 1681.51 268.43 1689.85 266.43 1702.68 264.6 1721.01 262.93 1738.85 263.27 1752.68 262.27 1771.51 259.93 1785.85 257.6 1791.51 255.77"/>
    <path class="cls-4" d="M218.68,207.77,233,208.93l14.67,1,14.67-.16,15.83.16,16,.67,12.17,1.83,13.66.67,17.5,1.17h13l14.67.16,13.67-.33,14.16-.5,13.17-.33L420,213.1h17.34l12.5-.33,15.5,1.16,12.16.34,10.67.16,11,.17s12-1,12.5-1,14.33-.83,14.33-.83l13.67-.67,11.33-.5,12.79-1.88"/>
    <polyline class="cls-4" points="1412.85 256.6 1416.01 256.6 1432.01 255.1 1444.01 254.1 1458.68 252.93 1480.35 251.27 1491.35 250.43 1501.51 250.1 1511.18 249.6 1520.85 249.43 1533.85 249.6 1548.68 249.77 1562.68 249.43 1577.01 250.1 1589.18 249.77 1605.35 249.93 1615.12 250.16 1620.8 250.66 1631.74 251.1 1640.93 251.22 1651.18 251.35 1658.05 251.47 1666.18 250.93 1679.8 249.97 1688.18 249.35 1700.68 248.85 1709.55 248.35 1713.85 247.6 1718.85 245.93"/>
    <polyline class="cls-4" points="2135.85 177.77 2150.01 180.27 2165.35 180.93 2183.35 182.6 2196.68 183.93 2210.35 186.6 2225.68 190.43 2243.85 193.1 2266.85 196.43 2283.68 199.43 2301.85 201.6 2314.85 203.1 2321.43 203.35 2328.93 203.1 2339.18 202.85 2344.68 202.85 2362.68 203.1"/>
    <polyline class="cls-4" points="1497.43 168.6 1508.68 169.6 1528.93 171.6 1540.43 172.6 1561.68 175.35 1576.43 176.35 1596.68 177.85 1618.85 179.27 1632.68 180.27 1649.01 182.77 1663.85 185.43 1669.35 187.27 1676.85 190.1 1683.18 192.93 1690.18 195.93 1697.8 198.1"/>
    <path class="cls-4" d="M2140.43,203.6l-18.38-5.38-10.87-2.95-13.67-3-11.83-2.34-14.33-2.33-14.17-1.67-12.67-.33-13.16-.67-9.34-1.16-17.33-.67-8.83-.83-8.34-1.17h-10.33l-12.67-.33-16.83-.17-13.17-1-7.5-.67-12.66-2.5-14-2.33-10.17-2.83s-12.5-1.67-13-1.67-11.67-1.5-11.67-1.5l-10.33-1.17-11.67-3.5"/>
    <path class="cls-4" d="M1728.68,246.27,1723,247.6l-15,2.5-18,2.5-12,1.67-11.66.33-15.67.33-23.17-.16-16.33.16-11.17.5h-14.16l-19.17.84-19.17.16H1531l-18.83.84-13.83.16-28.67,1.17-20.67.33-16.33-.83L1414,256.77l-23.5-1.5-19.66-1.17-19.67.33-19.67-.66-18.66-.67-20.34-1.33-22.5-1-15.33-.5-18.33-.5-20.5-1.5-21-2-18.17-1.5-20.17-1.5-18.83-1.5-12.33-1.5-11.67-.84s-16-.5-18-.83-16.33-.33-16.33-.33l-12.67-.17-16.5.33-12.83-.33-11.5.17c-.87,0-23.84,1.66-23.84,1.66l-11,.67-16.83-1-12.67-1.5-13-.5L936.8,238l-7.79-.11-12.16-.16-20,.5h-9.5L866,237.93l-21.5-1.66-5.33-.8-7.88-.62-5.12-.38-7-1-4.38-.5-7.5-.5-5.87-1.12L796.3,231l-4-.5-5-.5-3.5-.5-9.87-1-13-.25-14.25.63-6.5.5-12,.87-15.38.38-14.12-.13-11.13.38-14.87.62-14.92.46H647.43l-13.13-.71-18.87-.29-11.33.84-15,.33-21,.67-20.67,1.33-4-.5-7.25-.25-4.5-.38H513.8l-13-.87-11,.37-8.95-.95-11.42.25-11.5.08-9.83-.17"/>
    <path class="cls-4" d="M2297.18,229.1l-6.83,3-7.84,1.5-10.5,1-8.83.67-13.08,1-14.38,1.25s-17.25,1.5-18.12,1.5l-11.75.12h-14.5l-13.75-.37h-15.75l-11.13-.63-9.62-1.75-4.63-1L2124,235l-14-1-11.16-1.67-8.63.17-14.37.12-19.25.38-14.5.25-8.75-.13L2020,232.6l-8,1.83-10,3.17-8.5,3.17-7-1.09-7.83-2.25-4.83-1.5-5.34-3.66-2.66-4.67-9.17-3.17-18.83-1-9.34,1.17-14.5-.17-12.16-.83-14.25-1.08-12.09-.92-11.41.58-11.75-1.41-4.25-.92-6.25-.5-4.42.33-4.58,2-4.61,3.29-4.81,3.75-5.31,2.32-5.44.56-4.25-.38-5.63-1-6.25-2.37-4.06-2.3-5-3-6.08-2.67h-5.67l-9.5,1.33-8.33,1.25-9.67.5s-7.79.73-8.16.92-4.61.94-4.61.94l-5.94,1.43h-7.87l-5.13.07-9.81-1.38-7.56-.94-9.38-.5-6.93-.43-11.19-.57-13.06.69-7.13-.25-8.12-.25L1636,223l-7.25,1.37-8.69,2.56-9.87-.12-8.81-.75-10.44-.75L1575.55,222l-5.81-1.38"/>
    <polyline class="cls-4" points="2033.68 260.1 2043.05 262.72 2062.3 265.85 2072.8 267.85 2089.68 269.1 2102.55 269.47 2119.18 270.06 2140.01 271.85 2163.01 273.68 2186.01 274.68 2209.68 275.6 2229.18 277.18 2239.18 277.81 2253.18 280.56"/>
    <path class="cls-4" d="M376.62,173.18l5.31,2,5.94,1.44,9.56,1.56,12.12,2.63,4.82,1.25,5.93,2,3.19,1.43,6.31,1.94,7.5,1,5,.5,6.44-.12,7.81.25,10.13-.13,8.87-.12,6.57-.32,8.18.19s6-.25,6.19-.12,5.06-.88,5.06-.88,6.19.38,6.38.38l6.75.12,5.06.13,5,.18s6.81,1.63,7.13,1.57,6,.87,6,.87l6.12.75,4.38.06,8.81,1.82,8,.87,8.56.88,10.63.62,11.81,1.5,10.87,1.17,10.13.75,9.37.37,8.38.63,6.75.5,4.87.5,5.21.92"/>
    <path class="cls-4" d="M340.68,179.81l4.87,1,8.13,1.12,5.37.75,9.88.5,4.44-.19,5.06.07,6.5.31,7.81.37,8.63.07,6.37.18s4.31-.68,4.69-.68,3.75-.5,3.75-.5"/>
    <polyline class="cls-4" points="1678.12 164.85 1698.45 169.18 1713.62 171.35 1729.45 173.85 1736.12 176.18 1745.78 178.68 1758.62 179.35 1771.62 180.68 1783.78 183.18 1797.12 186.85 1815.12 189.52 1823.62 191.02 1836.78 192.85 1849.78 194.02 1862.95 194.52 1876.49 195.85 1889.62 198.35 1901.37 199.1 1913.24 200.97 1920.99 201.85"/>
    <polyline class="cls-4" points="790.68 170.77 783.05 170.6 775.68 170.22 765.43 169.35 758.3 168.72 750.55 168.1 742.8 167.6 735.68 167.47 728.68 167.85 718.18 167.93 710.18 168.1 701.18 167.93 694.68 167.6 686.35 167.27 679.35 166.1 674.18 165.43 667.18 165.93"/>
    <polyline class="cls-5" points="653.05 203.1 659.43 204.72 664.01 205.1 670.93 205.72 677.8 206.47 687.3 206.72 692.93 206.22 701.43 205.35 709.18 204.97 713.55 204.35 721.55 204.35 727.93 204.35 737.55 204.35 746.18 204.72 756.55 204.47 762.55 204.35 773.18 203.97 778.55 204.35 788.93 204.97 795.05 205.35 803.8 205.1 811.68 205.97 818.93 206.22 826.18 206.1 833.55 206.1 840.43 206.6 849.8 206.47 858.55 205.85 868.18 205.97 878.18 207.1 887.18 207.1 901.68 207.1 914.68 206.1 926.18 205.6 932.93 205.85 954.18 206.85 963.18 207.35 974.18 208.1 986.93 209.6 996.93 210.35 1006.18 211.1 1014.18 210.85 1025.43 210.6 1035.93 210.35 1042.93 210.35 1054.93 210.35 1061.43 209.6 1066.43 209.22 1072.8 209.6 1079.05 209.1 1086.3 208.85 1091.8 208.47 1098.05 208.47 1103.3 207.72 1111.18 206.85 1121.55 205.85 1129.05 205.22 1135.3 204.72 1141.05 204.22 1146.18 203.47 1152.93 203.35 1156.43 202.97 1159.55 202.6 1163.18 201.97"/>
    <path class="cls-4" d="M1813.55,80.77l-11.87.16-8.08.09h-10.84l-6.41.41-8,.34s-5.75-.75-6.17-.75l-8.25.16-6.08.42-9.09.67-7.58.33-12.67,1.08-11.25,1.17-10.5,1-10.16,1.33-10.92.92h-8.17l-11.83-.17-10.33.84-7.84,1.66-8.16,1.17-11.5,1-7.5,1.17-8.84.83-13.5.17h-10.33l-13.33.16h-10.5l-9.84.84-9.33,1L1526,98.1l-6.16.5-9.55,1.25-8.25,1.12-2.75.63"/>
    <path class="cls-4" d="M1758.05,81l-11.87-.5-8.13-.25L1729.8,80l-7.5-.25L1712,79.6s-7.58.5-7.83.58-4.67.42-4.67.42l-11.25-.08s-6.91.5-7.16.66-9.92-.41-9.92-.41l-6.5-.17-9.17.33h-28.16l-8.34.34h-13.16l-7.5-.17-13.34.83-11.16-.33-11-.67-11.67-.16-12.67-.17-7.66.17-7.67.5-7.83-.5-7.5.16-12.17,1-7.83.34h-10.17l-11.83-.67-10.5-.17-5.67-.33h-7.75l-6.63.12-7.25-.25-7.12-.37h-8.63l-11.37-.13L1390.8,79l-11.25-1.87-12.12-1.38-8-1-9.25-1.25-9.75-2.12-7.75-1.25"/>
    <path class="cls-5" d="M793.18,170.93l9.17-.33,12.33.17L830,170.6l17.34-.17,12.83.17,11.17.67,7.5.33h6.66l11.67.33,14.17,1.17s4.33.17,5.33.33,12.17.67,12.17.67l9,.33,8.16.34,7.67.5,10.33.83,13.67.5L992,178.43l8.67.67,10.67,2,11.5,1.67,9,.66,11.66,1.34,17.17.66,14.33.84,8.5-.17h15l15,.5,13,.5,10,.33,10.84.84,12.66.33,12.5-.17,11-.16,15.84-.84h15l13.83-.66,15.83-.67,15.84.5,14.83-.5,12.5-1.5,8.17-1.84"/>
    <polyline class="cls-5" points="663.85 166.93 655.01 168.1 644.68 169.43 628.51 172.27 617.85 173.43 605.68 173.93 590.18 174.1 575.35 174.6 564.18 175.27 553.68 175.77"/>
    <polyline class="cls-4" points="1682.3 133.72 1688.18 135.47 1696.43 138.1 1707.8 140.6 1715.18 142.72 1723.18 144.22 1730.93 144.72 1739.18 143.97 1749.3 141.97 1758.18 139.6 1765.18 137.35 1769.3 135.97 1772.3 135.72 1776.8 135.85 1783.18 135.85 1790.43 134.97 1797.3 133.72 1802.68 131.35"/>
    <path class="cls-4" d="M1479.68,134l15.67,3.55,17.33,2.2,5.25,2.13,3.25,2.37,6,.75,10.62-1.37,8.75.75,9.25,1.25,6.75.75,8.63.25h8.75l10,.5,9.62-.5,9.63-.5,12.12-1.25,9.5-.13,10.13.5,9.58,1.71,9,1.17,8.5.37,10.63-.75,12.12.13,8.38.5,9.78.19,11.83-.67,10.14.35,8.62-.62,10.63-1.13,14.75-1.12,13-1.33,9.25-1.34,4.33-1,3.09-.5s3.83-.83,4.08-.75,4.25-.58,4.25-.58l5-.17,5.33-.25,5.17-.91,7.58-1.09s5.75-1.33,6-1.33,6.5-1.83,6.5-1.83l4.59-1.25,4-.59"/>
    <polyline class="cls-4" points="2026.18 148.85 2016.68 148.97 2007.68 149.1 1996.55 148.97 1984.05 149.22 1975.3 148.97 1967.68 148.85 1960.05 148.97 1950.8 148.85 1943.3 148.85 1936.18 148.47 1926.68 147.22 1919.8 146.85 1912.18 145.85 1905.43 144.47 1902.68 143.72 1897.18 143.6 1890.05 143.6 1882.68 143.47 1874.93 143.47 1867.43 142.97 1859.43 142.6 1852.18 141.72 1844.55 140.6 1839.3 140.35 1831.85 139.35 1823.18 137.77"/>
    <polyline class="cls-4" points="1833.1 139.52 1837.35 141.68 1843.3 143.6 1850.68 144.72 1856.93 145.6 1866.68 147.1 1880.43 149.22 1896.55 151.1 1907.3 151.85 1919.05 152.72 1927.8 153.1 1941.18 153.6 1952.18 153.97 1964.8 154.35 1975.18 154.1 1988.68 153.35 1998.85 152.35 2010.05 151.35 2019.26 150.68 2029.68 149.18"/>
    <polyline class="cls-4" points="1347.8 130.97 1353.55 131.72 1363.55 133.22 1372.18 134.35 1381.55 135.35 1389.8 136.1 1401.68 136.97 1418.55 138.85 1433.8 139.97 1443.55 140.72 1452.8 141.72 1464.55 142.72 1474.93 143.97 1483.55 145.35 1492.43 146.6 1506.93 147.97 1519.05 148.6 1528.18 148.47 1534.3 148.22 1542.55 147.85 1549.43 147.6 1557.93 146.1"/>
    <polyline class="cls-4" points="1598.55 94.85 1603.05 95.85 1615.18 98.47 1618.91 99.1 1625.68 100.22 1636.18 101.6 1644.3 101.97 1654.8 103.22"/>
    <polyline class="cls-4" points="1620.05 99.47 1624.93 98.6 1631.55 97.97 1643.18 96.72 1650.93 95.35 1654.05 95.47 1662.68 96.22 1674.18 95.72 1681.35 95.02 1687.35 94.52 1695.68 92.93 1703.6 91.27 1709.35 89.52 1716.35 87.27 1726.26 83.02"/>
    <polyline class="cls-4" points="2208.18 22.22 2213.55 23.6 2223.18 24.97 2231.43 26.1 2239.43 27.47 2248.55 28.72 2259.18 29.47 2269.05 29.72 2279.3 29.6 2286.8 29.85 2302.55 29.6 2310.93 29.47 2314.93 29.35 2323.43 27.6 2330.18 25.6 2338.18 22.6 2346.18 19.85 2357.68 17.1"/>
    <polyline class="cls-4" points="2166.8 223.97 2154.93 223.72 2143.93 224.1 2131.8 223.97 2120.93 224.35 2106.18 223.97 2088.05 223.1 2073.43 222.97 2061.8 222.85 2051.05 222.72 2041.93 222.35 2029.93 222.1 2021.05 221.47 2010.68 221.6 2003.68 221.35 1994.93 221.35 1986.93 221.35 1978.18 222.1 1970.05 221.97 1955.3 222.1 1945.8 221.47 1934.05 220.6 1922.55 220.6 1914.05 220.6 1904.8 219.85 1896.3 219.72 1888.3 219.22 1882.18 218.85 1877.05 218.6 1869.93 218.72 1861.55 218.6 1854.18 218.22 1846.93 217.97 1841.18 217.6 1835.93 217.35 1828.8 217.1 1820.68 216.6 1814.8 216.6 1805.93 216.6 1798.68 216.35 1791.68 216.35 1783.3 216.72 1773.43 216.85 1760.43 216.22 1752.55 215.85 1740.8 215.35 1729.93 215.85 1716.43 215.6 1704.68 214.6 1695.8 213.72"/>
    <polyline class="cls-4" points="1682.68 163.43 1670.35 161.43 1661.01 159.93 1651.85 158.77 1641.35 157.6 1631.01 157.6 1621.01 157.1 1606.68 157.27 1594.51 156.93 1583.51 156.27 1578.68 156.27"/>
    <polyline class="cls-4" points="1671.05 148.47 1680.8 151.35 1691.55 152.1 1703.55 152.72 1713.55 152.85 1725.55 153.35 1741.93 154.6 1752.05 155.1 1764.43 156.22 1774.68 156.6 1787.8 157.35 1798.3 157.6 1813.68 158.47 1830.05 159.22 1842.68 159.22 1848.85 159.43 1856.51 160.27 1866.51 160.77 1875.51 161.6 1883.68 162.43"/>
    <polyline class="cls-4" points="994.6 95.43 1004.43 96.77 1014.35 96.52 1018.26 96.68 1023.6 96.93 1029.51 97.43 1035.51 97.93 1041.1 98.1 1048.35 98.68 1054.76 98.77 1061.35 99.18 1067.43 99.35 1074.93 99.68 1081.01 100.02 1084.93 99.93 1091.6 100.27 1097.18 100.52 1101.8 100.47 1106.64 99.77 1111.93 98.85"/>
    <polyline class="cls-5" points="1576.68 156.1 1568.01 155.27 1557.51 154.93 1549.01 155.1 1540.01 155.1 1529.51 155.27 1518.68 155.43 1510.18 155.27 1498.01 155.6 1487.35 155.27 1474.35 155.27 1462.35 155.1 1451.68 154.1 1441.85 153.43 1429.35 152.77 1420.68 152.27 1407.68 152.27 1397.68 151.77 1385.85 152.1 1373.85 152.27 1365.18 151.43 1353.85 150.43 1344.68 150.1 1336.18 149.6 1327.68 149.93 1319.35 149.6 1311.35 149.43 1299.68 148.77 1288.85 148.1 1276.18 148.1 1266.35 147.43 1252.18 146.93 1241.85 146.43 1232.35 145.6 1221.01 145.1 1212.01 144.1 1201.68 143.43 1193.35 142.77 1184.01 142.27 1173.68 141.6 1165.18 141.1 1151.68 140.1 1143.85 139.6 1134.68 138.72 1122.05 138.1 1110.8 138.1 1100.3 137.72 1091.3 137.47 1081.8 137.22 1071.43 136.72 1059.8 136.6 1048.43 135.35 1037.93 134.47 1026.43 134.1 1015.68 133.1 1008.3 132.47 997.93 132.47 987.68 132.85 975.18 132.47 961.3 132.1 950.05 131.85 936.8 131.47 926.8 131.35 917.18 130.85 908.93 130.47 900.43 130.35 892.3 130.6 881.8 129.85 868.3 129.1 856.43 128.47"/>
    <polyline class="cls-5" points="2027.43 148.85 2035.93 148.85 2046.93 149.1 2059.68 149.35 2069.43 149.1 2081.93 149.1 2094.43 148.6 2105.18 148.6 2115.93 148.1 2127.18 148.1 2138.68 148.1 2153.93 147.85 2165.43 148.1 2176.18 149.1 2184.68 149.6 2195.68 150.1 2206.18 151.1 2216.68 151.35 2225.43 151.6 2230.18 151.6 2232.8 151.72 2240.3 151.85 2248.51 152.1 2256.01 152.43 2265.85 152.6 2272.85 152.43 2284.01 153.1 2294.35 153.1 2305.8 153.6 2314.18 153.6 2321.3 153.47 2330.68 152.6 2341.43 152.85 2356.55 151.6 2363.3 151.1"/>
    <polyline class="cls-4" points="1932.93 102.1 1937.8 104.6 1944.68 107.47 1952.68 111.22 1958.93 114.22 1969.8 118.72 1979.55 122.6 1992.05 127.47"/>
    <polyline class="cls-4" points="926.18 237.72 933.18 237.1 941.85 236.6 951.85 236.43 962.85 236.43 972.51 235.93 977.51 235.77 985.85 235.1 993.18 234.77 1001.51 234.43 1009.85 234.43 1018.85 234.1 1026.18 234.1 1036.18 233.93 1043.35 234.27 1053.01 234.6 1065.18 235.43 1074.68 236.1 1082.01 236.1 1092.51 236.1 1098.85 236.43 1105.85 237.27 1115.85 237.6 1123.18 237.85 1131.85 237.85 1139.18 237.35 1145.6 236.35 1152.51 235.85 1161.26 234.85"/>
    <polyline class="cls-4" points="546.8 233.97 554.43 235.47 562.55 236.6 570.93 237.35 582.93 238.97 590.55 240.35 594.93 241.6 599.3 242.85"/>
    <polyline class="cls-4" points="2040.43 104.97 2051.18 107.22 2063.3 108.22 2074.3 109.6 2088.3 111.1 2102.43 112.1 2118.18 112.6 2128.93 112.47 2144.93 111.85 2156.68 111.22 2169.3 110.97 2184.68 110.97"/>
    <polyline class="cls-5" points="2128.66 102.44 2134.49 101.27 2141.66 99.77 2149.49 98.27 2156.99 96.44 2163.33 95.44 2168.83 95.11 2175.41 94.02 2183.43 93.6 2187.93 93.1 2196.68 93.35 2203.93 93.1 2211.68 92.35 2223.43 91.35 2229.93 90.35 2249.43 90.1 2261.18 91.1 2274.68 90.85 2288.93 90.85 2299.93 89.85 2311.18 87.6 2320.68 86.6 2329.68 86.35 2342.18 86.1 2350.8 84.22 2364.18 81.6"/>
    <polyline class="cls-5" points="2311.18 140.35 2318.18 137.85 2321.43 136.85 2330.43 133.6 2335.68 131.6 2344.93 127.6 2352.43 124.22 2363.55 120.72"/>
    <polyline class="cls-4" points="2323.68 140.35 2331.43 143.35 2340.18 146.85 2352.05 148.85 2363.05 151.22"/>
    <polyline class="cls-5" points="2276.85 45.43 2296.43 49.6 2310.43 51.35 2316.68 53.35 2327.18 55.35 2338.93 57.35 2343.18 57.85 2351.93 58.47 2357.68 59.1 2364.3 59.35"/>
    <polyline class="cls-6" points="2332.43 43.1 2339.93 45.35 2348.93 47.6 2359.43 49.85 2364.68 50.47"/>
    <path class="cls-4" d="M1829.93,223.6h5.5l3.5.08h4.33l3.67-.16,3.75.41,2.75.5,3.5.84,3,.66,2.83.34,3.5.83,3.42.08,4.17-.41h4.25l3-.34,4.91-.08c.34,0,3.42.58,3.42.58l3.08.34,3.5.75,4.59.41,4.58.42,4.83.5,4.42.42h4.75s4-.75,4.25-.75,4.25-.5,4.25-.5l4.17-.42s4-.25,4.25-.33,5.16.08,5.16.08l4.67.08,3.75.67,4.67,1,4.25,1,2.83,1.08,3.17,2,3.16,1.5,3.17,1.25,4.17.75,2.75.09"/>
    <polyline class="cls-4" points="1788.18 284.1 1791.51 283.43 1794.51 282.77 1797.26 281.85 1800.43 280.85"/>
    <polyline class="cls-4" points="1753.43 262.18 1758.6 262.68 1762.1 263.02 1765.93 263.02 1770.01 262.52 1775.01 262.27 1780.26 261.68 1784.18 261.02 1788.6 260.43 1792.85 259.85 1797.51 259.6 1801.6 259.35 1805.6 258.6"/>
    <polyline class="cls-4" points="1044.01 240.77 1047.68 241.97 1051.8 243.22 1056.3 244.35 1060.68 244.97 1063.8 245.6 1067.55 246.35 1070.93 247.1 1074.3 247.85 1078.05 249.22 1082.8 250.47 1084.8 251.22 1089.05 252.72 1091.93 254.1 1096.3 255.6 1101.05 256.72 1106.05 257.85 1110.8 258.35 1117.55 259.35 1121.05 260.47"/>
    <polyline class="cls-4" points="797.93 231.22 802.43 230.22 807.8 229.97 813.8 229.22 819.3 228.47 827.05 227.6 832.93 227.35 838.55 226.72 843.93 226.43"/>
    <path class="cls-4" d="M1243.8,231.72l4.13.75,4.87.5,5.88.88,5.5.87,5.87,1,7.63.75,6,.38h13.37l6.63.25,5.87.5,6.13.37,4.08.46h3.75l3.5.34,6.34-.17,4.91.33h4.84l4.41.09,4.67.08,5.33.83L1364,241l6.34.75s3.58.33,3.83.33,4.67-.33,4.67-.33l5.08-.09,4.17-.16,6.66.33,5.42-.25h10.25l5.87.25,6.25.75,7.13.37h8.87l9.25.13h5.88l8.08-.58,5.84-.17,6.91-.42,5.84-.83,5.58-.08,6-.42,4.83.17,5.92-.5,5.37-.17,5.88.12,7.12-.12,5.88-1.13"/>
    <path class="cls-4" d="M2062.43,125.68l4.75.92,6.92.42h12.08l7.17.33,6.75.42,5.5.75,6,.08,7.58.08s4.94-.46,5.19-.46l5.39-.2,4,.08,6.36.12,6.31,0,4.58-.08,8.25-.92,5-.58,8.25-1.25"/>
    <polyline class="cls-4" points="1485.3 135.35 1489.55 137.6 1492.93 139.22 1497.43 140.6 1503.05 141.72 1507.55 142.85 1514.3 143.27 1520.93 144.35"/>
    <polyline class="cls-4" points="2073.51 124.1 2079.18 122.43 2086.51 120.43 2094.68 119.43 2105.01 117.93 2111.85 116.27 2119.18 114.43 2125.35 113.43 2130.35 112.43"/>
    <polyline class="cls-5" points="2246.26 90.35 2242.18 89.18 2234.18 87.35 2226.1 85.35 2218.68 82.93 2209.35 80.35 2202.18 78.85 2196.01 77.35 2190.76 76.18 2184.26 75.02 2176.35 72.85 2168.68 70.93 2160.93 69.68 2153.76 68.43 2147.18 67.35 2139.85 66.85 2133.76 65.93 2128.55 64.97 2123.68 63.18 2117.35 61.43 2111.01 59.93 2103.76 58.52 2098.62 56.41 2089.68 53.41 2083.18 52.22 2076.99 51.16 2071.43 50.16 2067.43 49.29 2062.3 48.35"/>
    <polyline class="cls-4" points="2114.01 26.93 2111.35 28.35 2108.09 29.78 2099.51 32.35 2095.18 33.35 2091.01 34.1 2086.35 35.1 2080.93 35.52 2076.18 35.93 2070.6 35.43 2067.1 35.1 2060.74 35.22 2056.93 35.47 2053.43 36.1 2048.87 36.66 2044.99 37.16 2041.59 37.45 2037.18 37.6 2031.8 37.72 2026.55 37.72 2020.59 37.61 2014.68 36.97 2008.6 36.77 2003.43 36.77 1996.99 36.85 1990.49 37.1 1984.68 37.66 1978.93 37.27 1974.35 36.18 1970.43 36.18 1964.35 35.6 1960.51 35.43 1956.1 35.52 1950.35 35.02 1945.01 34.77 1939.85 33.77 1934.76 32.85"/>
    <polyline class="cls-5" points="1979.1 37.35 1982.43 38.77 1984.93 40.16 1989.87 42.6 1993.18 43.66 2000.43 44.54 2007.3 44.35 2014.99 43.91 2021.43 42.79 2026.18 41.66 2029.43 41.22 2034.24 40.72 2039.12 40.41 2043.68 39.97 2048.8 39.66 2051.74 38.91 2054.49 37.72 2056.74 36.72 2059.93 35.29"/>
    <polyline class="cls-5" points="2180.93 93.93 2177.1 92.77 2172.76 91.77 2167.18 90.93 2160.85 89.93 2156.1 89.02 2149.74 86.72 2142.99 84.79 2139.1 83.85 2132.43 82.77 2125.55 81.22 2120.55 79.97 2113.93 78.72 2108.05 77.72 2103.43 76.72 2097.93 75.18 2093.01 73.77 2088.35 72.6 2083.51 71.18 2078.18 69.85 2074.01 68.18 2067.85 66.77 2064.01 65.68 2061.43 64.22 2054.68 61.72 2050.18 59.1 2043.68 55.1 2039.68 52.85"/>
    <polyline class="cls-5" points="1980.18 122.85 1975.18 122.85 1969.43 123.22 1963.43 123.47 1959.05 123.35 1954.43 123.6 1946.43 123.47 1940.3 123.85 1934.93 124.1 1928.8 124.22 1922.3 124.6 1916.18 125.22 1907.18 125.22 1900.55 125.1 1894.43 124.6 1887.3 123.85 1877.05 122.1 1871.8 120.6 1865.8 118.6 1860.55 117.1 1855.35 115.6 1847.51 113.77 1841.18 111.77 1832.3 109.6 1826.18 107.72 1821.05 106.85 1814.93 105.6 1809.3 104.85 1803.93 104.6 1794.93 103.35 1786.6 102.85 1780.01 102.43 1775.18 102.27 1769.85 101.77 1764.43 100.6 1758.43 99.85 1752.18 99.47 1748.43 98.72"/>
    <polyline class="cls-4" points="1729.8 102.1 1717.8 105.1 1707.3 106.72 1701.43 107.72 1695.8 108.35 1688.3 108.85 1681.55 109.22 1676.8 109.6 1670.43 109.47 1664.68 109.72 1658.8 109.35 1651.8 109.22 1646.55 109.47 1639.43 109.85 1630.43 110.72 1623.55 110.6 1615.55 111.1 1606.55 111.35 1599.18 112.35 1592.05 113.1 1583.43 114.1 1575.1 114.43 1565.68 114.93 1558.85 115.27 1551.68 115.43 1544.35 115.43 1536.18 115.77 1524.68 115.93 1510.18 116.6 1497.68 116.27 1486.01 116.6 1477.18 116.1 1465.68 115.6 1460.3 115.6 1455.55 115.6 1448.55 116.1 1443.93 115.97 1440.05 115.85 1430.93 116.47 1421.93 116.6 1410.68 117.1 1401.18 117.72 1392.8 118.22 1384.8 118.35 1374.8 118.97 1365.3 119.35 1354.7 119.93 1343.8 120.72 1334.18 121.1 1326.18 121.35 1318.18 121.35 1307.18 122.72 1293.68 124.35 1284.8 126.1 1275.18 127.6"/>
    <polyline class="cls-4" points="1903.35 161.6 1909.35 160.77 1916.18 160.43 1924.85 159.27 1934.35 158.27 1941.51 157.27 1949.85 156.43 1959.18 154.1"/>
    <polyline class="cls-5" points="1031.18 162.22 1036.3 161.72 1040.55 161.1 1047.18 160.35 1054.18 160.1 1061.05 159.85 1065.55 159.47 1070.18 159.1 1074.93 158.85 1079.68 158.47 1083.18 158.35 1087.43 157.85"/>
    <polyline class="cls-5" points="1240.93 105.43 1245.85 105.68 1252.76 105.18 1258.68 105.68 1264.43 105.1 1271.8 104.72 1277.55 104.6 1283.05 104.97 1288.3 104.97 1292.93 105.1 1299.05 105.1 1304.55 105.72 1310.05 106.1 1314.18 106.1 1320.93 106.35 1327.05 106.72 1332.05 106.6 1337.68 106.6 1342.55 106.6 1347.3 106.6 1351.68 106.97 1357.01 106.85 1361.85 106.93 1367.1 107.1 1371.6 107.43 1376.51 107.6 1380.76 107.6 1386.43 107.77 1391.35 107.85 1394.1 107.68 1398.6 107.6 1402.93 107.77 1406.35 107.6 1409.51 107.77 1413.51 107.68 1417.43 107.6 1426.8 108.1 1437.93 108.35 1450.8 108.6 1461.05 108.85 1471.43 108.85 1479.8 108.72 1489.55 108.35 1500.8 108.1 1511.43 108.35 1519.05 108.47 1522.43 108.6 1529.18 108.6 1539.68 108.35 1550.43 107.85 1559.68 107.35 1568.43 106.35 1578.68 105.1 1588.68 102.85"/>
    <path class="cls-5" d="M1207.3,109.85l9,.58,5,.54,8.38.5,6.62.25,6.13,0,5.62.33,6.5.62,6.38.75,6.25.38,7.75.62,5.25,0,6.37.42,4.63.5,4.75.37,4.5.38,7,.37,5.42.13c.37,0,2.5.33,2.5.33l4.5.84,4.83.66,5.33.92,3.25,1,3.17.67"/>
    <polyline class="cls-5" points="1323.26 118.18 1318.51 118.68 1312.26 118.52 1308.6 118.6 1303.51 118.77 1299.1 119.35 1294.18 119.52 1289.43 120.02 1285.1 119.93 1280.43 119.93 1276.43 119.93 1272.43 120.1 1268.6 120.1 1266.76 120.35 1262.68 120.6 1257.76 121.02 1251.51 121.6 1246.26 122.52 1240.68 122.77 1237.26 123.6 1230.93 124.35 1227.51 125.1 1224.26 125.77 1221.93 126.18 1217.01 127.1"/>
    <path class="cls-4" d="M494,243.77l5.67-1.5,10.17-.5h6.83l7.67,1.66,4.5.34,6.33.83h5l7.33.5,8.34-.5,5.16-.33s3.67-.17,4.5-.17h6.84l9.16-.33,4.67-.17h7.37s7.13-.88,7.5-.75,5.5.5,5.5.5l5.63-.38,6.87-.5,9.25-.25h9l7.88-.12,6,.5,8,.62,9.75,1.13,5.37.87,7.63.88,6.5,1.37"/>
    <polyline class="cls-5" points="1678.51 290.6 1683.93 289.18 1687.76 288.1 1693.68 287.27 1699.68 286.6 1704.93 286.1 1712.6 285.6 1720.26 284.77 1727.1 284.43 1733.01 283.77 1736.93 283.85 1742.93 282.85 1748.01 282.18 1752.93 281.43 1758.68 280.43 1766.3 279.63"/>
    <polyline class="cls-5" points="1993.85 240.52 1997.68 241.93 2002.6 243.85 2006.18 245.18 2009.85 246.68 2015.93 247.52 2021.43 247.93 2028.01 247.85 2032.68 247.52 2038.68 247.77 2046.35 247.52 2053.43 247.27 2062.35 247.77 2068.01 247.43 2074.51 248.27 2082.35 248.52 2091.18 249.93 2099.01 251.52 2103.1 252.68 2107.6 252.77 2113.43 253.35 2117.18 253.85"/>
    <polyline class="cls-5" points="1626.01 250.77 1630.85 250.27 1634.85 249.93 1642.18 248.1 1648.01 247.27 1654.85 246.1 1659.18 245.77"/>
    <polyline class="cls-5" points="722.85 221.43 727.01 222.43 734.85 223.27 742.01 223.77 753.01 224.27 758.18 225.27 764.51 226.6 769.18 227.6 774.85 228.43"/>
    <polyline class="cls-5" points="352.3 181.72 355.43 181.85 361.8 182.1 369.3 182.1 376.05 181.97 383.93 181.6 389.8 180.85 401.3 179.1"/>
    <polyline class="cls-5" points="972.35 229.6 962.85 228.27 955.68 228.1 944.01 227.27 931.85 225.77 922.68 225.77 910.01 224.27 900.51 223.6 890.35 223.1 881.68 222.77 869.35 221.93 859.68 219.77 847.68 218.43 831.85 217.43 818.51 214.77 807.35 213.1 797.85 210.43 789.18 207.93 777.35 204.43"/>
    <polyline class="cls-4" points="845.18 127.6 839.35 128.43 834.51 128.77 829.85 128.93 824.68 128.77 817.35 129.43 808.68 130.77 801.51 131.1 795.35 131.6 789.35 130.93 781.85 130.43 773.51 129.6 768.8 128.97 762.8 127.47 754.68 126.47 748.68 125.47 743.93 124.85"/>
    <polyline class="cls-4" points="769.8 128.85 776.43 128.72 784.93 128.1 793.18 127.22 799.93 126.97 808.93 126.22 816.43 125.1 822.18 125.22 826.3 124.72 831.8 124.47"/>
    <polyline class="cls-4" points="1609.68 146.1 1614.55 146.47 1622.18 146.47 1629.18 147.1 1636.18 147.22 1643.05 147.6 1648.18 147.72 1655.8 147.47"/>
    <polyline class="cls-5" points="2085.18 35.35 2088.68 35.85 2094.68 35.85 2100.68 34.97 2106.94 34.69 2114.18 33.47 2125.18 33.1 2129.18 33.47 2132.68 33.47 2140.93 32.47 2144.3 30.72 2148.55 28.6 2153.18 26.72 2158.68 25.47"/>
    <polyline class="cls-4" points="2096.68 55.6 2091.93 55.72 2080.3 54.97 2066.55 53.22 2054.43 52.6 2042.8 52.47 2029.18 51.93 2016.35 51.77 2001.18 51.43 1989.51 51.43 1976.68 51.27 1959.18 51.43 1945.01 50.77 1933.35 50.6 1918.76 50.39 1906.87 49.47 1895.8 48.85 1888.8 47.47 1880.99 46.29 1877.49 45.54"/>
    <path class="cls-4" d="M311.8,186.93l11.67,1.34,13.17,1.33L354,191.43l13.67.67,16,1.17,28.66,3,28.5,2.5L459,199.93l15.83,1.5,13,2,22.34,2.34,15.16,1,20,1,14.34,1.66,27,2.34,15.66,2,22.67.33,21.67,1,22.83,1.33,24.17,3.34h11.5l18.5,1.5h10.83l17-1.67,14-.33,12.5,1.16,13.83,2.84,19,2,10.67.66,19.83.34,21.5.66,23.67,2.34,25.83,1,18.17.5,15.17-.3,18.12-.37,14.13-.75,11.37-.88,16.25.38,10.25.12,18.75.63L1051,231l19.63.38,15,.75h15.16l32.67,1.5,24.83.67,12.84,1.66,8.87,1.17,21.75-1.75,17.63-1,13.5-1.38,16.25-2.2,16-.5,20.16-2,15-.17s19.71.75,20.21.5,18.38-.13,18.38-.13,27.12-.37,27.62-.5,21-.37,21-.37l22.88-.13,14.37.25,13.63.38,14.17,1.92,11.08,2.25,13.83,1.83,15.5,1.17,13.5,1.66,12.5,1.17,10,1,15,1.62,9.63-.37,11.5-.25,10.33,2,13.34.5,19.83,1.17,15.33,1.16,16.67,1,23.83-.16,19.84-.5,23.66.33,17.5.17,13.34,2.5,16.83,4.5,13.17.16,15.33,1,13.33,4,11.5.84,10.67-.67,11.83.67,11.67.16,15.83.5,15.84.34,17.83.66,16.5-.33,18.5,1.5,21,.17,16.67-.34,14.16,1,16-.33h7.67l13.67-.21,12.12-1.62,11.88-.75,9.37-.13,15-1.37,9,.37,13.13-1,14.12-2.37,9.25-.5,8.38-.88,11.75.13,9,.37,9.5.38h10.62l9.75.25,9.25.12,13.13.38,18.87.62,12.38-.75,13.5-.62,15,1,17.75-1,8.87-.5,17,.5,12.63-.88,5.58-1.54,8.5-5,10-5.5,12-4.5"/>
    <path class="cls-4" d="M699.76,134.85l5.63,1.5,7.37,2,5.44,1.19,6.06,1.12,6.38,1.56,6.25,1,6.25.5,6.37,1.13,8,.56,6.75,1,7.32,1.44,7.81.81L790,150.22l8.25.13,12,.12,15.25.75,18.25.88,17.88.62,31.5,1.21,18.33,1,23.33.84,18.67.16,19,1.34,15.5,1.16,15.33,1L1024,161.6l21,2,25,1.83,17.67,2.34,20.5,1.58,19.75,1.5,21,2.25,23,2.5,12.37.87,17.75,1.38,23.88.12,13.62.75,11.5,1,15.88,1.25,13.5.75,14.83,1.13,12.08,1.08,10.84,2.67,9.91,1.25,15.59,2.08,12.37.29,15.13.46,8.25-.75,16.25,1.09,19.25,2.08,24.12,1.12,15.13.5,14.75,1,16.62.75,8.13.25,12.25.88,9.87.12,13.63,1.13,10.87.37,19.13-2.12,9.37-1.5,15.63-.13,9.75.13,10.12.75,10.75,1,9.88-.88,11.75-.7,9.5-.17c.37,0,8,.87,8,.87l7.75,1.38,11.87,1.25,11.63-.75,12.37-.25,14.38-.38,10.5-.37,11.62-1.13h11.38l9.5-.37,10-.75,13.62-.25h13.13l8.75.37,10.87.63,8,.58s11.79,2.46,12.17,2.34,7.33.33,7.33.33l13.84.33,14.33.25,15.67.5,10.41,1.42,9.25.83,9.59-.41s10.33.58,10.83.58,13.5-.63,13.5-.63l9.75.13,10.75.25H1976l11.13-.25h27.12l9.13-.63h9.75l12-.12,11.75,1.12h10.75l11.5-.12,13-.5,9.75-.13,9.87.13,11.38.5,13,1,9.5.5,11.25,1,11.37,1.75,12,2.62,9.75,1.25,12.88,1.75,8.37.88,11.88,1.62,15.62,2.25,12.5,1.5,14,1.13,11,.12s10.38.3,10.88.25l14.5-1.37,10.62-.63,4.63.38h5.5l11.25,1.5,11,2.5,17.91,3.5"/>
    <path class="cls-4" d="M1452.39,60.18l4.92.42,9.45.62,7.13.63,6,.58,5.83.5,7.42.59,6.25.16h4.75l5.5.09,7.75.08,5.58.33h6l6.17.42,6,.08,6.58.17,5.17.42,5.17.25,6.16.41,5.42.09,6,.16,6.33.42,7.34.33,7.16.59,6.42.5,8.25,1.08,4,1,5.5,1,4,1,3.25.33,4.25,1,4.25.38,4.58.42,5.29.58,6.88.25,5.67.25,6.75.25,5.16.25,6.5.08,5.42.42,5.62-.13,4.71.21,5.92-.08,7.25-.17,6.33-.16,7.25.16,7.42.5,7.83.09h6.42l6.33.08,8.17.17,8.92.16,8.08.42,7.83.17,6.34.5,7.91.25,6.25.25,5.59.83,6.41.83,6.84,1,16.41.84,4.34-.09,7.91.34,6.84.75,10.41.58,10,.08,5.5-.16,4.67.25,4.92.5,5.75.66,5.83.17s4.75.17,5,.25,7.67.17,7.67.17L1924,86l9.09.83,9.41.83h8.25l6.59.59,5.83.58,5.17.5,5.66.83,4.75.84,6.09.66,5.75.75,5.41.67,8.17,1.42,8.33,1.5,5.09,1.25,5.08,1.25,6.67.83,4,.42,6.08.41,6.25.92,5.5.58,6.42,1,6.08,1.59"/>
    <polyline class="cls-4" points="885.72 110.43 893.72 110.93 909.22 112.68 926.72 113.93 945.47 114.68 960.47 115.43 971.47 116.43 986.72 117.68 999.47 118.18 1014.72 118.68 1028.97 119.93 1043.47 121.43 1057.72 123.43 1068.72 124.93 1080.72 125.68 1091.22 126.27 1103.3 126.35 1119.97 126.43 1134.05 126.43 1148.22 126.18 1163.89 126.68 1174.64 126.85 1185.22 126.93 1196.22 127.56 1210.72 127.18 1223.22 126.93 1236.35 127.68 1253.97 127.43 1273.22 127.43 1288.72 128.06 1306.35 128.43 1318.47 129.18 1328.35 129.68 1338.35 130.06 1351.6 130.68 1364.97 130.93 1377.35 131.56 1389.85 132.18 1403.72 132.81 1417.1 133.31 1431.22 133.56 1444.1 133.81 1453.85 133.81 1466.22 133.93 1477.72 133.93 1486.47 133.43 1494.85 132.56 1506.97 132.06 1516.47 131.56 1532.1 130.68 1545.1 131.43 1556.35 132.18 1570.35 133.06 1582.22 133.31 1591.35 133.43 1601.35 133.68 1611.47 133.93 1623.47 133.68 1632.72 133.43 1644.47 133.68 1654.97 133.93 1666.1 133.81 1678.85 133.68 1690.1 133.93 1703.35 134.68 1716.22 134.43 1734.72 133.93 1751.1 133.06 1763.6 133.06 1777.72 132.43 1792.97 132.06 1805.22 131.31 1818.22 131.18 1831.97 131.43 1840.85 131.81 1852.1 132.93 1866.6 133.06 1881.6 132.81 1897.1 132.31 1910.97 131.81 1920.72 131.18 1931.6 130.68 1944.47 130.56 1956.6 130.43 1967.22 130.68 1978.97 128.18 1990.73 127.36 1995.14 127.72 2005.14 128.85 2013.89 128.6 2026.39 127.6 2039.39 126.85 2053.39 126.1 2063.89 125.35 2077.64 124.1 2089.55 124.1 2103.39 123.6 2115.64 123.85 2131.14 123.85 2145.14 124.6 2159.64 124.6 2174.64 125.35 2191.14 126.6 2207.64 128.1 2225.01 130.47 2238.89 132.6"/>
    <polyline class="cls-5" points="2241.39 132.85 2252.14 136.1 2260.39 137.85 2268.64 139.1 2276.22 139.43 2284.89 139.76 2294.22 139.76 2301.55 140.1 2307.89 140.1 2314.22 140.1 2322.14 140.1 2331.89 140.35 2346.39 140.6 2363.3 140.6"/>
    <polyline class="cls-5" points="481.93 214.35 475.18 216.85 466.93 221.47 456.68 226.85 446.93 232.47 434.55 237.35 425.43 240.22 419.43 242.85 412.18 244.85"/>
    <polyline class="cls-4" points="147.8 224.1 155.3 226.72 163.68 230.1 170.8 232.97 180.8 236.72 187.55 240.22 194.55 244.1 200.05 246.85"/>
    <path class="cls-5" d="M1819.68,95.35l11.62-1,14.13-.5,13.87-.25,16.25-.25,12-.88,15.25-1.75,11.63-2.12s8.5-1.38,8.87-1.38,7.88-.5,7.88-.5"/>
    <polyline class="cls-5" points="1990.51 42.85 1994.51 45.1 2001.43 47.93"/>
  </g>
  <g id="Top">
    <polyline class="cls-7" points="52.99 241.78 70.44 239.44 90.39 235.04 143.18 224.12 178.47 217.04 218.58 208.01 312.13 189.24 339.06 183.15 384.5 172.97 503.38 158.8 610.56 146.75 700.01 135.75 743.83 125.09 831.71 117.8 888.21 112.69 905.25 110.11 923.99 107.27 993.51 96.75 1034.83 90.49 1044.08 89.09 1142.2 85.95 1178.36 83.73 1233.15 79.61 1315.12 73.45 1452.99 61.26 1570.02 54.2 1687.52 47.11 1794.6 40.86 1847.42 38.18 1933.55 33.87 2014.48 31.12 2092.63 28.47 2175.43 24.75 2270.49 20.78 2364.21 17.38"/>
  </g>
</svg>
