<?xml version="1.0" encoding="UTF-8"?>
<svg xmlns="http://www.w3.org/2000/svg" viewBox="0 0 3543.58 337.41">
  <defs>
    <style>
      .cls-1 {
        stroke-dasharray: 0 0 0 0 0 0 4.21 4.2 0 0 0 0;
      }

      .cls-1, .cls-2, .cls-3, .cls-4, .cls-5, .cls-6, .cls-7, .cls-8, .cls-9, .cls-10, .cls-11, .cls-12, .cls-13, .cls-14, .cls-15, .cls-16, .cls-17, .cls-18, .cls-19, .cls-20, .cls-21, .cls-22, .cls-23, .cls-24 {
        fill: none;
      }

      .cls-1, .cls-3, .cls-4, .cls-5, .cls-6, .cls-7, .cls-8, .cls-9, .cls-10, .cls-11, .cls-12, .cls-13, .cls-14, .cls-15, .cls-16, .cls-17, .cls-18, .cls-19, .cls-20, .cls-21, .cls-22, .cls-23, .cls-24 {
        stroke-miterlimit: 10;
      }

      .cls-1, .cls-3, .cls-4, .cls-5, .cls-6, .cls-7, .cls-9, .cls-11, .cls-12, .cls-14, .cls-15, .cls-16, .cls-17, .cls-18, .cls-19, .cls-20, .cls-21, .cls-23, .cls-24 {
        stroke-width: .71px;
      }

      .cls-1, .cls-5, .cls-9, .cls-12, .cls-15, .cls-18, .cls-21, .cls-23 {
        stroke: #ff0;
      }

      .cls-2 {
        stroke-linecap: round;
        stroke-linejoin: round;
      }

      .cls-2, .cls-8 {
        stroke: #f0c;
        stroke-width: .99px;
      }

      .cls-3 {
        stroke-dasharray: 0 0 0 0 0 0 5 5 0 0 0 0;
      }

      .cls-3, .cls-4, .cls-6, .cls-7, .cls-11, .cls-14, .cls-16, .cls-17, .cls-19, .cls-20, .cls-24 {
        stroke: #fff310;
      }

      .cls-4, .cls-12 {
        stroke-dasharray: 0 0 0 0 0 0 4.25 4.25 0 0 0 0;
      }

      .cls-5 {
        stroke-dasharray: 0 0 4.25 4.25;
      }

      .cls-6 {
        stroke-dasharray: 0 0 2.87 2.87;
      }

      .cls-9 {
        stroke-dasharray: 0 0 0 0 0 0 4.19 4.18 0 0 0 0;
      }

      .cls-10 {
        stroke: #0843ff;
        stroke-width: 1.42px;
      }

      .cls-11, .cls-21 {
        stroke-dasharray: 0 5;
      }

      .cls-13 {
        stroke: red;
        stroke-width: 2.13px;
      }

      .cls-14 {
        stroke-dasharray: 0 0 0 0 0 0 4.98 4.97 0 0 0 0;
      }

      .cls-15, .cls-24 {
        stroke-dasharray: 0 2.83;
      }

      .cls-16 {
        stroke-dasharray: 0 5;
      }

      .cls-17 {
        stroke-dasharray: 0 0 2.83 2.83;
      }

      .cls-19 {
        stroke-dasharray: 0 0 0 0 0 0 4.22 4.21 0 0 0 0;
      }

      .cls-20 {
        stroke-dasharray: 0 4.25;
      }

      .cls-22 {
        stroke: #000;
        stroke-width: .5px;
      }

      .cls-23 {
        stroke-dasharray: 0 0 0 0 0 0 4.97 4.96 0 0 0 0;
      }
    </style>
  </defs>
  <g id="Rank_3">
    <path class="cls-7" d="m145.73,207.09s-12.5,3.58-13,3.75-14.5,2.83-15.67,3.17c-1.17.33-12.67,1.83-12.67,1.83l-16.5,3-8.33.67-6.33.08-8.5-.25h-11l-5.5.25-20-.5-26-1.5"/>
    <polyline class="cls-7" points="89.98 190.34 94.48 191.72 103.56 192.01 111.48 192.22 119.35 194.84 134.73 203.01 144.56 206.51 155.23 209.18 168.4 210.68 184.9 211.34 195.9 210.51 215.56 206.84 229.1 203.47"/>
    <polyline class="cls-7" points="279.23 209.84 271.23 209.01 261.06 207.01 249.4 206.01 237.4 204.84 224.06 202.18 207.48 199.34 196.23 196.18 188.73 193.84 178.23 191.59 167.35 191.09 156.48 189.72 152.48 189.34 147.73 188.59 143.98 188.47 140.48 187.84 136.73 187.22 135.23 186.97"/>
    <polyline class="cls-7" points="256.73 221.18 263.56 216.84 272.9 213.18 283.23 207.84 289.9 205.01 303.06 203.01 312.06 200.51 322.9 196.51 330.9 194.18 341.56 192.34 352.9 191.01 362.73 192.01 373.85 191.97 380.1 191.97 385.98 189.72 390.35 186.84 396.1 184.59 399.23 183.22 403.73 180.47 405.73 178.84"/>
    <polyline class="cls-7" points="209.73 192.22 217.85 194.34 230.73 198.51 241.56 201.18 254.23 202.68 263.56 205.34 268.98 208.59"/>
    <polyline class="cls-7" points="711.1 208.09 717.06 208.18 727.56 207.01 738.56 206.51 750.23 206.18 764.9 205.43 774.48 204.59 778.98 204.34 785.15 204.09 795.73 202.97 803.73 201.59 809.57 199.67 814.24 197.67"/>
    <polyline class="cls-7" points="652.98 196.47 660.6 198.34 667.73 200.09 674.6 201.72 683.73 203.47 699.48 205.59 707.15 207.51 714.65 208.76 724.98 210.09 736.1 210.84 746.73 211.47 755.85 212.47 765.48 213.22 775.85 213.97 784.85 214.09 794.73 214.09 805.6 214.34 817.48 215.22 829.6 216.09 843.6 217.22 856.1 217.47 864.85 216.47 877.85 213.22"/>
    <path class="cls-7" d="m1144.99,231.68l6.83-1.17,6.33-1.33,7.9-.58,9.33-.92,9.92-.42,11.25.33s8.83-.17,9.08-.17,9.92-.08,10.33-.08,10.25-.42,10.25-.42l11-.08,7.92.58,6.83-1.42,12,.21,10.5-.88h26.91s6.17-.67,6.17-.67"/>
    <path class="cls-7" d="m1496.85,228.34l-6-.75-6.38-.25s-15.62-.25-16-.25-11.5-1-11.5-1l-11.88-.38h-10.12l-12.75-.62-9.88-.25-12.12.12-10.5.25-7.5.25-12.62-.62-17.88,1.62-7.19-.12s-9.48.69-9.48.5-12.58-.75-12.58-.75l-5.92-.25-7.67-1-6.5-1.67-6.83-2-7.33-1.67-6.33-1.83-8.17-2.17-10.88-2.84"/>
    <path class="cls-7" d="m1104.9,232.18s-8.5-2-9-2-4.67-.5-4.67-.5l-13.5-1.17-6.58-.17-10.83-1-7.71-.75-6.88-.5-7-.75-15.25-2.25-10.5-1.5-9-2-9.25-1.25-7.75-1.25-7.5-1.25"/>
    <polyline class="cls-7" points="806.85 200.59 811.35 202.47 816.73 203.97 825.35 206.34 837.85 208.72 850.98 210.72 862.98 212.09 875.73 212.97 889.6 213.34 901.98 215.09 919.98 217.09 931.98 217.59 947.35 218.09 964.35 219.72 976.23 220.97 989.48 223.22 998.73 224.22 1012.23 225.09 1021.98 224.72 1035.48 225.09"/>
    <polyline class="cls-18" points="319.56 56.84 314.73 57.84 311.1 58.84 308.48 59.68 298.06 62.84 291.23 63.26 281.4 62.76 272.15 63.18 263.48 63.3 252.23 63.68 233.6 64.68 221.73 65.43 211.35 65.55 196.23 65.05 182.23 65.18 175.48 65.93 166.48 66.18 159.6 66.43 150.23 65.8 141.35 64.3 132.48 62.18 123.35 60.18 116.98 59.05 109.48 56.8 103.73 55.05 98.73 52.43 94.35 51.3 88.48 50.68 79.6 49.8 72.98 48.84 65.23 47.84 58.15 47.09 48.9 46.09 38.48 45.84 30.23 46.09 21.98 46.34 13.23 45.84"/>
    <polyline class="cls-7" points="71.73 41.09 79.23 43.3 83.23 44.3 91.1 46.05 100.85 47.3 108.6 48.18 116.73 48.68 126.98 48.8 133.98 48.93 139.85 48.3 146.35 47.43 153.98 46.59 157.85 47.18 170.35 48.8 179.98 50.05 189.98 51.3 200.85 52.3 211.23 52.68 224.1 53.09 233.23 53.22 241.98 53.22 245.23 53.01 248.4 53.18 250.81 53.18 255.98 52.93 260.56 52.76 265.23 52.43 269.65 51.68 272.48 51.51 274.4 51.34 277.98 51.59 282.1 52.34"/>
    <path class="cls-18" d="m2.73,47.34l6-.5,6.75-1.75,7.92-2.42,9.33-4.33,4.67-1.67,7.33-3,6.33-.67,7-.33,5.67.67,8.75.5,7,1.21,4.38.25,7,.87,9.38,1.25,8.5.37,11.62-.12,8.29.5,9.58,1.17,9.42.67,6.25.33,8.42.42,5.25,1.17,5.75,2.25,3.83.83,4.83-.04,5.38-.75,3.62-.71,10.08-2,3.79-.67,3.12-.38,1.75-.12,3.5.5,3.38.12,3.12.62,5.88.5,4.25-.25,4.75-.5,5-1.12,3.38-.75,5.38-1,5.38-1.04,6.62-.87,6.25-.25,15.5-1.5,8.88-.25,8.25-.58,8.83.29,9.5.25,12.92,1.17s10.79.12,12.42-.25,12.71.12,12.71.12l7.79-.29,8.67-.17,4.5.08,10.67,1.25,11.08,1.5,10.25-.08,6.75.75,6.5-.17,9.04.75,13.5.75,10.38.5,11.25,1.37,6.75.46,10.38-.29,13.5.5,20.88,1,18.25.38,8.12.25h6.38l5.88.62,10,.62,6.75.25,11,1.62,9.88,1.5,16.62,2.75,13.38,2.38,7.79,1.79,12.75,3.25,15.88,2.87,6.75,1.37,14.96.21,7,.12,8.62.38,7.38,1.09,9.39,1.38,9.02,1.33,12.5,1.5,7.21-.04,10.46-.58,5.25-.75,6.88-.87,6.62.12,8.12-.62,11-1.5,11.12-3.5,7.5-3.87,3.5-1.25,5.88-.25,9.88,1.25,9-.37,6.75.5h7.88l4.5-1.37,8.25-1.37,11.62-2.12,14.5-2.37,12.25-3.5,7.38-3.62,3.88-3.25"/>
    <polyline class="cls-7" points="432.98 .97 428.35 1.59 421.98 1.72 415.73 2.22 408.98 2.09 402.35 2.22 396.85 2.34 391.85 1.97 384.48 1.97 378.1 1.84 372.73 2.22 366.73 2.34 360.1 2.09 353.1 2.09 347.98 2.09 343.85 2.09 339.1 2.09 332.35 1.72 326.23 1.72 318.1 1.84 312.1 2.22 307.23 2.59 302.73 2.22 295.6 2.72 282.23 2.84 275.48 2.97 268.98 2.72 264.35 2.84 263.48 2.87 256.98 3.09 249.73 3.59 240.23 3.97 235.23 4.22 228.48 5.09 214.98 3.97"/>
    <polyline class="cls-7" points="683.48 22.76 680.06 23.34 675.31 24.01 669.06 24.51 663.48 24.59 656.81 24.76 649.31 24.76 644.4 25.18 639.23 26.18 632.73 27.09 629.1 26.97 623.98 26.72 620.35 26.59 612.35 26.59 606.6 26.84 598.17 27.78 593.85 28.47 588.42 29.28 581.73 29.53 575.42 29.59 570.79 29.72 563.92 29.47 556.31 29.26 552.48 29.26 547.31 28.76 539.48 28.34 533.56 28.01 527.23 27.76 520.15 27.51 514.81 27.93 506.73 27.93 498.9 27.59 493.56 27.26 488.23 27.34 481.73 27.76 475.65 27.84 466.56 28.18 460.56 27.93 451.4 27.76 445.31 27.84 431.9 27.51 423.31 27.34 416.9 27.43 408.98 27.51"/>
    <polyline class="cls-7" points="362.85 60.34 358.98 61.09 355.73 61.09 353.1 60.84 348.23 61.09 342.85 61.09 336.81 60.84 332.06 61.43 327.98 62.34 322.48 64.09 316.9 66.68 311.06 69.43 303.9 71.43 295.73 72.34 285.6 72.59 278.98 73.09 272.6 72.97 264.73 72.84 257.48 72.34 250.98 71.34 243.56 70.18 237.15 68.09"/>
    <polyline class="cls-7" points="160.85 86.34 173.98 86.22 192.73 85.47 203.73 84.59 213.73 84.34 226.1 83.34 235.35 82.72 245.73 82.97 254.85 83.22 262.85 82.22 268.23 81.09 274.98 80.09 279.6 80.47 289.35 80.84 297.35 81.09 304.85 81.22 310.73 81.09 313.98 81.59"/>
    <polyline class="cls-7" points="670.1 65.97 660.1 67.97 654.35 69.22 650.23 70.34 644.23 70.59 638.1 70.47 625.98 70.97 617.35 71.09 611.23 71.47 601.85 72.47 592.1 73.97 585.1 74.34 578.35 75.09 572.32 75.57 571.98 75.59 565.6 76.47 561.35 76.97 551.85 77.97 544.6 77.97 535.35 78.22 524.1 79.22 514.23 79.84 500.98 80.59 490.48 81.22 480.6 81.22 471.6 81.59 466.35 81.72 457.35 82.47 448.48 83.47 437.48 84.09 429.98 84.59 418.48 84.09 412.23 83.84 404.35 83.09 397.35 82.59 391.48 82.59 386.23 82.84 375.73 83.59 360.65 84.43 356.9 84.84 351.65 84.93 345.48 84.84 339.98 85.09 334.48 84.59 329.23 84.68 321.65 83.51 315.6 81.97 310.85 80.09 307.98 78.76 300.98 76.97 293.23 74.97 285.6 72.59"/>
    <polyline class="cls-7" points="582.19 47.02 570.23 48.43 562.35 50.34 554.23 53.59 544.73 55.09 532.6 53.72 528.48 54.34 523.35 55.59 516.98 56.72 506.73 58.47 498.48 59.22 487.48 59.72 477.35 60.59 471.85 60.84"/>
    <path class="cls-18" d="m1234.15,190.59l10.08.25,11.42.67,10.75.33,11.67.5,13.5.83,11.17-.83,6.67-.33,5.25-.25,8.67.17,10.25-.17,10.67-.25,9.17-.08,12.17,1.75,6.42.17,7.5-.5h10l9.75.75,5.67.42,11.25-.13,11.67.33,8.92,1.96,6.83.33s8.58.33,9.33.33,15.5-.96,15.5-.96l14-.25h13.5l17,.25h17l13.92-.83,9,1.67,13.67.67h38l10.67.33s11.67.67,12.67.67,11.67.33,11.67.33l12-.33h12l11.67-1,11.67-1,17.67.33,14-1.33,20-.33,21.67.67,17.67-.33,12,.67,14.33-1,10.67-3.67,7.33-4,6.67-3,8.67-2"/>
    <polyline class="cls-7" points="1288.85 178.09 1282.85 178.97 1275.73 179.09 1265.6 179.09 1257.23 178.84 1244.85 179.22 1235.6 178.47 1228.23 177.72 1219.85 176.84 1211.98 175.97 1206.35 175.84 1196.6 174.22 1187.98 172.59 1179.23 171.34 1168.1 171.22 1164.73 171.97 1156.35 173.84 1150.85 175.47 1142.98 177.34 1134.23 178.59 1127.48 178.59 1122.6 178.34 1117.98 177.59 1104.1 175.97 1094.85 175.84 1085.6 175.09"/>
    <polyline class="cls-7" points="357.6 204.59 362.6 201.84 368.23 199.34 376.85 194.47 380.1 192.34"/>
    <polyline class="cls-18" points="876.02 81.01 863.15 79.01 850.4 76.89 833.65 75.39 821.15 74.89 806.9 73.51 794.02 73.14 776.17 71.59 761.98 69.47 757.6 68.09"/>
    <polyline class="cls-18" points="1016.9 251.51 1005.73 256.18 992.73 258.84 979.9 261.18 965.9 262.34 957.65 264.01 944.98 266.51 933.9 267.34 921.23 266.26 905.81 266.09 892.15 265.18 880.98 264.68 872.15 263.01 857.48 259.18 842.4 257.59 832.81 256.18 820.23 254.68 812.31 253.01 804.73 250.68 793.81 247.59 784.9 243.84 773.15 239.01"/>
    <polyline class="cls-18" points="893.98 81.09 898.35 80.72 905.48 79.72 917.23 78.22 926.1 76.09 932.1 74.72 938.73 73.47 946.1 72.09 953.48 70.22 960.85 68.84 969.35 66.34 976.35 64.22 985.6 61.97 994.48 59.09 1003.6 56.59 1011.85 53.47 1019.98 49.97 1026.48 46.09"/>
    <path class="cls-18" d="m947.23,266.34l-6.5,3-7.5,3-11.17,2.33-11.33,2.17-11.67,1.67-9.17,1.5-10.5,2-6.67,1.83-8.5,2.17-9,2.83-10.5,3.17-9.17,1.5-6.67,1.67-6.58,1.38-10.58-.83-12.5-.58-15.08-2.42-7.33-.58-8.83.25-7.33.08s-7.83-1.17-8.17-1c-.33.17-17-.58-17-.58l-15.42-.08-12.5.42-9.75.83-12.92,1.58s-6.67.58-7,.58-12.5-.67-12.5-.67l-8-1.75-11.42-.42-7,.92-11.75,2.17-8.17,2.25-9.33,3.17-7.92,1.58-8.83,1.5"/>
    <path class="cls-7" d="m1231.23,203.34l3.17.5,10,1.83s3.83-.17,4.33,0c.5.17,7.83.67,7.83.67l6.83-.17,6.17-.17,7.33-.33h5.67l7.17.5h15l11.33.83,6.83-.5,9.33-.17h9.33l11.67.5,12.5-1.75,9.75-1.25,6.75-.5,9-.75h12.25l13.58-2.08,10.67-1.67,11.16-2.33"/>
    <g>
      <line class="cls-7" x1="3458.73" y1="312.68" x2="3457.41" y2="312.17"/>
      <polyline class="cls-17" points="3454.68 311.43 3453.9 311.26 3450.98 310.59 3448.65 310.68 3443.65 309.18 3440.06 308.43 3434.65 308.09 3428.09 308.76 3423.48 308.43 3419.73 309.01 3415.73 308.84 3411.27 308.39 3406.92 307.6 3403.85 306.84 3399.84 306.31 3394.84 306.31 3388.48 306.97 3381.35 306.97 3376.48 306.22 3370.98 303.34 3364.85 300.72 3359.73 300.47 3355.35 300.84 3345.85 301.09 3340.56 302.01 3329.56 305.01 3313.23 310.68 3305.4 312.01 3289.9 310.18 3278.23 311.68 3268.23 311.01 3254.73 311.51 3248.9 311.51 3238.4 312.68 3232.73 312.68 3224.23 312.84 3217.06 313.34 3209.4 314.01 3201.9 315.34 3194.73 316.51 3189.9 317.18 3182.73 318.34 3177.06 319.18 3169.73 318.34 3163.23 318.34 3158.4 318.51 3152.06 319.34 3146.23 319.84 3140.73 320.51 3129.73 321.84 3122.73 323.18 3114.56 325.34 3109.23 327.01 3105.21 327.5"/>
      <line class="cls-7" x1="3103.8" y1="327.67" x2="3102.4" y2="327.84"/>
    </g>
    <polyline class="cls-7" points="2880.37 290.17 2885.7 289.51 2890.04 289.01 2895.37 288.67 2900.2 289.17 2909.7 290.01 2917.55 291.34 2928.56 292.93 2937.9 293.68 2944.15 293.18 2947.31 291.84 2952.73 291.1 2957.73 291.53 2963.04 290.91 2969.02 291.43 2981.4 291.51 2994.06 291.6 2998.06 289.68 3002.06 288.59 3006.79 288.72 3018.04 289.09 3033.23 290.51 3046.56 290.84 3054.56 293.18 3063.23 294.18 3069.9 295.18 3076.4 295.18 3087.23 296.51 3092.73 296.01 3100.06 296.51 3107.73 299.01 3111.65 300.09"/>
    <polyline class="cls-7" points="3069.98 331.97 3065.85 329.97 3060.73 328.22 3052.56 329.01 3045.56 329.26 3034.48 328.47 3029.1 327.84 3023.23 325.97 3014.12 321.84 3007.85 319.59 3000.85 317.97 2995.23 317.22 2988.1 316.59 2982.23 316.84 2974.6 316.72 2970.1 316.09 2964.48 317.84 2959.46 320.5 2952.62 323.17 2946.46 324.67 2940.96 325.84 2934.79 326.34 2929.6 325.34 2925.23 323.97 2918.48 323.22 2909.02 322.59 2898.6 319.03 2889.04 318.16 2880.92 317.72 2870.1 316.78 2858.48 315.84 2852.98 316.41 2845.73 316.34 2833.92 315.41 2824.79 315.41 2817.54 315.66 2812.48 315.84 2801.06 318.01 2792.73 318.51 2784.06 319.18 2778.73 319.68 2773.06 321.01 2763.9 321.68 2753.56 321.51 2747.56 321.09 2742.81 320.26 2736.48 319.34 2727.9 318.34 2719.23 317.18 2705.98 315.68 2699.65 316.09 2691.15 315.09 2685.23 313.26 2678.65 311.27 2673.31 311.01 2668.31 311.76 2656.35 312.17 2642.01 313.01 2635.18 311.84 2626.85 309.84 2615.35 309.17 2602.36 309.17 2593.53 309.51 2581.69 308.34 2574.19 308.17 2566.69 307.34 2557.86 307.67 2549.19 307.84 2542.53 309.17 2531.51 307.84 2526.35 304.01 2519.9 301.34 2512.9 300.18 2505.4 300.01 2497.23 298.84 2490.4 299.68 2483.23 300.18 2474.23 301.34 2467.56 301.01 2460.56 300.84 2449.56 300.01 2442.73 300.01 2433.9 299.18 2425.23 298.76 2416.85 299.84 2410.73 300.97 2407.35 301.84 2403.85 303.72 2400.35 306.47 2396.85 307.97 2389.98 309.97"/>
    <polyline class="cls-7" points="1580.9 286.68 1591.56 286.18 1600.9 284.84 1611.56 284.68 1619.06 284.18 1628.73 282.68 1634.23 282.01 1641.23 281.18 1648.56 280.34 1658.06 279.51 1667.56 280.01 1675.73 279.34 1683.23 278.51 1690.9 278.01 1700.56 278.18 1711.9 277.84 1721.23 278.34 1728.56 277.84 1737.56 277.01 1748.56 277.18 1756.73 277.01 1764.06 276.18 1774.56 274.34 1785.4 272.68 1795.23 271.51 1802.4 270.01 1810.9 269.01 1817.23 267.68 1829.73 265.51 1837.9 263.68 1846.56 262.34 1853.23 261.51 1862.9 259.84 1875.9 258.34 1884.4 258.34 1895.06 257.34 1909.06 256.68 1924.23 255.51 1933.9 254.51 1941.73 254.01 1952.56 254.01 1963.56 253.51 1974.56 254.51 1984.06 255.01 1992.23 255.51 1999.56 256.84 2007.06 257.01 2011.9 258.01 2025.56 257.68 2037.73 258.01 2044.06 258.34 2055.23 258.84 2063.06 258.68 2070.73 259.18 2078.9 259.18 2088.4 259.51 2097.9 259.84 2105.23 259.84 2117.06 260.18 2124.73 259.84 2135.73 259.84 2143.06 260.68 2152.73 261.34 2161.56 260.84 2169.9 260.68 2177.73 260.51 2191.06 260.34 2202.06 260.01 2214.56 260.68 2222.23 259.51 2228.19 258.17"/>
    <polyline class="cls-7" points="813.73 253.34 804.73 256.84 801.85 257.72 793.48 259.72 785.48 261.72 776.48 263.22 765.73 264.72 756.48 266.97 749.6 268.09 738.35 271.09 730.23 271.72 721.23 273.84 712.6 275.84 702.23 278.84 695.15 279.59 690.15 280.26 682.48 282.09 675.73 283.59 668.23 285.18 660.73 287.84 654.48 288.72 643.73 291.34"/>
    <polyline class="cls-7" points="251.31 63.93 246.15 66.01 240.15 67.43 235.31 68.51 227.73 70.26 216.98 72.09 204.1 72.47 194.35 74.34 185.73 77.59 177.35 81.09 167.6 84.22 159.9 86.18"/>
    <polyline class="cls-24" points="1231.85 190.84 1227.23 190.84 1216.48 190.47 1207.48 189.84 1196.98 190.22 1185.73 190.59 1171.1 190.97 1163.1 191.84 1155.98 192.34 1146.1 191.84 1134.85 190.59 1126.1 189.72 1118.35 189.09 1104.48 187.09 1093.6 186.84 1077.98 184.59 1060.23 182.01 1048.23 180.34 1037.31 180.34 1031.06 180.09 1021.56 181.34 1017.06 182.18 1010.98 182.59 998.98 182.84 988.23 183.59 978.73 183.84 967.48 184.59 959.23 184.59 948.48 185.09 937.98 186.09 927.23 187.34 910.48 189.09 901.48 188.84 890.48 190.09 876.73 191.59"/>
    <polyline class="cls-7" points="391.56 186.51 399.23 188.34 406.48 189.59 415.48 190.09 425.48 189.09 434.98 188.34 446.98 187.59 461.98 186.09 471.23 186.09 481.98 185.59 498.23 184.09 514.73 182.84 527.48 182.84 545.73 182.84 554.35 183.34 567.48 183.47 581.73 183.84 591.73 183.84 604.85 183.84 615.73 185.59 628.35 187.59 640.23 189.97 652.35 192.34 659.85 193.59 671.23 195.09"/>
    <polyline class="cls-11" points="1083.98 174.97 1079.35 174.34 1070.98 173.97 1059.48 173.84 1047.48 174.09 1033.73 173.34 1021.98 172.34 1011.98 171.84 998.73 170.34 989.23 169.59 974.23 168.84 961.23 167.59 948.23 166.84 937.48 166.34 922.98 167.34 910.48 167.34 899.73 167.59 887.48 167.09 875.98 166.59 865.31 165.84 850.98 165.68 842.06 165.35 828.06 166.34 813.73 167.01 800.9 167.34 788.23 167.34 773.9 167.84 764.06 168.51 753.9 168.68 741.4 169.34 727.73 170.18 713.73 170.84 697.56 171.51 683.4 171.68 668.06 170.84 658.4 170.84 646.9 171.01 637.56 171.01 624.4 171.01 614.73 171.51 605.4 172.34 597.06 172.34 586.73 172.09 573.98 172.59 563.48 172.59 548.23 173.09 538.98 173.59 527.23 173.59 517.48 173.34 509.23 173.34 505.73 173.09"/>
    <polyline class="cls-7" points="244.23 53.22 230.35 56.28 221.65 57.26 214.56 57.68 207.48 58.09 198.31 58.43 190.9 59.01 183.4 59.51 176.4 60.01 168.98 59.93 162.81 59.51 157.9 59.09 149.56 58.51 142.4 57.93 133.85 57.09 129.29 56.53 120.67 54.84 115.92 53.47 111.48 52.41 108.17 51.22 102.98 50.66 97.42 49.78 90.79 49.22 85.85 47.84 81.85 46.59 79.54 45.72 68.4 41.84"/>
    <polyline class="cls-7" points="1519.73 166.84 1510.6 166.34 1503.1 166.34 1494.6 166.22 1485.48 166.59 1476.85 166.59 1465.48 166.34 1456.1 165.97 1448.35 166.09 1440.23 165.72 1433.1 164.72 1425.35 164.47 1416.23 163.84 1407.85 163.09 1396.6 162.22 1389.98 161.84 1382.98 161.09 1373.85 160.59 1364.98 160.22 1354.6 160.47 1346.98 160.59 1335.35 160.34 1324.85 159.97 1317.1 160.09 1309.1 159.97 1303.48 159.84 1296.06 159.84 1287.56 159.34"/>
    <polyline class="cls-24" points="962.48 111.34 973.1 111.97 981.48 112.72 993.06 112.68 1004.73 113.34 1016.9 114.18 1029.23 116.68 1043.9 117.84 1053.56 119.34 1063.73 120.68 1073.23 121.34 1085.23 123.51 1097.23 124.34 1107.56 125.01 1118.4 125.68 1131.56 126.34 1145.56 126.68 1160.23 128.51 1172.9 129.18 1186.06 129.51 1194.34 130.34 1205.34 131.34 1214.01 131.5 1224.34 131.84 1234.18 132.84 1244.18 133.84 1255.68 135.5"/>
    <polyline class="cls-7" points="647.81 91.51 665.06 95.84 672.56 97.18 687.23 98.84 698.56 99.84 712.73 100.84 727.4 101.51 737.9 101.34 750.56 102.01 762.9 101.68 773.4 102.51 786.56 102.68 795.9 103.34 808.4 103.34 814.73 103.84 828.56 104.18 839.9 104.68 847.9 105.51 858.06 106.68 871.23 107.68 881.73 108.18 891.35 108.47 900.73 108.84 908.1 109.34 917.73 109.34 925.6 109.34 931.6 109.34 939.98 109.59 947.35 110.09 961.68 111.17"/>
    <polyline class="cls-7" points="218.1 96.09 213.35 97.47 206.98 98.72 200.1 100.72 192.6 102.97 183.85 106.34 176.48 108.34 162.98 112.34 157.35 113.84 150.1 115.34 142.23 115.01 133.81 113.76 125.23 111.09 114.73 109.34 105.48 107.72 97.85 106.22 91.81 105.59 88.23 106.59 82.23 106.97 79.35 107.97 72.48 109.59 66.23 112.09 58.48 116.09 52.73 119.84 45.48 124.34 35.73 127.68 23.73 131.72 12.06 135.68"/>
    <polyline class="cls-7" points="575.73 162.34 562.73 162.59 551.48 162.84 533.48 164.09 515.98 165.59 493.48 167.59 478.48 168.59 464.23 169.84 449.73 171.34 438.98 172.59 428.48 172.84 416.48 173.09 405.73 172.59 393.23 172.59 380.98 172.59 369.73 172.34 362.48 172.34 353.48 171.09 343.98 169.84 336.23 169.59 324.48 169.84 310.4 171.18 300.23 171.34 290.56 169.68 280.73 168.01 261.4 161.68 246.73 157.84 236.73 156.51 222.73 153.68 213.56 152.51 204.73 152.18 196.23 151.68 187.06 151.68 172.56 151.18 157.23 150.84 142.06 149.68 129.56 148.51 110.23 147.34 93.73 145.59 85.73 144.34 79.98 143.34 74.48 141.84 67.98 139.34 57.98 137.09 47.73 136.01 24.48 134.47"/>
    <polyline class="cls-24" points="492.73 98.84 482.73 100.34 468.98 102.09 454.48 103.34 438.98 104.84 428.73 105.84 406.48 106.84 384.98 107.84 367.73 107.84 351.73 108.09 339.23 107.84 320.23 106.84 298.98 103.84 284.23 101.34 273.48 99.09 265.23 97.34"/>
    <polyline class="cls-24" points="1285.98 159.34 1277.48 159.34 1263.98 158.59 1245.48 157.59 1221.73 156.34 1206.73 156.09 1195.48 155.84 1185.98 154.84 1170.98 154.09 1157.73 152.34 1142.23 151.34 1126.48 150.84 1113.98 150.34"/>
    <polyline class="cls-24" points="1521.48 166.59 1528.98 166.59 1539.98 166.84 1550.23 166.84 1560.23 167.34 1567.73 168.34 1574.73 169.59 1582.48 172.59 1588.73 174.59 1596.98 176.84 1603.98 178.09 1613.48 178.09 1619.23 178.09 1625.48 178.09 1635.98 177.34 1643.98 177.34 1653.23 177.34 1667.4 178.51"/>
    <polyline class="cls-24" points="844.56 198.09 848.91 198.84 854.41 199.51 862.91 201.01 873.24 201.84 883.91 202.51 892.91 203.17 900.56 203.34 907.56 204.18 916.4 206.34 923.57 207.51 930.74 208.84 938.07 209.67 947.73 210.59 957.48 211.84 968.98 213.34 977.98 215.34"/>
    <polyline class="cls-7" points="451.23 269.59 459.48 271.34 468.73 272.59 477.23 274.34 485.98 275.84 494.98 277.09 504.98 278.84 512.73 278.84 522.48 278.84 535.48 279.59 543.98 279.59 554.73 279.09 567.23 278.09 576.48 277.34 587.23 275.84 600.48 274.34 609.98 272.09 620.98 269.09 633.73 265.84 646.48 263.34 660.48 259.59 669.98 258.09 678.73 255.09 686.98 251.84"/>
    <polyline class="cls-7" points="366.23 283.84 375.23 282.51 384.73 280.47 394.35 279.09 404.98 277.72 414.6 276.09 424.48 274.59 435.48 272.72 445.35 270.84 455.35 268.59 467.06 266.84 477.9 265.34 487.9 263.01 494.4 262.01 500.23 260.84 511.23 258.34 517.06 256.68 526.65 254.26 533.73 252.51 542.73 249.59 548.23 247.97 557.06 245.84 564.73 243.01"/>
    <polyline class="cls-7" points="270.9 217.35 280.06 218.68 285.73 218.84 291.9 218.84 297.73 219.01 306.56 219.51 314.9 219.18 321.73 219.51 329.4 219.68 335.73 219.68 344.9 220.01 356.4 220.51 366.56 220.68 379.23 221.34 387.56 221.51 399.4 221.68 406.23 222.34 415.23 223.84 424.73 224.84 429.4 225.51 434.23 226.01 446.06 227.18"/>
    <g>
      <line class="cls-7" x1="448.23" y1="227.01" x2="450.73" y2="227.07"/>
      <line class="cls-7" x1="455.7" y1="227.18" x2="455.71" y2="227.18"/>
      <polyline class="cls-14" points="455.71 227.18 463.73 227.51 472.9 228.01 481.73 228.18 490.73 228.68 500.23 228.68 509.06 228.34 519.73 229.59 521.99 229.65 530.98 229.84 544.48 230.84 550.73 230.59 561.73 232.09 571.73 233.34 580.73 234.09 589.48 234.59 599.98 233.84 610.48 234.09 617.23 233.59 626.98 233.84 635.23 233.59 642.98 233.84 652.98 234.34 661.23 234.34 668.48 234.84 675.48 234.84 685.48 234.59 692.73 234.09 698.98 234.09 706.23 233.59 715.48 233.09 724.48 233.09 732.23 232.34 743.73 231.09 751.9 230.51 758.9 230.84 767.73 231.51 775.9 231.34 783.9 230.71"/>
      <line class="cls-7" x1="783.9" y1="230.71" x2="786.4" y2="230.51"/>
    </g>
    <polyline class="cls-7" points="787.98 230.72 793.35 230.59 799.23 230.72 806.85 230.72 814.23 230.34 824.35 229.84 833.98 229.09 844.85 228.47 852.73 227.84 859.73 227.47 868.1 226.97 874.85 226.34 880.85 225.72 886.73 225.47 894.98 225.09 902.23 225.09 910.85 225.59 919.1 226.34 928.98 227.72 938.73 228.84 944.1 229.34 953.35 229.47 961.88 229.66 970.71 230.33 981.21 231.33 987.88 232.16 1000.38 232.49 1005.04 232.49 1011.04 232.49 1017.38 232.16 1023.71 231.49 1030.71 231.32 1037.38 231.66 1045.54 231.16 1054.21 230.82 1064.04 230.66 1070.88 230.99 1077.7 231.49 1088.87 232.32"/>
    <polyline class="cls-3" points="365.06 284.01 356.4 285.84 348.06 287.34 336.06 288.68 324.56 289.18 316.56 289.34 309.06 290.18 303.23 290.18 295.9 289.84 290.73 289.84 283.4 290.18 278.23 290.18 269.73 290.51 263.23 291.01 257.4 291.01 248.56 291.34 241.06 292.34 232.73 292.34 222.56 293.18 213.56 294.51 205.06 295.68 196.56 296.51 187.9 297.68 180.23 298.18"/>
    <polyline class="cls-18" points="1085.89 68.85 1092.72 68.68 1098.22 68.85 1103.22 68.68 1106.56 68.34 1110.48 68.34 1114.15 68.01 1118.73 68.09 1123.56 68.51 1129.15 68.84 1133.48 68.93 1138.31 69.26 1143.9 69.51 1148.31 70.34 1155.73 70.84 1160.48 71.26 1163.81 71.59 1169.56 71.68 1173.4 71.26 1176.23 70.76 1180.81 69.93 1185.48 69.34 1189.73 69.26 1193.06 68.84 1198.72 69.51 1205.55 69.85 1211.22 69.85"/>
    <polyline class="cls-7" points="746.23 195.09 749.9 195.59 755.23 196.26 761.48 196.68 766.98 197.26 772.15 197.26 778.23 197.59 783.81 197.84 790.31 198.43 798.9 198.51 806.81 198.34 813.81 197.59 820.41 197.51 824.65 197.26 829.56 196.84 833.23 196.68 835.9 196.84 839.15 197.34 843.73 197.84"/>
    <polyline class="cls-18" points="139.4 39.51 149.23 37.97 154.85 37.09 159.48 36.72 166.23 36.22 171.48 35.59 177.85 35.22 183.48 34.97 189.98 34.97 196.48 34.97 201.98 34.34 209.1 33.34 215.48 31.97 222.48 30.47 226.73 28.59"/>
    <polyline class="cls-24" points="2878.04 290.17 2872.04 289.84 2866.87 289.51 2859.7 289.17 2852.2 288.17 2844.2 287.17 2837.7 286.34 2831.7 285.51 2824.04 285.17 2816.54 285.34 2808.53 285.67 2801.53 286.34 2792.36 286.51 2784.53 286.34 2775.69 286.67 2767.36 285.67 2757.53 286.17 2749.53 286.67 2743.58 288.01 2736.08 289.01 2727.91 289.84 2720.74 288.84 2710.24 288.34 2702.86 287.67 2694.36 288.17 2687.19 288.34 2680.52 289.34 2667.74 290.51"/>
    <polyline class="cls-7" points="723.05 101.34 716.39 103.34 712.05 104.17 707.05 104.67 701.39 105.67 696.72 106.51 690.22 107.17 683.39 108.51 677.72 109.01 672.89 109.51 669.22 109.84 662.89 109.84 655.05 110.17 648.58 110.5 643.39 110.34 637.56 110.01 633.06 109.84 626.56 109.01 621.89 108.34 615.06 108.34 610.22 108.34 602.72 108.01 595.56 108.17 590.22 108.01 581.72 108.34 574.39 108.17 567.56 108.17 560.06 107.84 554.39 107.51 549.06 107.17 544.56 107.34 539.39 107.34 534.56 107.01 529.06 107.01 522.78 107.17 515.06 107.51 509.39 107.34 504.23 107.17 497.23 106.84 491.89 106.51 486.89 106.34 481.45 106.33 474.39 106.34 467.89 106.17 462.23 106.17 456.45 106 451.73 104.84 447.23 104.17"/>
    <polyline class="cls-7" points="1256.37 135.34 1263.54 136.34 1273.04 138.01 1281.7 139.34 1291.7 140.01 1300.87 140.51 1308.7 141.01 1317.87 141.51 1327.87 141.84 1336.37 142.51 1346.7 143.17 1355.03 143.01 1362.45 143.67 1369.7 144.51 1376.03 144.67 1383.2 144.67 1392.03 144.17 1397.03 144.01 1404.87 144.34 1412.7 144.67"/>
    <polyline class="cls-7" points="1413.37 144.67 1420.2 145.34 1427.7 146.01 1434.53 145.84 1444.03 146.01 1452.53 146.01 1461.7 146.67 1473.53 146.51 1483.36 146.84 1494.36 147.34 1503.7 147.67 1514.7 148.84 1524.36 149.34 1534.03 150.51 1543.36 151.67 1551.34 152.34 1555.68 152.84 1560.35 153.97 1564.1 154.97 1568.7 157.17 1575.53 160.67 1581.86 165.51 1588.53 169.34 1592.86 173.01 1600.36 177.51"/>
    <polyline class="cls-7" points="1927.86 167.51 1935.69 168.01 1943.19 168.34 1954.36 168.67 1964.28 169.01 1972.69 169.34 1978.69 169.51 1987.95 169.17 1996.69 169.17 2005.02 169.51 2015.7 170.17 2023.36 170.17 2031.86 170.67 2040.36 171.17 2045.7 172.01 2053.86 173.84 2060.7 175.67 2067.03 175.51 2073.2 175.51 2077.7 175.17 2083.2 175.17 2087.2 175.17 2093.53 175.01 2101.35 175.09 2107.85 175.09 2113.98 174.47 2122.1 174.47 2128.73 174.34 2137.6 174.72 2141.73 175.47 2147.35 176.22 2153.6 177.22 2160.98 177.47 2167.48 178.09 2174.6 178.59 2181.1 178.84 2188.48 179.59 2194.48 179.72 2201.35 180.22 2205.31 180.18 2210.31 180.43 2214.4 180.43 2218.48 180.09 2223.23 180.01 2228.31 180.26 2231.73 180.26 2235.98 180.97 2240.31 180.68 2244.9 180.68 2249.81 180.59 2254.15 180.59 2261.48 180.09 2270.48 179.93 2275.23 180.43 2282.23 179.93 2287.4 179.51 2290.98 179.84 2295.48 179.51 2301.48 179.26"/>
    <polyline class="cls-7" points="888.51 107.51 896.85 106.34 903.51 105.34 912.68 104.67 921.18 103.84 929.01 103.17 936.51 102.51 944.01 101.51 951.85 100.01 962.35 98.01 973.18 96.34 983.68 96.01 995.35 95.17 1003.01 94.17 1011.35 92.67 1018.85 90.01 1026.85 85.67"/>
    <polyline class="cls-15" points="1869.73 208.18 1874.12 207.5 1879.79 208 1886.62 208 1892.96 207.5 1897.46 207.34 1903.12 207.34 1913.29 207.84 1920.46 208.5 1929.62 209.34 1938.95 210 1947.12 210.34 1955.45 210.67 1961.62 210.5 1970.45 209.17 1976.45 208.67 1985.62 208.17 1993.45 207.5 2004.95 206 2014.62 204.67 2025.29 202.5"/>
    <polyline class="cls-18" points="1585.76 221.85 1596.76 223.68 1603.76 223.68 1611.63 223.84 1615.8 223.84 1623.13 223.17 1629.8 222.84 1636.8 222.84 1645.13 223.17 1652.46 222.84 1661.46 221.84 1666.96 221.51 1673.96 221.01 1680.8 221.17 1688.96 221.51 1695.09 222.01 1701.75 222.51 1709.75 222.51 1717.25 223.18 1724.59 223.68 1733.75 223.68 1743.59 224.18 1751.25 224.35 1759.59 224.85 1767.09 225.18 1778.46 225.17 1788.79 225.34 1796.79 225.17 1804.12 225.17 1811.29 224.17 1818.46 224.17 1824.96 223.51 1831.29 220.51 1837.29 217.01 1846.96 214.17 1852.79 212.17 1858.9 210.68 1865.23 209.01 1869.9 208.18"/>
    <polyline class="cls-20" points="2513.9 299.18 2518.9 298.68 2523.24 298.34 2527.57 298.34 2533.07 297.68 2539.24 297.51 2544.24 297.51 2551.4 297.51 2556.24 297.18 2560.57 296.84 2567.24 295.84 2572.07 295.84 2577.57 296.01 2586.24 296.18 2591.4 295.68 2596.07 295.68 2602.74 295.18 2607.24 295.68 2616.24 294.51 2623.91 294.01 2629.74 293.34 2637.24 292.34 2644.74 291.18 2651.58 291.18 2659.91 290.51 2666.91 290.51"/>
    <polyline class="cls-24" points="2480.87 300.01 2473.87 298.51 2467.54 296.51 2460.04 294.67 2452.9 291.34 2441.73 289.34 2435.06 288.51 2429.4 287.34 2423.73 285.68 2416.23 282.34 2409.56 279.18 2402.23 277.84 2393.4 277.51 2385.56 278.01 2375.56 280.18 2368.73 280.84 2356.87 280.01 2347.87 278.84 2338.04 277.34 2328.37 276.17 2321.04 275.01 2312.37 273.84 2301.7 272.17 2292.7 270.17 2283.2 268.17 2273.87 266.17 2264.87 264.84 2257.03 263.51 2249.53 262.51 2242.69 261.01 2235.69 259.67 2228.19 258.17 2220.69 257.01 2214.36 256.17 2207.19 255.34 2193.86 254.17 2184.86 253.84 2179.19 253.84 2173.36 254.17 2162.69 253.84 2153.86 253.34 2148.86 252.67 2141.86 251.67 2133.9 248.93 2127.6 246.09 2122.4 245.51 2116.73 245.22 2113.65 245.09 2110.4 245.09 2106.23 244.43 2100.98 244.01 2097.4 242.93 2094.1 241.59"/>
    <polyline class="cls-5" points="965.39 68.51 970.73 69.18 976.06 69.51 982.02 70.55 988.56 71.01 996.06 70.85 1005.06 71.01 1013.39 71.01 1020.89 70.51 1027.56 70.68 1035.39 70.35 1043.73 70.51 1049.89 70.51 1058.56 70.51 1066.39 69.85 1072.89 69.51 1078.89 69.01 1085.23 68.85"/>
    <g>
      <line class="cls-18" x1="1771.9" y1="274.68" x2="1773.85" y2="275.52"/>
      <line class="cls-18" x1="1777.69" y1="277.16" x2="1777.7" y2="277.17"/>
      <polyline class="cls-9" points="1777.7 277.17 1778.9 277.68 1785.56 279.51 1793.56 281.84 1799.73 283.34 1806.56 285.51 1814.4 286.84 1820.06 287.84 1825.23 289.18 1834.38 292.04"/>
      <line class="cls-18" x1="1834.38" y1="292.04" x2="1836.41" y2="292.68"/>
    </g>
    <polyline class="cls-7" points="1351.06 206.85 1340.06 209.85 1332.06 211.35 1322.89 212.35 1310.06 213.68 1304.39 213.68 1295.23 213.85 1285.73 213.85 1277.73 213.35 1268.06 212.68 1263.06 212.51 1255.56 213.18 1247.06 213.85 1239.06 214.18 1231.56 214.18 1224.23 213.85 1216.89 212.68 1209.39 212.51 1202.39 213.01 1194.06 213.35 1185.06 213.68 1175.9 213.85 1167.56 214.01 1161.56 214.68 1155.56 215.85 1147.23 216.72"/>
    <polyline class="cls-24" points="1147.23 216.72 1138.98 216.22 1130.06 214.85 1122.73 213.84 1115.85 212.97 1109.85 212.09 1103.56 211.51 1095.73 211.35 1089.06 211.01 1079.56 211.01 1073.98 211.59 1067.73 211.47 1062.23 211.47 1056.23 211.72 1050.6 211.59 1043.35 211.72 1038.1 211.84 1031.73 211.22 1025.98 210.59 1022.23 210.59 1017.85 210.22 1012.48 209.84 1007.23 209.84 1003.73 209.34 1000.6 209.47 995.35 209.47 989.35 209.22 984.1 209.22 979.1 209.72 974.23 209.84 968.85 209.84 960.48 210.34 950.98 210.84"/>
    <g>
      <line class="cls-7" x1="992.05" y1="235.18" x2="994.11" y2="235.73"/>
      <line class="cls-7" x1="998.17" y1="236.82" x2="998.18" y2="236.83"/>
      <polyline class="cls-19" points="998.18 236.83 998.89 237.01 1006.05 238.51 1014.89 240.18 1023.39 241.85 1033.89 243.68 1039.55 244.18 1044.89 244.85 1053.39 246.18 1059.22 246.68 1066.22 247.51 1072.89 248.51 1078.89 248.85 1084.55 249.35 1094.05 250.68 1100.05 251.01 1106.05 251.35 1113.38 251.18 1121.71 251.35 1127.55 251.35 1134.38 251.51 1141.05 251.85 1148.55 252.35 1154.05 252.18 1161.04 251.85 1168.71 251.51 1176.54 251.18 1183.88 250.85 1188.88 250.35 1195.21 250.18 1202.54 250.18 1209.38 249.68 1215.38 249.35 1221.71 249.01 1228.88 249.18 1235.71 249.35 1244.54 249.35 1251.54 249.68 1260.89 250.51 1268.39 250.85 1275.89 250.85 1282.39 251.18 1290.39 251.35 1297.89 251.35 1306.05 251.68 1312.72 252.35 1321.22 253.51 1330.05 254.51 1336.71 254.68 1342.55 255.18 1347.71 254.85 1354.88 254.68 1362.38 255.35 1369.21 255.85 1377.54 256.85 1384.04 257.51 1392.04 258.51 1401.04 260.01 1407.04 261.18 1415.38 262.68 1421.71 263.51 1428.71 264.35 1434.82 265.71"/>
      <line class="cls-7" x1="1434.82" y1="265.71" x2="1436.9" y2="266.18"/>
    </g>
    <path class="cls-24" d="m2299.9,233l6.83,1.17,6.67,1.67,6.5.83h6.33l6.33.83,6.33,1,6.33,1.17,7.17,1.33,6.17,1.17,7.5,2,6.5.67,7.67,1,6,1.33,6.17.33,8.17.5,5.5.17,6.17-.33,6-.33,7.67-.83,6.17.17,6.33-.5,6.83.5,5.67-.33,7,1.5,7.17.67,9.17.83h6.83l10.67.33,6.83.67,7,.17,7.5.17,7.5.17,6,.17h7.67l6.67-.17h8l6.17.17,6.83-.33,6.83.17,7.5-1,7.33.5,7.67-.83,4.86.43h5.12l5.25.25,4.62-.12,4,.62,4.75.62,4.75.62,4.5.38,5.38.25,5-1.12,6-.75,6.5.25,8.25-.5h13.75l6.75-.25,4-.67h3.17l3.33.5,4.33,1.17s4.83,1.5,5.5,1.5,7.33.5,7.33.5l6.67-.33,5.17-1.17,5.62-.25,4.62-.38,5.75-1.62,3.88-.62,4.88.12,6.75.12h3.25l5.38-.38h5.25l6.25-.38,4.25-.25,5.5-.88,5.38-1.5,3.75-.5,7-1.25"/>
    <path class="cls-15" d="m1965.6,235.72l9.75-2.25,11.5-2.38h10.25l6.62-.38,9.88-.62,10.25,1.25,10.12.25,7.75-.88,8.62-1,8.88.75,8.62-.25,8.75-.75,8.88-1.25,6.88-.62,6.04-.92,3.83-.08,4.19-.75,4.19-.62h1.62l8.38-.38,9.38.38,6.12.25,10-.75,6.88-1.12,6.58-.58,8.5-.33,14.33-1h8.67l11.67-.83,10.33-.33,9.5.67,8.17.67h4.83l9.33-.33h8l18.67,1.33,12.5.33,2.92-.83,2.83-.5,3.75.5h3.83l4.42.33,4.83-.67,4.58-.83,4.08-.42,5.42.21,5.75-.25h9.25l6.12-.75,5.12-.25,4.12.5,6.12,1.75,4.75.12,6.5-.5c3.92-.25,18.58.42,23.25.42s29,.67,33.33-.33,24-2.33,30.67-2.33,29.33-1,34.33-2,25.33-1,30.33-.67"/>
    <path class="cls-7" d="m1940.73,168.34s5.62,1.62,6.5,1.62,4.5,1.25,4.5,1.25l4.62.5,5.21.46,7.5.67,6.33.83h6l6.5.5,6.83.17,8.17.5,8,.67,6.5.5,4.08-.42,5.12-.25,4,.12,5.25.62,6.75.5,6.25,1,6.88,1.5s5.62,1.5,6.25,1.88,6.25.62,6.25.62l5.12-1.5,3.5-.75,4-.62h3.12l3.38.62h5.25l5-.5,2.75-.12,3.38.5,5.62.62h4.88l4.62-.12,7.88.25h5.5l7.12,1.12,6.38.25,5,.38,4.38-.12,8.5.38,7.12-.12,6.5.25h13.75l8.12.12,7.62.29,5.42-.08,4-.08,4.83-.42h3.58l3.33-.33,3.58-.5,3.75-.33"/>
    <polyline class="cls-15" points="1926.23 167.22 1918.48 168.59 1911.98 168.22 1902.35 167.59 1891.73 168.59 1882.23 169.97 1874.1 172.34 1865.85 174.97 1860.56 175.51 1854.23 175.18 1846.9 174.68 1843.23 174.18 1838.4 175.18 1833.4 176.84 1828.56 178.34 1823.73 180.34"/>
    <polyline class="cls-24" points="2781.85 286.09 2785.85 285.09 2790.73 283.22 2795.48 280.97 2802.1 279.59 2806.48 276.97 2809.6 276.09 2814.85 274.72 2819.73 273.72 2825.48 272.72 2831.23 271.72 2838.98 271.47 2847.98 269.59 2856.1 266.72 2861.85 265.47 2868.98 263.47 2877.85 261.34 2887.48 259.59 2899.1 257.72 2909.23 256.09 2916.35 254.59 2920.73 254.09 2925.73 252.72"/>
    <polyline class="cls-16" points="111.98 147.34 105.48 149.09 97.98 149.84 91.48 151.09 70.73 152.09 55.48 152.59 1.4 153.68"/>
    <polyline class="cls-7" points="49.73 46.09 63.23 42.34 68.48 41.59 77.98 39.09 82.1 38.22 87.04 38.03 89.98 37.28 91.92 36.41"/>
    <polyline class="cls-24" points="3.48 57.59 12.98 58.09 19.73 57.84 33.73 57.84 48.23 58.34 58.23 59.09 70.33 59.09 79.98 61.59 86.48 64.34 93.6 68.72 114.23 77.34 116.98 78.84 121.06 80.76 123.81 81.68 126.15 82.51 128.98 83.18 134.56 84.34 142.56 84.84 149.23 85.18 155.4 85.68 157.9 85.84 161.73 86.51"/>
    <polyline class="cls-24" points="128.98 83.18 119.73 83.34 105.23 83.09 90.23 81.18 73.73 78.68 60.4 81.01 44.56 85.01 31.06 87.84 16.06 89.18 2.06 89.51"/>
    <polyline class="cls-24" points="2.06 13.68 12.73 12.34 23.4 10.01 33.4 7.34 45.73 4.68 64.06 .34"/>
    <polyline class="cls-7" points="1125.06 303.68 1118.9 302.68 1113.06 299.84 1106.4 296.51 1101.9 293.01 1097.56 289.34 1092.4 286.01 1085.06 282.18 1078.56 280.51 1071.06 279.34 1062.4 278.51 1055.6 278.09"/>
    <polyline class="cls-4" points="1205.06 303.34 1211.73 301.34 1220.06 299.01 1228.85 297.34 1238.48 296.59 1244.48 297.72 1255.4 296.68 1265.06 294.34 1275.06 292.34 1283.4 290.68 1291.73 287.34 1297.4 285.01 1302.06 283.68"/>
    <polyline class="cls-7" points="2777.23 332.72 2766.73 329.39 2760.06 326.89 2752.23 324.55 2746.56 322.39 2740.81 320.26"/>
    <polyline class="cls-24" points="2920.48 291.76 2916.65 292.68 2914.56 294.01 2912.31 295.85 2909.31 297.1 2904.23 298.68 2901.4 299.85 2896.35 299.59 2891.6 299.97 2887.23 299.97 2880.85 299.84 2875.6 300.59 2869.48 302.97 2864.98 304.47 2862.73 306.26 2859.4 308.18 2855.9 309.18 2850.73 311.6 2848.06 313.35 2844.4 314.51 2838.9 315.85"/>
    <polyline class="cls-7" points="2180.9 185.34 2193.15 188.26 2201.4 189.76 2208.23 190.93 2214.92 191.66 2219.6 191.97 2224.23 192.34 2229.98 192.84 2237.98 193.09 2244.73 192.97 2248.23 193.09 2257.9 193.01 2264.23 192.84 2269.9 192.51 2277.73 192.18 2283.9 191.84 2292.73 191.01 2300.73 190.34 2305.23 189.18 2311.4 188.34 2316.23 187.18 2320.23 186.18 2324.56 185.18"/>
    <polyline class="cls-7" points="2214.79 191.59 2218.6 192.84 2223.6 193.97 2227.85 194.59 2233.35 195.09 2236.85 195.59 2241.98 196.34 2247.23 196.72 2251.23 196.97 2256.98 197.59 2262.15 197.59 2267.06 197.59 2273.06 197.59 2277.06 197.34 2281.23 197.26 2284.9 197.51 2287.73 197.93 2292.4 198.59 2295.81 198.76 2299.81 198.76"/>
    <polyline class="cls-24" points="2207.6 242.97 2214.85 244.59 2219.35 245.09 2224.35 246.47 2229.1 247.47 2233.98 248.47 2239.48 249.47 2244.35 250.59 2249.6 251.59 2254.73 252.22 2258.1 253.09 2263.48 254.09 2267.98 254.97 2272.23 256.59 2276.23 258.22 2281.06 258.76 2284.94 259.89 2291.4 261.51 2298.23 262.18 2306.9 263.51 2314.4 264.18 2319.4 264.01 2323.25 264.17 2329.91 264.67 2335.41 265.17 2340.08 266.34 2345.08 266.67 2351.73 267.72 2356.73 268.09 2362.73 268.59 2367.98 268.34 2374.85 267.72 2379.41 266.84 2384.08 265.17 2389.41 264.84 2394.58 263.84 2399.91 263.84 2405.25 262.67 2411.25 262 2417.58 261.34 2423.58 260 2430.58 259.34 2436.58 258.67 2442.41 256.67 2446.91 255 2452.41 254.34 2457.25 253.17 2461.25 252.84 2466.91 252 2472.08 251.5 2477.75 250.84 2485.25 249.67"/>
    <polyline class="cls-24" points="1088.85 203.22 1098.23 201.34 1105.1 201.47 1111.56 200.51 1116.73 200.51 1122.56 201.01 1127.56 200.84 1137.23 200.01 1149.06 197.51 1154.73 197.84 1160.06 197.34 1165.1 197.09 1173.23 196.72 1179.4 195.51 1187.23 194.01 1194.23 193.18 1202.06 191.68 1207.23 191.18 1211.4 189.84"/>
    <polyline class="cls-7" points="742.6 211.22 748.48 210.84 751.9 210.84 757.48 210.84 761.4 211.01 766.73 211.01 770.73 210.68 775.9 210.01 779.48 208.97 782.6 207.72 786.73 206.59 790.48 206.09 795.73 205.09 799.6 203.72 802.6 202.34 804.73 201.34"/>
    <polyline class="cls-7" points="119.23 194.84 113.85 195.47 108.23 195.47 102.6 195.47 96.48 195.34 90.85 195.72 86.48 195.34 81.85 194.84 78.23 194.47 74.73 194.01 70.33 193.68 65.4 193.18"/>
    <polyline class="cls-18" points="156.4 66.51 152.4 66.84 146.73 67.68 141.6 67.34 134.23 67.01 128.85 66.72 122.23 66.51 115.73 65.18 109.6 62.97 103.23 61.01 97.35 59.09 91.56 57.68 84.4 56.84 77.98 55.72 72.85 55.09 68.35 53.22 63.23 51.47 59.23 48.93 54.73 46.68"/>
    <polyline class="cls-7" points="424.48 106.22 432.23 104.47 436.85 102.97 440.98 101.22 445.35 99.47 448.85 97.97 452.85 96.97"/>
    <polyline class="cls-7" points="202.79 188.47 206.79 190.91 214.79 195.09 219.1 196.84 224.73 198.84 228.79 200.22 233.85 201.97 237.98 203.47 240.85 204.34 245.1 205.59"/>
    <polyline class="cls-7" points="436.65 61.34 440.06 61.93 442.65 62.26 446.81 63.01 450.48 63.26 453.9 63.43 457.9 63.59 462.31 64.18 466.56 64.51 470.48 65.18 474.06 65.09 477.73 65.34 481.98 65.59 485.81 65.51 489.48 65.34 493.48 65.25 496.04 65.19 499.45 65.19 502.45 64.78 504.7 64.5"/>
    <polyline class="cls-7" points="457.1 59.66 460.6 58.84 464.48 57.84 466.85 56.72 469.1 55.91 471.1 55.22 473.79 54.03 476.54 52.91 479.04 51.84 481.42 50.97 484.17 50.22 486.92 49.28 490.35 48.09 493.1 47.28 495.98 46.59 499.42 45.53 502.1 45.03 505.1 44.22 508.42 43.16"/>
    <polyline class="cls-7" points="341.98 51.84 345.81 52.68 349.15 53.43 352.06 54.09 355.23 54.68 359.48 55.76 363.06 56.26 367.65 56.68 372.06 57.01 376.56 57.01 381.15 57.26 386.31 57.68 391.98 58.26 396.15 58.84 399.98 59.93 402.44 60.47 406.31 60.59 409.73 61.05 414.77 61.84 420.4 61.93 427.23 62.18 443.48 60.68 455.06 59.76 466.73 59.76 474.23 61.84 487.6 62.34 498.85 62.68 505.94 64.76 516.02 65.68 540.15 64.34 548.4 63.68 562.23 64.22 570.23 64.09 577.1 63.72 582.9 64.09 586.31 64.34 594.4 64.93 599.9 64.93 606.06 65.09 612.73 65.01 618.06 65.01 625.48 65.09 631.73 65.09 638.98 65.68 646.81 65.84 655.23 65.76 661.23 65.72 669.35 65.97 673.48 65.47 679.85 65.97 686.6 66.34 693.35 65.97 702.85 65.84 710.35 65.84"/>
    <path class="cls-18" d="m266.23,23.84s5.38,1.31,5.56,1.31,2.31.69,2.31.69l4.69.5,3.25.38,3.75.44h3.5l2.62-.06,3.9.33,3.67.67,2.5.5,4.83.5,4.67.83,4.08.67,3.5.17h3.75l3.58.17,4.92-.08,4.92.58,4.67.83,4.83.75,3.83.08,5.42.17,6.67-.25,6.67-.08,5.75.58,4.83.33,2.58.12h3.25l4.08.29,4.6.02,6.65.31,5.04.12,4.38.12h7.25l3.75.42,7.19.33,4.31.94,4,.4,4.67.25,4.08.48,3.62.19,3.75-.19,5.31.37,6.5.19,4.25-.06,5.69.12,6.38-.5,9,.37,3.94.31h3.94s5.25-.25,5.5-.25,4.75.5,4.75.5l6.75.5,4.92.27,4.08.35,4,.62,3.54.12,5.17.17,4.67.08,4.17.08,3.58.08,5.12.82,5.17.67,6.5.67,6.5.33,6.83-.17,7.33.17h6.67l7.83-.67,6.67-1.83"/>
    <path class="cls-7" d="m264.29,3.09l2,.38,2.75.62,2.5.31,3.44.25,3.12.31,3.19-.12,2.75.12,3.12-.06,2.19-.06,3.75.12,3.06-.06,3.25.06,3.81-.12,4.31-.06,2.94-.12h7.5l3.88-.25,5.38-.06,4.12.12,2.81-.06,2.94-.12h11.19l3.44.12,3.44.12,3.19.12,3.46-.06,3.33.33,4.27-.02h3.75l3.62.19,3.38-.25h8.25l2.75.06,3.5.06,2.75-.06,2.25-.37,3.19-.37,4.44.06s3.81-.31,4-.31,3.56.06,3.56.06l3.44-.12,1.77-.67,2.42-.58,2.58-.75"/>
    <polyline class="cls-7" points="159.48 36.72 163.23 35.34 166.1 34.34 169.48 33.09 173.48 31.97 177.35 31.47 180.73 30.51"/>
    <polyline class="cls-7" points="835.48 196.85 838.02 196.34 840.56 196.05 843.06 195.59 846.06 195.59 848.9 196.01 851.6 196.39 854.31 196.51 856.98 196.84 860.23 197.22 862.1 197.78 864.54 198.22 867.29 198.41 869.6 198.66 871.98 198.84 874.48 199.59 877.23 200.34 880.54 200.97 883.04 201.72 885.35 202.59"/>
    <polyline class="cls-7" points="246.73 227.01 249.65 227.34 252.9 227.18 256.73 227.01 259.23 226.68 261.98 226.34 264.73 226.34 267.98 226.34 270.65 226.43 273.4 226.43 276.48 226.51 280.73 226.68 284.06 226.68 287.15 227.09 291.15 227.68 294.56 227.84 298.4 227.59 304.73 227.93 307.4 227.93 311.73 228.01 315.4 228.01 320.4 228.26 326.48 229.1 332.4 229.51 337.4 230.01 341.4 230.26 345.4 230.85 349.56 230.93 354.81 231.93 360.15 232.68 366.56 233.93 371.23 234.51 376.15 235.43 381.73 236.51 386.65 237.09 391.73 238.72 397.73 240.22 404.23 241.59 411.23 242.97 417.98 243.59 422.98 244.59 427.35 245.22 430.6 245.72"/>
    <path class="cls-7" d="m255.98,226.93l2.42.5h3l3.5.25,2.58.42,2.92.75,2.92,1,2.58.5,2.33.58,3.83.17,3.08.5,4.42.17,3.67.33h3.62l3.12.38h3.88l4.5-.12h3.38s3.75,0,4.12.25,2.88.62,2.88.62l4.25.5,4,.25h7.5l3.88.62,3.5,1.75,4.21.83,4.33.25,3.67.42,4.67-.08,3-.5,3.33-.42,2.67-.42,2.92-.5,3.67-.5.83-.25"/>
    <polyline class="cls-7" points="376.48 203.59 379.48 204.22 382.98 205.09 387.1 205.09 391.73 205.47 395.85 205.59 400.35 205.59 405.85 205.72 410.48 205.72 414.98 205.09 419.23 205.34 424.73 205.34 430.23 204.84 435.73 204.09 440.98 204.09 445.1 203.09 448.23 201.84 450.35 201.22"/>
    <polyline class="cls-7" points="73.15 33.68 76.9 33.51 80.81 32.68 85.73 31.51 89.65 30.59 93.65 29.59 97.65 29.01 101.15 28.34 105.4 27.01"/>
    <polyline class="cls-18" points="111.98 38.01 113.85 37.97 119.56 39.01 124.81 40.01 129.06 40.51 133.81 41.84 137.31 42.43 142.65 43.34 145.98 43.93 150.4 45.01 153.15 45.93 155.65 46.76"/>
    <path class="cls-18" d="m267.56,36.18l6.29.29,5.88.5,5.62.62,8.25.75,9.12.38,9.5,1,5.25.12,7.12-.12,7.88.38h6.38l7.88.5,6.62-.12,6.5-.5,4.5.12,3.5.38,5.12.12,5.75.25,5.5.25,7.12-.25h12.5l5,.12h6.62l5-.88s4.38-.12,4.75-.12,5.38-.25,5.38-.25l3-.5"/>
    <polyline class="cls-7" points="247.6 38.47 252.85 39.84 257.48 41.09 262.98 42.72 267.6 44.34 272.35 46.34 277.1 49.22 281.35 51.97 284.1 53.22 287.1 54.72 291.81 55.84 295.31 56.26 299.56 57.01 304.73 57.26 311.81 57.26 316.73 57.01 321.73 56.76 326.85 56.76 337.23 57.39 345.35 57.76 354.35 58.76 364.48 60.64 372.1 62.76 378.98 63.39 388.48 62.01 396.35 61.64 398.15 61.01 402.19 60.47"/>
    <polyline class="cls-7" points="325.4 56.76 329.9 55.43 332.98 54.26 336.85 52.97 340.6 52.09 345.85 51.22 351.23 51.09 357.98 51.09 364.85 50.47 374.41 50.37 383.73 48.97 391.1 47.84 399.6 46.72 407.6 45.72 414.1 44.72 421.35 43.72 427.73 42.97 432.1 42.72 437.1 42.34 441.98 41.34 445.6 40.84 448.85 40.22"/>
    <polyline class="cls-7" points="463.1 64.34 459.23 65.09 455.56 65.59 449.4 66.01 446.15 66.18 441.4 66.18 436.98 66.16 432.98 66.28 429.1 66.34 424.73 66.34 419.92 66.22 416.17 66.03 412.23 65.97 408.1 65.97 404.1 66.09 400.85 66.47 396.1 66.47 392.48 66.47 388.98 66.72 383.56 66.68 378.31 66.34 374.73 66.18 371.9 66.18 368.65 66.18 365.06 65.93 361.56 65.84 358.65 66.01 355.15 65.93 351.48 66.09 348.17 66.16 342.42 66.22 336.79 66.84 332.23 67.09 328.17 67.22 322.6 66.97 319.29 66.97 316.29 67.03"/>
    <polyline class="cls-24" points="3131.23 306.68 3125.23 305.51 3120.4 304.18 3114.73 302.01 3112.23 300.35"/>
    <polyline class="cls-7" points="2761.06 321.51 2768.4 323.51 2776.06 323.51 2785.4 324.68 2790.23 325.68 2798.73 325.68 2806.56 326.51 2816.4 327.18 2824.56 327.18 2835.56 327.01 2846.23 328.34 2857.73 330.51 2867.06 330.68 2873.23 330.68 2880.56 328.84 2887.06 327.68 2895.06 326.01 2900.73 324.34 2904.56 323.68 2908.9 322.51"/>
    <polyline class="cls-7" points="573.6 75.84 576.73 76.22 582.73 76.97 588.48 78.47 592.6 79.22 597.35 79.34 602.6 80.09 607.98 80.84 613.73 81.72 621.85 82.97 629.48 84.72 637.23 86.47 644.35 88.22 650.48 89.47 655.1 90.22 658.35 90.84"/>
    <g>
      <line class="cls-7" x1="636.6" y1="56.47" x2="638.02" y2="56.5"/>
      <polyline class="cls-6" points="640.89 56.55 643.35 56.59 649.98 57.22 655.6 57.72 665.73 57.22 675.23 56.72 684.6 55.22 694.48 54.97 703.1 54.97 708.1 55.47 717.85 55.72 727.23 55.97 733.1 56.09 739.35 56.72 742.35 56.59 751.1 58.09 759.6 59.59 773.73 60.84 778.73 61.09 784.85 61.34 792.48 61.22 796.98 61.59 799.59 61.5"/>
      <line class="cls-7" x1="801.02" y1="61.44" x2="802.44" y2="61.39"/>
    </g>
    <polyline class="cls-24" points="3029.1 327.84 3034.98 326.84 3041.73 325.09 3050.73 323.09 3062.98 320.84 3070.56 317.35 3082.23 314.85 3090.23 313.18 3096.15 311.26 3103.9 310.01 3110.06 308.01 3118.56 307.85 3126.23 307.51 3135.23 306.35 3144.73 306.26 3148.65 306.26 3153.4 306.26 3159.65 306.1 3164.31 305.76 3168.65 305.26 3174.02 303.51 3179.98 301.22 3187.65 298.93 3193.4 298.34 3199.56 300.68 3203.73 303.01 3207.73 305.51 3215.56 307.68 3223.4 310.18 3226.9 311.68 3232.73 312.68"/>
    <polyline class="cls-24" points="2360.56 268.34 2364.4 270.84 2375.9 273.84 2385.56 274.68 2392.4 275.51 2398.4 276.68 2402.9 277.01 2406.73 278.68"/>
    <polyline class="cls-24" points="1113.48 150.47 1104.6 150.84 1093.85 150.72 1086.48 150.22 1080.6 150.09 1073.1 150.72 1065.23 151.09"/>
    <polyline class="cls-24" points="926.4 136.84 933.06 136.51 945.06 136.18 956.06 137.18 966.23 136.84 981.23 137.01 994.06 136.51 1004.73 137.01 1012.9 137.34 1022.23 137.18 1035.23 137.01 1042.73 136.34 1053.73 136.51 1061.23 136.51 1071.23 136.84 1080.56 136.84 1088.73 136.18 1097.73 136.18 1107.06 136.34 1114.1 136.97 1127.85 137.22 1139.35 136.72 1148.35 136.59 1159.35 136.34 1167.73 136.22 1174.98 135.47 1184.6 135.59 1190.85 135.72 1200.6 135.84 1213.6 136.47 1219.6 136.59 1226.1 136.34 1233.35 135.47 1243.73 133.97"/>
    <polyline class="cls-18" points="843.06 195.59 838.06 193.93 833.81 192.34 826.56 190.43 821.56 189.51 818.56 189.51"/>
    <polyline class="cls-18" points="820.48 188.76 816.73 190.18 810.81 191.26 804.77 191.64 797.15 192.39 790.02 193.14 783.27 193.39 777.65 193.89 767.15 193.72 750.65 194.76 739.65 195.05 721.81 194.89 708.15 195.55 696.15 195.22 683.65 195.05 668.15 195.39 657.81 196.89 646.81 196.72 634.31 195.72 620.65 193.89 611.48 192.89 592.31 192.39 572.81 191.72 549.81 193.22 528.15 195.05 511.81 197.72 499.65 198.72 481.48 199.89 468.81 199.89 449.98 201.39 431.15 201.72 414.31 202.22 399.48 202.72 383.81 203.39 374.15 203.72 363.98 204.22 357.52 205.01 347.77 209.26 336.9 211.39 330.15 211.55 316.81 212.22 308.15 211.39 297.48 212.05 281.65 215.05 266.15 218.39 257.15 221.22 247.15 227.05 232.31 233.22 214.48 237.22 199.81 239.72 179.81 241.55 166.81 242.39 148.65 242.55 137.81 242.89 126.31 241.39 111.81 240.22 102.31 241.72 95.48 241.05 85.65 238.39 79.98 237.39 69.4 235.39 58.65 234.14 48.15 233.64 21.98 232.84 7.85 233.34 2.23 233.22"/>
    <path class="cls-18" d="m1468.73,269.89c-.5,0-8.58-2.25-8.58-2.25l-10.83-1.08-12-.33-12.83-.5-10-.67-12.5-.17-11.33.33-14.17,1.83-12.58,5.71-14.62,2.12-13.12,2.12-14.38,3.38-12.25,2.25-9.88.75h-13.75l-21.62-1.62-20.75-2-26.38-2.88-24.67-4.33-3.5-4.67-6.67-2.21-5-1.79-13.33-.33-12.83,1.33h-14.33l-11.33-2-17-1.83-9.67-.33-20.5-1.83-26-3.33-21-3.17-17-1.67-14.54-3.96-10.25-1.88-7.38-1.17-5.67-.83-6.83-1.42-6.33-1-5.25-1.25-6.25-1.58-7.92-2.25"/>
    <polyline class="cls-18" points="1096.31 260.39 1085.81 262.22 1078.98 264.22 1075.48 265.72 1065.98 269.22 1063.15 271.51 1058.65 275.39 1055.15 279.05 1048.15 282.89 1040.65 286.39 1029.15 287.39 1016.81 287.55 1003.48 289.39 988.31 291.39 975.31 292.72 961.15 293.22 947.48 293.22 936.65 295.05 930.9 295.14 921.98 296.34 916.48 297.47"/>
    <g>
      <line class="cls-18" x1="1470.15" y1="270.14" x2="1472.24" y2="270.52"/>
      <line class="cls-18" x1="1476.35" y1="271.34" x2="1476.36" y2="271.35"/>
      <polyline class="cls-1" points="1476.36 271.35 1480.15 272.34 1493.9 274.59 1505.15 276.34 1519.4 278.84 1530.9 281.84 1544.65 284.34 1560.15 285.34 1579.9 287.59 1603.4 287.59 1619.52 287.59 1635.9 287.72 1652.15 287.34 1667.9 288.34 1677.02 288.97 1683.8 289.38 1690.46 289.55 1699.96 290.21 1709.3 291.05 1718.13 292.21 1725.46 294.38 1733.3 296.55 1740.3 298.05 1748.24 299.85 1757.08 300.35 1763.41 300.85 1771.58 300.51 1779.58 299.68 1788.91 297.51 1796.23 296.35 1807.4 293.35 1818.06 291.85 1827.23 291.85 1838.06 293.01 1848.4 297.35 1862.56 299.85 1867.9 300.85 1875.49 302.55"/>
      <line class="cls-18" x1="1875.49" y1="302.55" x2="1877.56" y2="303.01"/>
    </g>
    <path class="cls-15" d="m1231.02,203.26l-6.25-.62-3.88-.5-4.25.25-4,.25-11.25.75-7.58-.83-18-.67-13.17-.17-13,1-18.25,1.67-13.25-.5h-20s-17-.75-18.25-.75-9.5,1.25-9.5,1.25l-19-1.5-11.25-.75-15.5-1s-14.25-.25-15,0-18.25-1.25-18.25-1.25l-12.75-1.75-14.67-1.33-16.33-2.5-11.83-.75-15.17.83h-11.5l-15.25-.5-11-2-13-1-6.74-.34-7.67-.67-8.83-.33-9.1-1.2-4.17-.25-8.58.08-4.92.83"/>
    <polyline class="cls-15" points="2727.15 235.71 2721.48 237.38 2713.48 238.54 2706.65 239.38 2700.82 239.88 2690.65 238.38 2684.65 238.38 2678.31 238.38 2671.48 238.21 2665.65 237.71 2658.15 237.54 2649.81 237.38 2642.98 237.54 2635.98 237.04 2628.65 237.54 2621.15 237.04 2613.81 237.21 2608.81 237.54 2600.81 236.88 2592.48 236.21 2585.15 235.54 2576.65 234.39 2567.65 233.39 2561.15 232.89 2553.65 232.39 2541.65 231.89 2532.15 231.39 2523.65 231.89 2518.65 232.72 2510.81 233.72 2504.81 234.89 2499.27 237.14 2494.27 238.39 2489.15 239.51 2483.65 239.89 2479.27 240.51 2474.52 240.76 2469.52 242.01 2464.77 242.39 2460.15 243.26 2453.27 244.64 2448.15 245.76 2443.27 246.51"/>
    <polyline class="cls-15" points="2491.98 239.01 2485.98 237.84 2480.52 237.51 2473.52 237.01 2466.4 235.01 2462.17 233.22"/>
    <polyline class="cls-18" points="483.65 132.39 475.4 132.14 466.15 131.39 455.15 132.14 444.9 131.39 430.9 131.39 426.52 131.89 423.9 131.76 415.02 131.89 408.4 132.26 402.27 131.89 396.4 132.01 388.52 131.76 379.27 131.01 370.4 130.64 364.77 130.26 351.4 129.64 345.4 130.14 337.06 130.97 322.23 131.8 315.56 132.64 302.73 133.14 292.73 133.64 282.4 133.3 269.06 132.14 259.9 130.97 249.9 129.8 234.23 127.64 223.23 126.14 213.06 125.47 202.06 125.64 193.06 125.97 183.56 126.8 174.23 127.47 162.56 128.14 153.73 128.97 148.56 128.97 141.23 129.3 133.23 129.64 125.23 130.14 114.9 130.64 104.9 130.64 95.4 131.3 85.06 131.3 80.06 131.47 70.75 131.39 61.65 132.14 53.4 133.14 44.65 133.14 26.23 134.34 1.73 136.34"/>
    <polyline class="cls-21" points="775.15 129.89 785.15 130.64 794.15 131.39 804.65 131.64 814.65 131.89 825.9 131.64 836.4 132.14 849.9 131.64 865.4 131.89 878.4 132.64 889.65 133.64 901.9 135.14 913.9 136.39 925.4 137.89 933.65 139.39 942.9 140.89 953.4 141.14"/>
    <g>
      <line class="cls-18" x1="485.65" y1="132.39" x2="488.14" y2="132.49"/>
      <line class="cls-18" x1="493.1" y1="132.71" x2="493.11" y2="132.71"/>
      <polyline class="cls-23" points="493.11 132.71 497.15 132.89 503.9 133.14 514.15 133.39 524.9 132.89 536.4 132.39 548.65 131.89 557.4 131.89 570.65 131.89 584.65 131.64 596.4 132.89 607.15 133.39 617.4 133.64 628.15 133.14 636.15 132.89 643.15 133.39 652.4 132.89 662.9 133.14 671.65 133.39 677.27 132.76 684.4 132.01 691.4 131.64 697.65 131.01 706.52 130.51 714.27 130.64 722.65 130.76 732.02 131.14 742.77 130.76 753.65 130.89 762.77 130.01 771.02 129.82"/>
      <line class="cls-18" x1="771.02" y1="129.82" x2="773.52" y2="129.76"/>
    </g>
    <polyline class="cls-18" points="86.15 251.39 72.65 256.39 64.15 261.39 55.65 265.89 47.15 272.89 32.4 276.51 2.56 277.18"/>
    <polyline class="cls-24" points="834.73 229.09 819.98 227.47 812.48 226.09 806.6 225.22 799.23 224.72 789.73 224.97 781.1 224.72 770.35 223.22 758.23 221.09 752.73 219.47 743.1 215.84 735.35 213.59 726.35 212.72 715.23 209.22"/>
    <polyline class="cls-12" points="1454.9 226.18 1463.06 225.51 1477.4 223.01 1490.4 221.68 1502.23 219.68 1516.06 217.01 1522.9 215.01 1533.9 212.01 1543.06 209.85 1550.56 207.68 1556.9 204.85 1564.56 200.85 1571.73 199.01 1580.06 197.51"/>
    <polyline class="cls-24" points="1060.56 211.43 1073.15 209.34 1086.48 207.84 1105.31 206.51 1112.4 206.68 1119.4 206.93 1127.06 206.18 1134.4 205.51 1141.98 203.34"/>
    <polyline class="cls-15" points="1466.31 166.34 1460.31 168.18 1451.31 169.43 1440.98 170.59 1423.73 173.01 1409.56 175.68 1395.23 179.01 1383.23 180.18"/>
    <path class="cls-15" d="m1141.56,126.68l6-2,8.17-.83s7.67-.67,8.5-.67,14.67-.5,14.67-.5l9.17.5,9.49-.17,10.83-1.5,12.67-.33,11-.33,9.17.62,10.75,2,12.62,1.62,11.12,1.25,11.38,1.12,11.38.62,10.75.12,8,.38,12.5.5,15.62,1,15.25,2.12,14.75.38,10.25,1.38,11.25.25,16.5-.12,11.12-.5,11.5-.25h17.5l16.5.88,10.12.12,9.88.25,16,.5,12.75,1.62,11,1.88,6.5,2.38,11.25,5.5,5.25,2.38,8.12,5"/>
    <polyline class="cls-15" points="1342.31 92.84 1349.4 94.01 1357.4 94.51 1375.73 95.68 1391.9 96.68 1406.23 96.18 1421.4 97.01 1429.23 98.34 1436.23 100.34 1443.1 101.97 1450.85 102.97 1462.85 103.84 1472.6 103.97 1479.35 103.97 1485.6 103.72 1492.23 103.72 1502.73 103.97 1513.35 103.97 1522.35 103.97 1528.85 102.59 1535.35 102.09 1541.85 101.97 1549.73 101.84"/>
    <polyline class="cls-15" points="1425.48 84.09 1419.35 84.97 1413.6 85.97 1405.48 86.84 1399.48 87.22 1389.1 88.09 1381.06 88.84 1368.56 90.01 1355.73 91.34 1348.73 92.34 1341.23 93.34 1330.56 93.18 1322.4 92.51 1309.56 91.34 1302.23 90.34 1289.56 89.18 1278.73 87.51 1268.9 86.84 1253.9 84.84 1247.06 84.18 1236.4 82.84 1228.9 81.01 1213.73 78.34 1206.06 77.34 1198.73 76.34"/>
    <polyline class="cls-15" points="1905.23 167.59 1895.23 166.22 1886.73 165.72 1878.6 165.84 1869.85 165.72 1860.73 166.51 1843.73 166.18 1829.9 166.84 1816.73 168.34 1800.23 169.01 1788.56 169.01 1771.73 169.18 1753.56 168.51 1744.56 168.68 1737.73 167.51 1731.23 167.18 1725.4 167.18 1719.06 167.68 1712.23 167.18 1704.06 166.68 1697.23 166.01 1689.4 165.84 1680.9 166.34 1674.4 166.34 1666.06 166.68 1658.06 167.34 1649.9 169.01 1639.06 172.51 1622.06 175.51 1606.9 177.84"/>
    <polyline class="cls-15" points="1517.4 104.18 1523.15 105.09 1528.56 105.93 1534.23 106.93 1539.98 108.26 1550.48 110.51 1557.31 112.09 1567.15 113.93 1575.23 115.93 1581.56 117.51 1587.64 118.26 1595.31 118.84"/>
    <path class="cls-18" d="m2184.15,200l-8.17-.03-12.5-.88-15.88-.25-15.12-1.5h-10.25l-10.75.5-8.62.38-11.88.38-11-.25-7.25.25-8.5,1.25-7.62-.25-10.38,1.38-10.38,1.38-14.88.38-14.75-1-16.04-1.08-15.17-.17-16.5-.33-17.33-.5-19-.67-13.5.5s-12.33-.5-13-.67c-.67-.17-9.67-.33-9.67-.33l-15.33,1.5-18.33,1.5-15.42,2.33s-10.08.33-10.33.33-9.08.92-9.08.92l-15.58,1.17-16.5-.08-21.17.17-4.25.17-14.5.92-13.58,1.67-15.08,1-14.17.5-9,.17-8.08.5-14.08.42-10.58,1-14.33.58-10.25.75-15,.88-12.25,1-12.25,2.62-16.62,3.38-12.71,2.12-8.29,1.62-5,1"/>
    <path class="cls-15" d="m2185.39,199.94l4.38-.43,15.33.21,5.58.67,9.17.33,13.58-1.17,13.17,1.25,11.08-.08,10.58-.33,4.58.11,4.76.11,5,.12,5.83-.6,6.34-.65,5.67-.58,4.34-.18,6-.25,5.5-.23,3.01-.68,2.61-.59,6.08-1.37,4.89-1.11,6.92-.42,5.75-.33,5.92-.34,6.33.26,5.87.24,6.01.12,7.88,1.88,6.75-.5,6.12-.38,6.25-.62,4.5-.75s2.96-.58,3.79-.75c.38-.08,1.95-.29,3.55-.5,1.95-.25,3.95-.5,3.95-.5"/>
    <line class="cls-18" x1="9.56" y1="251.35" x2="2.23" y2="254.68"/>
  </g>
  <g id="Rank_4">
    <polyline class="cls-8" points="1219.23 67.09 1206.73 71.59 1196.1 74.22 1190.73 75.84 1184.4 76.68 1176.73 78.18 1169.4 77.68 1161.56 77.18 1153.56 76.18 1144.4 75.85 1134.4 76.85 1122.06 77.68 1110.4 78.68 1097.9 79.51 1084.56 80.18 1071.23 81.35 1057.6 82.34 1043.6 82.97 1022.85 85.72 999.48 86.97 979.4 87.34 966.06 87.18 953.06 86.01 937.56 85.34 920.4 83.34 903.06 82.84 887.56 80.18 879.35 80.34 859.1 82.84 835.35 85.22 823.73 86.59 810.35 87.09 796.23 87.97 776.1 89.34 752.48 91.47 733.1 91.97 717.73 92.09 705.1 92.22 694.35 91.34 684.98 90.97 674.85 90.97 664.35 90.72 646.35 91.47 629.73 90.59 617.48 90.59 600.85 91.09 584.98 91.97 568.35 93.59 553.6 94.97 537.73 96.09 523.35 96.97 512.35 98.22 499.23 98.09 479.85 98.59 469.23 98.22 460.1 97.47 450.1 96.97 441.35 97.22 433.98 97.09 423.85 96.84 404.73 95.97 391.1 94.72 380.73 95.59 368.23 94.59 357.85 92.47 340.85 94.34 324.48 97.47 310.6 96.59 291.73 96.47 271.98 96.84 257.56 97.01 243.35 96.47 231.06 96.34 218.1 96.09 208.35 96.09 196.35 95.72 188.73 96.01 170.9 94.51 157.56 93.84 151.23 92.84 135.56 93.18 114.4 95.01 93.6 96.09 79.35 97.84 73.23 97.59 64.48 98.59 50.98 99.09 41.73 101.09 18.4 103.84 2.23 105.34"/>
    <polyline class="cls-8" points="707.23 25.64 700.81 27.55 693.98 28.64 684.73 30.05 675.23 30.72 664.4 31.72 654.15 33.72 648.1 35.3 639.98 38.43 630.6 40.68 622.48 41.55 614.85 40.8 606.6 40.55 598.35 40.18 588.1 39.3 577.23 37.93 564.81 35.72 556.98 35.14 548.9 34.47 541.9 34.05 534.1 32.93 527.54 32.3 521.35 32.37 513.85 32.37 504.98 32.37 498.29 32.24 489.67 32.62 481.73 32.47 476.4 32.47 469.9 32.89 459.15 32.8 452.98 32.8 445.9 31.89 438.9 31.05 431.65 30.14 421.65 28.55 411.9 27.8 402.4 27.55 391.06 27.47 381.06 27.8 371.81 27.47 362.06 26.64 351.48 25.3 340.31 24.3 329.06 23.72 320.9 24.05 314.23 24.3 306.06 24.64 296.9 24.64 288.73 24.8 279.54 24.05 270.54 23.24 263.98 23.93 253.98 23.8 246.85 23.8 240.1 24.55 231.48 26.55 226.48 28.55 218.1 29.62 209.73 30.89 200.9 31.05 190.23 30.72 180.48 30.47 171.31 29.47 160.81 28.72 154.81 28.97 147.4 29.22 141.15 28.89 133.23 28.55 127.48 27.97 122.48 27.64 116.35 26.8 110.73 26.8 103.48 27.05 97.6 26.05 93.23 25.18 88.35 23.93 83.35 24.18 79.73 24.3 72.15 24.64 62.15 24.64 54.15 24.97 40.48 24.97 31.81 24.64 18.48 25.64 10.81 25.97 2.4 26.84"/>
    <path class="cls-2" d="m.5,250.07l7,1.5,19.5,1.75,23.24.58,13-1.5,7.1-.75,9.23-.25,8.67.16,17.25-.41,17,1.25h16.5l17.5.75,16.42.75,19.83-.17,30.17-3.33,20.5-5.17,17.33-2.17,18.5.17,21.33-.33,5.67.16,9.67-.66,13.33-.17,11.67,2.17,12.66,2.5,12.84-.17,9.5,1.33,20.58,1.09s16.5-1.5,17.25-1.25,24-3.25,24-3.25l16,.5,32.67-1.25h10.83l8.5-.34,17.33-1,17.17-.66h14.67l14.5,1.16,9.83,1.5,13.67,2.67,22.33,1.17h15.17l8.83.66,12.5.34,13.88.37,8.62-.62,16.5-3,19.5-5.25,13.75-1,12.42-2.5,10.16-2.17,7.67.5,8.63,2.17,14.37,1.37,11.5-.12,13,2.12,10.5.63,15.5-1,14.5-1.5,16.25-.25,26.25-1,20.75-1.75h18.25l11.63-.5,7.5-.63,9.12-.12,11.13-.75,8.62-.38h8.75l9.63.5,11.87,1,10.63,1,17.37,2.75,10-1.37,9-3,9.5-.25,10.33-.59,12.17-.16,9.5-1.25,5.42.25,10.83-1,9.83-.67,7.17.17,6.83.16,9.17.17,7.5.79,8,1.5,12.38,1.88,19.25,1.37,11.37-.25,9.25-1.37,12.75-.38,10.38.13,12.95,1.08,10.8.54,8.87,1.04,7.67,1.17,8.66.33,11.17-.5,12-1.16,12.83-1.5,12.17-2,13.83-1.34,13.17-2h13.5l16-.33,6.17.5,13,.67,15.33.5h15l18.33-.5,16.84-.84,15.33-1.16,14-1.17,14.33-2,13.34-2.17,7.83-.33,7.67.83,18.9,1.89,9.72,1.36,9.84.84,7.33.16,13.83-.16,14.5-.67,27-2.67,15.84,1.17,10,.33,16.83.17,24.67.17,8.83.66,12.33.34,10.67,1.16,10.33.5,11.17.5,16.83,3.5,10,1.17,12.67,1.83,19.17,1.67,9.16-.17h10.34l7-.5,19.83-1h6.33l12.5.34,7.34.16,10.49-.5,11.34-.33,17.67.5,14.5-.83,10.16.5,11.34-1.34,9.5.5,10.33.67,11-.17,9.67.5,13.33.5,13.33,1,23.5,1.5,15.84-.16h9l3.02.41,2.25.31,2.25.44,1.93.38,15.63-.63,19,.5,13.75,1.5,20.25,1,23.5-.5,27-1,16.5-1.25,20-3,18.75-1.75,17-2.5,12.37-1.12,12-.63,14.13-.12,18.25-1.13,11.5.13,10.75.62,10.92,1.39,2.45.61,3.5.5,3.63.63,4.87.12,6.88.38,7.75-.38,3.75-1,7.75-.66,11.17-.25,8.33-1.46,5.87-.25,6.63.62,7.17.57,6.31.56,8-1.17,11-3.37,7.87-2.13,5.63-2.37,6.74-1.76,9.63-2.24,7.63-.13,5.87-.63,10.03-.25,11.6.87c4.12.37,31.37,1.87,33.74,1.87s16.38,0,21.76-.5c5.37-.5,18-.37,22.37-.37s24.63-.37,28.37-1.63"/>
  </g>
  <g id="Rank_5">
    <path class="cls-10" d="m2334.56,185.18l-16.5-.17-23.33-.5-27.33.33-19.67.33-17.33.17-20.83-.17-14-.67-11.83.83-17,.33h-36l-26.5.83-18.83,1-31-.17-25.33,1.17-23.33.33-18.5-1.5-21.33-1.33-16.17,1.17-16,1-18.83-2-17-.17-10.5-.33-17.54-1.21-14.12.88-15.12-3.88-12.31-1.25-8.12.25-8.25,3.12-8.87,1.69-10.37,1.12-4.56-.5-6.44-2.81-7-.38-7.87-.19-6.31,1.44-8.5-.25-24.88-.12-28.12-.88-15.25-1.25-9.38-1.62-9.5-1.38-4.5,2.12-6.5,4.62-20.75,1.75-25.88.62-10.12.25-14.12-3-10.5-2.62-9-1.62-7.25,1.62-8.25-1-10-1.5-11.88-.38-20.75,1-15.25,1.12-17,.62-11.62-1.38h-11.75l-12.88.12-15,.25-14,2-9.62-.5-11.5-2.25-15.25-.62-16.75.12-17.75-.5-23-.12-8.25,1.12-13.75-2.38-8.5-.88-14.75-1.88-16-2-17-1.62-10.75-2.12-4.88-1.75-9.5-2.12-12.5-1.38-14.75-3.5-11.25-3-8.5-1.12-19,1.62-15.75-.12-28.96-3.08-15-1.5-27-3.17-22-1.33-20.83-1.67-14.5-1-12.33-2.33-16.5-1-26.5.67-12-.67-14,2.67-10.83,1.17-13.67-2.67-8.67.67-12.5,1.5h-15.67l-11.33,1.67-12,2.5-21.67,5.17-14,2.5-22.5,2.17h-34.5l-17.67.67-23.5-.67-11.75-.25-11.25.25h-16.17s-17.83-2-17.83-2l-20.17-.08-16.58,1.33-22.25,3-18,1.75-18.33,2.33-16.17,1.67-15.75,3.5-17.75,2.5-12.33,1.67-17.17,2.5-20.18,1.17-15.33-1-19.67.33-15.67-.67-11.67-1.67h-9.67l-10.66.67-12.67-2-13.67-.67-13.67.67-16,3.67-9.67,1.33-25,1.33-15.67,3.33s-26.67,1-27.67,1l-7.29.33-6.62,1-8,.88-5.25.38-5.38-1.12-5.12-.75-5.88-1.12-5.75.12-6.12.88-4.75.12-4.38-.5-4.46-.21-20.67.33s-14.75,1.12-16.75,1.12-18.58,1.71-18.58,1.71l-14,.67-13.67,1.5-8.17,1.17-7.83.67-7.83.5h-6l-4.17.33-44.25-.17"/>
  </g>
  <g id="Rank_7">
    <path class="cls-13" d="m3543.04,308.72l-4.25,2.5-4.06.38-4.31.75-5.62-.69-4.23,1.08-5.08.92-2.81-1.12-4.44-.37-5.81.31-4.19.81-4.06-.31-4.77.99-4,.21-5.65-.47-6.35-.53-5.54-.08h-5.88l-5.17-.42h-8.59l-10.67,1-6.59-.13-6.32-.12-4.76-.09-2.16.09-7.17.28-7.51.3-5.08.36-4.42.31-4.44.52-5.61.65-4.28.5h-8.24s-3.51-.12-3.51-.12l-3.74-.13-6.84.75-4.89.63-5.44.7-4.44.36-3.88.32-4.5.37-5.5.6-4.84.52-5.05.73-5.28.77h-9.5c-.17,0-1.88.08-4.07.2-2.07.11-4.57.24-6.63.35-2.27.12-4,.21-4,.21l-3.31.03-7.15.05-8.66.11-4.17.05-5.33.06-4.75.05-4.83.06-4.79-.53-4.96-.55-5.17,1.79-7.49.13-5.25-.08-5.11-.08-5.14-.08-5.12.12-5.12.12-6.81.38-6.69.37-5.38.25-5.24.25-4.14.17-4.99.2-3.12.13-3.62.32-4.53.4-6.1.54-6.62.75-5.5.62-4.25-.04-5.5-.05-4.75-.04h-13.25l-13.12,1.12-9.25.88-9.88.62-11.12,1.38-14.62-.25-13.88.38-15.62-.38-16.88.75-15.75,2.62-11.75.25-5.62-1-4.12-.62-2.75-1-6.25-.88-5.62.25-4,.38-3.75,1.5-3.88,1.62-3.88.62h-6.88l-5.5-.62-3.25-1.75-4.71-.79-5.33-2.58-3.71-1.13-6.75-.38-5.5.88-8.75,1.12-6.88,1.38-7,1.88-8.88-.12-6.75.25-8.12-.12-7.58-.42-7.42-2.67-7.17-1.25-4.71-.54-6.38.75-6-.38-4.62.12-6,.75-4.5.88-4.38.38-7.25.88h-5.5l-5.75.08-5.25-.25-2.17-.25h-3.25l-3.67.5-3.33.67-2.5.75-3.33,1.08h-8l-3.75.67-5.83-.17-16.17-1.83-8-1.5-8.25-1.38-8.42-1.38h-8.46l-10.62-.38-7.5-.62-10-.88-8.38-1.88-9.75-1.25-7.62-.83-8.83-.33-8.83.33-7.58-.29-9.62.38-6.75-.38-10.38-1.12-7.38-.25-7.5.75-8,.25-7,.25h-6.5l-7.88.12-6.08.12-7.17-.33-5-.54-6.67-1.46-7.5-1.67-5.96-1.83-6.75-1.42-10-.62-14.5-1.25-13.25-1.62-13.62-1.75-12.62-1-12.46.17-8.83.5-6.83-.5-5.67.17-7.67-.83-5.83-.33-11.67-.33-7.67-.5-6.83-2.17-7.5-3-6.33-2.17-9.67-.67-7.33-1.33-10.5-.83-7.33.5h-9.5l-13,1.5-9.67-1.33-16.17-1.5-14.67-.83h-12.17l-9.67,1-8.54.75-9.75.88-12.75.62-10.38-.25s-7.12-.25-7.5-.25-6.25.12-6.25.12l-9-.75-6.62-.5s-9.62.5-10.12.5-5.75-1-6.25-1.12-6.38-1.25-6.38-1.25c0,0-7.62.25-8,.25s-11.25,1.5-11.25,1.5h-10.38l-13.25.38-9.12-.62-6.04-1.17-6.25-1.08-4.17-.83h-4.83l-3.17,1-6.42.25-6.75-1.67-3.5-1-5.25-.75-8.5-.38-6.12-.5-7.62.12h-3.88l-4.12.38h-3.62l-4.88,1.25-3.75.38-4.38,1-7.12,1.12-4.42.96-6,.33-8.5-.83-8,.67h-5.5l-5.58,1.25-16.5,2.75-17.25,2-17.5-.5-18,.75-20.25-.5-12.5-1.25s-13-1-13.75-1-15.5,1.75-15.5,1.75l-18.5,3.25-12.75,2.25-8.58,1.58-16.33-.17-7.33-.5-17.83-1.5-18-1.67-12.5-2-16.83-1.5-15.5-.83-10.67,2.17-15,1.83-11.5.67-18.5-1.17-13,.67-10.29-.33-6.71-.67h-7.17l-7.17-.5-8.83-.67h-8l-9.38-1.42-5.79-1.92-6.5,1.17-10.17-1.67s-6.83,1.17-7.5,1.17h-7.17l-9.33.33-8.83.5s-9.67,1.5-10.17,1.5-7.5,1.67-7.5,1.67l-9.33,2-10.17-1.5-8.17-.83-10.33-2.83h-9.17l-10.17-.17-9.5,1.17-7.5.17-10.5,1.5-8.66.5-8.17,2-12.83,1.83-10.67.33-14.67.33-14.67.83-13.67-.33-7-1.83-9.5-1-11.17-1.33-14.83-.5-11.17,1-9.5,1.17-11.67-.33-7-1-10.33-4.83-7.17-3-10.67,1-11.67.5-7.67-.67-11-.33-6.33,2-5.33,1-6.67,2.5-11.5.83-8.5.33-11.67-1.33-9.67-1.17-6.17-.33-7-1.33-8.5.17h-9l-6.83.33-11.33.33-8.67-.17-11.67-1.83s-14.17-.33-14.67-.33-6.67-2-6.67-2h-6.67l-7.5.83-8.5,1.17-7.17,1.33-8.5.67-7.17-.17-10.83-1.67h-7.5l-10.17-.83-8.83-1.17-6.17.17-7.67.33-9.33-.33-10,1.33-8.33,1h-11.83l-11,1-6.83-.17-10.67,2.5-9.33,2.25-9.5.67-4.83-.25-4.83-.5-7.83,1-8.17,1.08-9.67.58-10.33-.17-4.83-2-14.67.17-10.67-.83-11.33-.5-8.5-.83-10.67.67-6.67.67-10.83,1.33-5.83.09-10.5-1.33-9.67-.67-10,.08-9.16.42h-7l-6.5.58-7,1.33-8.17-1.17-10.33-2-7.67-1-6,.17-6.67-.33-9.5-1.5-10.17,1.17-8,2.17-8.83,1.67-7.83,2.17-9.16,1.09-9.83-1.5-7.17-1.17-14.5,1-8.83-.17-11.67.17-9.5.5-11.83-1.83-6.83-.83-7.33-.83-11.83-.17-6.67-.67h-9.5l-6.33.5-7.5,1.33-6.17,2.33-7.67,1.17-8.33-1-8.17-1.83-6.83-1.17-10.33-1.33-5.5-.67-9.83.5-9.17.33-10.17-.17-9.17-.5-9-.17-7.67-1.17-9.17-.17-5.17-.17-12.5-.17-10.17-.33h-8l-13.33-.83-12.5.33-16-1.67h-14.83l-10,.17h-13.83l-10.83-2.17-12.83-1.5-11.67-.83-9.17-.33-10.83.17-12.17-.83-8.67.33-6.67.67-6.5.5-4.5,1.83-76.84,1.08"/>
  </g>
  <g id="Top">
    <polyline class="cls-22" points="1.68 3.36 58.65 3.74 118.4 4.75 147.07 5.64 196.46 7.78 214.76 4.04 227.79 5 266.19 2.48 296.13 2.35 303.07 2.23 307.62 2.48 333.77 1.22 341.6 2.23 371.03 2.1 378.86 1.47 397.31 1.85 414.11 2.1 432.55 .71 548.76 17.64 682.27 22.18 743.41 30.65 836.51 35.7 915.58 39.99 1056.04 47.45 1160.13 61.03 1222.84 68.23 1346.38 77.51 1421.79 83 1435.62 84.71 1483.56 90.02 1545.71 101.38 1563.14 106.5 1578.86 112.18 1589.85 117.68 1594.54 120.09 1599.89 124.4 1612.64 135.06 1717.05 142.18 1768.84 139.66 1799.03 140.92 1811.16 141.43 1831.87 139.78 1925.32 141.08 2047.15 142.5 2255.79 169.97 2369.22 193.22 2409.89 192.2 2650.91 219.99 2717.6 234.65 2747.66 241.59 2813.73 248.29 2835.33 250.44 2934.74 256.63 2979.83 258.77 3085.94 263.57 3152.76 266.48 3178.53 267.99 3235.37 274.31 3348.17 287.83 3406.02 294.27 3467.03 301.47 3501.39 305.51 3513.77 306.52 3525.39 307.15 3537.39 307.28"/>
  </g>
</svg>