<?xml version="1.0" encoding="UTF-8"?>
<svg id="Calque_1" data-name="Calque 1" xmlns="http://www.w3.org/2000/svg" viewBox="0 0 8274.57 2947.35">
  <defs>
    <style>
      .cls-1 {
        stroke: #ad4e98;
      }

      .cls-1, .cls-2, .cls-3, .cls-4, .cls-5 {
        fill: none;
        stroke-miterlimit: 10;
      }

      .cls-1, .cls-4 {
        stroke-width: 4.96px;
      }

      .cls-2 {
        stroke: #55af31;
        stroke-width: 8.5px;
      }

      .cls-3 {
        stroke: #324b9b;
        stroke-width: 7.09px;
      }

      .cls-4 {
        stroke: #d971aa;
      }

      .cls-5 {
        stroke: #e52521;
        stroke-width: 11.34px;
      }
    </style>
  </defs>
  <path id="rank4_1" class="cls-1" d="M8259.75,721.36h-13.93c-7.4,0-14.07-3.33-26.07-6.67-12-3.33-10-4.67-18.67-4.67h-18c-4,0-38.67,4.67-48,5.67-9.33,1-32,7-42,11s-46.35,9.33-46.35,9.33c0,0-30.98,4.67-35.65,3.33-4.67-1.33-59.17,22.67-61.17,23.17s-15.5,7.5-29,9-15.5,1-30,4-21,3-33,3-13.5-2-27,0-22,3-28.5,5.5-18,6.5-25,9.5-8.27,6-23.64,7.5c-15.36,1.5-79.86,6.5-79.86,6.5,0,0-32.5-1.5-38.5,0s-19.5,5-35.5,3.5-39-2-41.5-2-11,3.23-24,2.37c-13-.87-19.5-.83-22-.85-2.5-.02-15.5-2.02-26.5-2.02s-20.5,3.53-33,2.02l-66.51,11.48-51.67,4.83c-10.5-1.5-11-1.5-26-3.5s-28,.17-37-1.33-41,.33-41,.33c0,0-21-1.5-29-1.5s-14.5,2-25,2-34-.5-43.5-.5-22.82,.33-26.82,.33-18.83,3.67-25.33,2.67l-24.67,6.67-21.33,10.67-17.33,13.33-12.67,9.33-32.67,22-37.33,24.67-48,11.33-35.33,4-33.33-6-51.33-10-40-10.67-39.33-8-40-.67-48,6-21.34,3.1c-17,6.4-22.5,10.9-36.5,11.4s-17.5,.5-21.5,0-24.67,.58-35.33,.38c-10.67-.21-22.67,2.93-33.33,.03-10.67-2.9-18-4.21-27.33-5.89-9.33-1.68-16,3.68-28,0-12-3.68-50.67-7.01-50.67-7.01,0,0-18-10-30-10.67-12-.67-48.21,0-54.1,0s-21.9-1.33-28.56-2.67c-6.67-1.33-8.67-4.67-24.67-2-16,2.67-9.33,4-34.33,5.33s-21,12.69-36.34,17.01c-15.33,4.32-16.67,2.6-36.67,7.13-20,4.53-37.33-1.19-40.67,0-3.33,1.19-16.67,.04-21.67-.71s-21.67,.76-25.67,0-9.67-3.09-19.67-3.09-17.67-1.67-26,.33-15.67,5.16-23,5.24-21.67,5.42-28.33,5.76c-6.67,.33-36.88,3.67-39.78,4-2.89,.33-11.89,4-25.56,4s-20.67,2.67-32.67,0c-12-2.67-5.06-6.5-21.51-5.68-16.46,.83-53.5,2.06-53.5,2.06,0,0-45.63,6.65-48.36,7.2-2.73,.55-81.63,17.75-81.63,17.75-10.12,2.49-23.09,5.2-38.33,7.22-2.72,.36-15.06,1.96-31.67,2.78-17.23,.85-31.55,.49-41.33,0-20.77-1.03-21.39-2.65-46-4.67-24.26-1.99-21.29-.23-50-2.33-16.92-1.24-42.12-3.62-49.67-4.33-14.37-1.36-15.58-1.56-20-1.67-18.56-.44-23.1,2.52-42,3-12.9,.33-10.71-1.06-31-1.33-13.05-.18-15.44,.38-34.33,.67-19.19,.29-21.05-.22-35.67,0-23.45,.36-30.89,1.92-44,2.33-13.2,.42-30.14-2.79-64-8-14.1-2.17-20.47-3.37-31.33-3.67-11.87-.32-14.66,.83-28.33,0-10.64-.64-12.88-1.57-22.33-1.67-8.83-.09-12.5,.67-21.67,1.33-22.52,1.62-21.97-1.41-35,.33-19.03,2.54-18.77,8.8-36.67,10-12.4,.83-23.46-1.44-27.67-2.33-13.44-2.85-14.1-5.62-24.67-6.67-6.87-.68-13.58,.21-27,2-6.81,.91-7.97,1.25-20.67,3.33-17.96,2.94-27.1,4.42-35,5-9.79,.72-8.62-.18-26.67,0-20.81,.21-22.29,1.4-44,1.67-13.16,.16-13.07-.27-27.67,0-12.84,.24-14.84,.61-26.67,.67-9.85,.05-7.52-.21-25-.33-11.52-.08-14.47,.02-20-.67-8.09-1-11.4-2.41-17.33-3.67-12.1-2.57-21.68-1.7-33-.67-18.79,1.71-20.67,5.33-36.67,5.33-5,0-10.11-.56-20.33-1.67-14.13-1.54-19.79-2.94-31.67-3.67l-27.81-1.68c-12.35,.51-45.79,3.6-69.45,1.54-24.36-2.12-46.3,0-62.76,1.03-22.07,1.38-102.18,1.52-135.75,2.67-26.6,.92-221.07-9.26-253.18-7.82-44.74,2.01-268.64-9.21-313.29-6.17-18.6,1.27-52.19,2.35-86.95,3.16-17.43,.41-36.18,7.38-52.45,7.64-23.11,.36-42.25,5.66-54.53,5.66l-20.17,4.63-18,2.5-31,5.5s-41.5-3.5-52.5-6.5-21.17-4.83-25.83-5.5c-4.67-.67-19-3.95-23.33-2.81-4.33,1.14-21-2.19-27.67-4.86-6.67-2.67-42.33-11.67-42.33-11.67,0,0-6.33-5-13-7l-25.65-12.01c-13.49-2.68-29.92-9.89-37.81-12.32-9.45-2.91-49.77-4.24-65.98-3.47-15.97,.76-35.88-.39-42.44-.39-24.9,0-46.7-.23-55.17-.77-10.17-.65-59.8-3.47-72.66-2.95-12.86,.51-38.07,6.69-49.9,6.17-11.83-.51-30.35,0-42.7,0s-26.75,4.12-36.01,4.12-34.98-3.6-46.3-5.66c-11.32-2.06-34.47,0-44.24,1.03-9.77,1.03-31.89-3.09-42.7-3.09s-43.91,7.12-56.77,5.58l-22-6.35h-33s-12.5-.95-22,0-12.5,.21-30.5,2.83c-18,2.62-21,5.47-32.5,5.29-11.5-.18-7,.18-20,0-13-.18-21.5,1.99-27.5,1.91-6-.09-61-4.1-74.5-3.84-13.5,.26-14,.52-31-3.36-17-3.88-38,0-38,0,0,0-20,5.47-28,5.29-8-.18-38.5,1.91-38.5,1.91,0,0-8.21,2.09-17.6,0-9.4-2.09-42.44-3.86-42.44-3.86-6.56,.39-37.04-6.17-44.76-7.33-7.72-1.16-40.51-8.49-49-10.03-8.49-1.54-21.61-3.86-31.25-3.86s-35.11,1.93-45.53,3.09c-10.42,1.16-37.81,4.24-50.16,5.02-12.35,.77-41.24-3.22-52.43-3.61-11.19-.39-48.93-4.89-54.33-5.66-5.4-.77-97.41,9.61-106.67,10l-59.33,4-73.33-4.67-56-2.67-55.33-11.33-44-13.33c-67.3-7.62-221.57-.77-317.69-5.14-67.91-3.09-231.5-33.95-302.49-37.04l-44.15,2.84-54-2-67-5-64-12-71-6-47-7"/>
  <path id="rank4_2" class="cls-1" d="M8272.42,1449.36l-20,1.33-22.51-4.17-23.49-3.17-22,6-17.33,2.67-19.33,4-16-.67-31.33-1.33-36-5.33-42.67-5.33-44.67-7.33-58.67-6h-37l-36.33,2-49.33,4-43.33-3.33-40.67-4.67-72.67-6-57.33-2-54-10.67-56-6-44.67-5.33-36-4-29.33-5.33-27.33-3.33-39.33-8-30-4.67-30.67-8.67-26-.67-19.33-1.33-18.68,.3-41.22,4.46-70.74,2.77h-38.53l-37.56,7.95-54.61,1.79-68.01-3.7-87.99-.39-39.66-2.23s-9.66-.49-23.01-2.55c-13.35-2.07-17.83-2.62-26.13-1.41-8.31,1.21-28.54,2.81-40.53,3.21-11.99,.4-50.67-1.04-50.67-1.04,0,0-23.31-1.94-34.67,0-11.36,1.94-42.35-.87-42.35-.87l-28.52-4.11s-37.09-4.5-43.78-4.56c-6.69-.06-11.88-5.14-26.01-.09s-20,8.61-32,8.88c-12,.27-31.34-3.38-37.94-3.91-6.59-.54-13.39-.78-22.06-4.97-8.67-4.18-12.67,.48-18.67-8.18-6-8.67-21.61-16-21.61-16,0,0-15.67-7.23-24.59-4-8.91,3.23-33.8,12.27-33.8,12.27,0,0-32,5.73-40.67,5.73s-10.67-3.33-22,0c-11.33,3.33-26,8.37-36.67,10.18-10.67,1.82-26,6.78-30,9.63s-8.5,7.9-12.5,8.13c-4,.23-31.5,0-31.5,0,0,0-9.5-2.77-18.5-2.77s-18.07-7.06-28-5.35-20.62-.22-29.6-1.36c-8.98-1.14-17.6-2.34-29.52-3.68-11.91-1.34-15.48-3.16-32.9-2.9-17.42,.27-52.48-1.71-52.48-1.71,0,0-45.98,8.21-47.38,8.6-1.4,.39-24.12,4.9-33.62,6.9s-18.51,6.96-30.5,6.61-31,3.15-44.5,.02c-13.5-3.13-25.96-10.97-41.48-11.2-15.52-.23-16.53-.41-29.02-.12-12.49,.29-24.46,.71-27.49,.83-3.04,.13-33.51,2.44-36.01,1.32-2.5-1.11-20.57-.24-33.35-1.11-12.78-.88-42.16-3.73-42.16-3.73l-44.99,7.88s-50,6.89-52.5,7.44c-2.5,.56,4,3.44-22,0-26-3.44-26.66-2.94-34.08-4.44-7.42-1.5-11.42-2.5-21.42-3.5s-20-3.06-31-2.53c-11,.53-38.5,8.03-48.5,6.53s-20-2-31-1.5-31,1.5-34,1.5-60.5-10-60.5-10c0,0-6.4-2.5-17.95-4-11.55-1.5-17.55-3.36-25.05-3.68-7.5-.32-15.5-4.06-25.5-3.44-10,.62-8.96-.07-26,0s-27.85,.03-39.7,.06c-11.84,.03-17.8-5.44-23.8-6.44s-20-4.96-26-4.23c-6,.73-3.53-2.73-15.02,0-11.48,2.73-31.58,7.57-42.96,14.05-11.38,6.49-37.93,8.61-43.48,11.15-5.55,2.53-16.7,8.44-16.7,8.44,0,0-35.93,6.66-38.1,6.65-2.17-.01-23.25-4.58-23.25-4.58,0,0-24.84-12.08-29.32-13.6-4.48-1.52-13.04,.05-23.18-2.39-10.14-2.43-18.75-1.72-29.75,.39-11,2.11-35.25,3.05-41.75,5.08-6.5,2.03-28.4,7.51-37.46,8.43-9.06,.92-46.54,7.89-48.04,9.74-1.5,1.86-15.14,4.36-27.82,4.86-12.68,.5-38.68,1-47.68,0s-23.5-4.71-33-4.86c-9.5-.14-42.5-4.64-42.5-4.64,0,0-62.84-2-64.33-2.15-1.48-.16-49.66-.47-56.69-.24-7.03,.24-31.49,3.89-41.99,5.39s-18.5,8.15-31.5,7.08c-13-1.08-11-2.58-27-4.08s-19.55-4.39-33.03-3.94c-13.49,.45-75.5,2.49-81.49,2.69-5.99,.2-51.4,1.69-61.89,2.29-10.49,.61-73.59,3.15-73.59,3.15l-45.48,4.27s-36.53-2.09-49.02,0c-12.5,2.09-28.52,1.48-42,1.67-13.48,.19-67.44,2.45-67.44,2.45h-54.56s-28,2.08-37.5,3.49c-9.5,1.41-45-5.59-55-6.59s-25,1-40-2.5-14.5-5-30.5-5-20,.5-30.5,2-26.5,1.5-38,1.5-26,1-34,3-5,3.17-22,7.59c-17,4.41-33.34,10.91-56.92,8.91-23.58-2-22.08-5.5-36.08-6s-50.5,1-50.5,1c0,0-21,1-38.5-3s-93.5-10-93.5-10c0,0-7.5,1-20.5-.5s-15.5,1-30.5-1.5-20-3.5-34.5-6-18-3-31-3-22,0-38,2.5-37,8-57.5,10.5-22.5,3-29.5,3-43,1.5-57-.5-26.5-12.08-47.5-10.29c-21,1.79-45.5,0-45.5,0l-100.88-9.77-86.04-11.73s-69.09-3.09-87.59-1.65c-18.5,1.44-68,.56-73.5,0-5.5-.56-63,6.56-91,0-28-6.56-76-6.41-76-6.41,0,0-49,4.35-56.5,4.35s-60,4.5-67.5,4.5h-68c-27.5,0-94-.5-108.5-3s-71.5-6.7-84.5-5.85c-13,.85-72.5-4.15-72.5-4.15l-62-4.5s-40,7.5-56.5,6.5-60-2.5-76.5-2.5-78-4-94-5-79.52-5-79.52-5l-141.98,5.76s-90.93-2.19-100.47-.22c-9.54,1.96-60.04,2.96-71.04,1.96s-16.31-1.99-34.5-4.75c-18.19-2.75-82.55-10.1-85.91-10.76-3.35-.66-39.09-4-51.59-6s-40.5-6-52-6-41.49-5.57-41.49-5.57l-68.01,2.57-44,4-58,14h-52l-64-7-59-5-51,6"/>
  <path id="rank4_4" class="cls-4" d="M393.1,2189.09l53.1-4.5,46.5-13.5,91.5-6,43.5-6,93-10.5,52.5-3,57.23-1.56,58.69-5.16s37.31,10.49,40.65,7.92c3.33-2.57,40,15.9,54.67,18.61,14.67,2.7,84-4.7,96-6.04,12-1.33,22,0,42-2.33,20-2.33,20,2.33,38.67,3,18.67,.67,23.33,5.33,47.33,8.67,24,3.33,34.67,0,52,0s22.67-2,32.67-3.3c10-1.3,26.67,1.3,28.67,0,2-1.3,95.33,0,95.33,0,0,0,50-4.7,56-3.12,6,1.58,18-1.59,34.67,0,16.67,1.58,21.33,1.75,49.33,6.41,28,4.67,21.33,6.67,41.33,10.67s30.67,2,54.67,3.17c24,1.17,34.67,2.83,44.67,2.83s70-11.33,80.67-10c10.67,1.33,24,3.33,33.33,7.17,9.33,3.83,58,8.17,65.33,8.17s32-8,49.33-13.99c17.33-5.99,24-6.01,34.67-6.01s54,4.67,76,11.83c22,7.17,45.33,7.5,52,9.5,6.67,2,38-7.33,47.71-9.5,9.71-2.17,36.29-.5,54.95,0,18.67,.5,27.33,6.83,44,10.17,16.67,3.33,34,2.67,40,3.36s58,4.64,83.1,3.06c25.1-1.58,20.9-1.09,39.57,0,18.67,1.09,48.67-1.09,63.43,0l24.57,1.91,33-1.5,30.5-2,30-2.5c3.33-.74,51.5-3.57,55.5-3l14-1,21-8,22.5-2.5,15-.5h25.5l23,2.5,24,3.5h33.33c3.33,0,50-2,50-2l52,9.24s38.67-1.91,66-3.91,23.33-4.67,51.33-6c28-1.33,44-6.67,61.33-8.21,17.33-1.55,40-10.45,40-10.45,0,0,44.55,5.33,47.24,5.82l20.1,.18,23.33-2.67h26l26.67-4h31.33l18.67-5.87c7.19-2.54,28,0,28,0,0,0,30.67,7.87,34,9.27,3.33,1.4,24,8.6,38,9.27,14,.67,12.67,4.66,27.33,8.66,14.67,4,18,2.67,30,2.67s26.67,5.21,26.67,5.21l30.15-.06c12.26,1.44,66.93-25.68,79.85-24.69,13.38,1.03,96.47,3.05,109.85,3.05s62.25,3.6,77.68,4.63c15.43,1.03,57.62,6.69,70.48,6.69s50.93-2.06,59.68-.51c8.75,1.54,53.5,5.14,64.3,5.66,10.8,.51,69.96-1.03,82.83-.51,12.86,.51,61.73,.51,72.54,1.03,10.8,.51,75.11-4.63,92.08-7.2l40.23-9.28,45-8,40-6c18.27-2.1,33.04,2.26,42,5,11.32,3.46,9.13,4.61,23,9,12.07,3.82,16.07,3.7,35,9,10.7,3,9.84,3.15,17,5,14.36,3.7,23.63,4.57,33,6,10.09,1.54,20.73,4.36,42,10,29.64,7.86,32.89,10.32,51,14,15.56,3.16,27.47,4.25,36,5,34.13,3.01,42.84-1.03,92,0,10.91,.23,13.23,.49,35,1,26.14,.62,39.36,.91,47,0,16.75-1.99,32.23-6.38,45-10,12.09-3.43,13.03-4.31,21-6,5.91-1.26,21.22-4.41,39-3,17.74,1.4,19.21,5.86,37,9,17.68,3.12,31.33,1.39,49-1,26.14-3.53,34.79-8.42,58-14,8.31-2,52.02-12.14,104-8,10.91,.87,3.09,.85,58,9,40.42,6,43.77,5.88,69,10,41.84,6.83,41.86,8.66,63,11,13.45,1.49,40.34,4.32,73,1,42.47-4.31,44.25-13.9,97-21,22.13-2.98,24.54-1.65,57-6,30.87-4.13,46.3-6.2,60-10,35.53-9.85,47.46-21.48,74.27-19.43,11.01,.84,19.85,3.63,25.46,5.79,0,0,23.15-1.16,27.78-1.16s50.93-8.1,50.93-8.1l53.24-18.52,25.46-1.16,30.09,13.89,46.29,16.2,33.57,1.16,40.51-6.94,48.61-2.31,46.3-12.73,72.92,3.47,63.66,6.94,28.94-4.63,39.35-8.1s41.67-8.1,46.3-8.1,53.24,3.47,56.71,3.47,19.68,5.79,19.68,5.79l37.04,11.57,33.57-2.31,69.45-2.32,45.14,3.47,60.19-5.79,26.62,3.47,30.09,3.47,28.94,5.79,25.46,8.1h42.83l61.34-9.26,27.78-17.36,24.3-24.31,18.52-5.79,35.88-6.94,46.3,2.31,34.72,1.16h74.08l52.08-4.63,35.88-5.79,28.94-1.16,31.25,2.31,33.57,2.32,25.17,2.92c15.95,2.06,34.47-6.17,44.76-7.2,10.29-1.03,32.41,1.54,44.24,1.54s43.21,6.69,56.07,7.71c18.14,1.45,63.28,.77,84.11,3.47,20.84,2.7,74.46,11.96,87.58,15.05,13.12,3.09,54.02,1.54,66.75,2.31,12.73,.77,71.38-2.31,94.91-1.16,23.54,1.16,95.29,12.02,121.54,11.58,22.76-.39,59.83-5.35,74.85-6.17,21.22-1.16,64.85-4.62,86.43-5.79,28.55-1.54,77.3,1.54,87.34,.77"/>
  <path id="rank4_3_1" class="cls-4" d="M8273.74,1957.03c-6.42,0-22.53-1.82-41.05,5.13-8.25,3.09-37.8-6.18-47.58-10.3-9.77-4.12-23.15-4.12-37.55-6.69-14.41-2.57-50.93-6.17-62.76-7.2-11.83-1.03-36.52-6.69-44.75-7.2-8.23-.51-33.44-1.54-48.87-3.6-15.43-2.06-41.67-9.77-48.87-12.35-7.2-2.57-45.78-6.69-56.59-6.69s-31.9,8.23-39.61,10.29c-7.72,2.06-30.87,4.12-41.67,3.09-10.8-1.03-11.83-4.12-28.29-4.12s-54.02,2.06-67.39,1.03c-13.38-1.03-56.08-3.6-67.39-1.03-11.32,2.57-48.36,2.06-62.76,0-14.41-2.06-26.75-8.23-37.55-8.23s-28.29,11.32-43.21,11.83c-14.92,.51-28.29-3.6-37.55-8.75-9.26-5.14-42.18-12.35-51.96-12.35,0,0-44.9,7.13-54.9,8.13s-31,2-52,5-7-3-42,5-40,16.75-64,18.87c-24,2.13-38,2.87-57,0s-36-10.87-72-10.87-89,5.31-89,5.31l-51.65,5.6c-35.5-.51-98.26,4.12-132.21,3.6-20.89-.32-81.8,5.14-101.86,4.63-20.06-.51-74.59-4.12-90.03-3.6-15.43,.51-45.79,6.69-58.65,6.69s-73.56-3.09-92.09-3.09-47.39,4.46-71.51,6.17c-21.87,1.55-105.98,10.81-122.18,10.81s-111.12,5.4-128.87,3.09c-17.75-2.31-110.35-15.43-130.41-15.43-67.58,0-64.98,4.75-142.76,.23-46.03-2.67-60.23-6.51-100.8-5.02-30.73,1.13-41.2,4.02-70,3-33.23-1.17-44.02-5.88-80-11-53.76-7.64-96.54-6.63-123-6-51.71,1.23-50.71,6.3-102.33,6.33-36.38,.02-39.85-2.5-82-2-12.14,.14-35.37,1.21-81.33,3.33-39.4,1.82-59.25,2.74-66.67,3.33-48.21,3.84-51.29,7.58-85.33,8.67-24.21,.77-42.97-.47-66-2-30.99-2.06-55.31-5.2-66-6.67-55.6-7.62-57.81-13.02-88.67-13.33-18.92-.19-17.33,1.85-58.67,3.33-19.4,.7-35.08,1.26-56,.67-14-.4-34.45-2.04-75.33-5.33-22.22-1.79-20.47-1.77-32.67-2.67-26.05-1.92-34.97-2.09-52.67-4-13.75-1.48-23.29-2.99-30-4-33.05-4.97-80.59-12.12-132-12.67-21.09-.23-41.4,.67-71.33,2-18.22,.81-27.61,1.46-48,2-31.18,.83-46.63,.31-54,0-14.7-.62-25.39-1.11-40-3.33-12.23-1.86-21.73-4.11-35.33-7.33-13.78-3.26-72.01-17.77-80.16-20.09"/>
  <path id="rank4_3_2" class="cls-4" d="M3408.42,1927.28c-11.83,1.54-119.24,33.86-127.47,35.4-8.23,1.54-16.3,9.85-25.04,9.85s-24.36,3.55-31,4.5c-7.2,1.03-34.18,2.03-45.5,1-11.34-1.03-30.16,.6-37.87,4.72-7.72,4.12-22.12,5.66-31.9,6.69-9.77,1.03-24.18,3.6-35.5,2.06-11.32-1.54-42.7-9.77-50.93-10.8-8.23-1.03-37.04-1.54-44.76-1.03-7.72,.51-25.72-2.06-34.98-3.09-9.26-1.03-31.9-2.57-38.07-2.57s-28.81-2.06-37.55-3.6c-8.75-1.54-16.73-3.38-24.18-5.66-11.84-3.62-46.82-12.88-56.08-11.34-9.26,1.54-55.04-1.54-64.3-1.54s-81.09,4.18-91.38,3.67c0,0-51.5,.5-55,0s-44,4.2-57.5,4.1c-13.5-.1,9,.1-32,0-41-.1-44.5,4.4-53,4.9s-26,2.5-35,2.5-27,0-43.5-2.5-114.5,0-123.5,0-10.5-1-35-1-24,2.5-51.5,0-32-4.8-44.5-3.9c-12.5,.9-29.5,2.4-43.5,2.4s-40.5,2.5-54.5,1.5-47,.5-51,.5h-26.5c-11.5,0-20,1.5-38,0s-78,1.5-82.5,1.5-19,2-32.5,4-59,15.5-67.5,15.5-12.78-2.5-34.14,1.5c-21.36,4-31.86,9-49.86,10.5s-33.5,4.5-42.5,6-32.5,2.5-47,3-28,2-41.5,3-14.5,5-32.5,0-21-10.18-37-9.84c-16,.34-40.5,5.34-46,5.34h-34.5s-26.5-2.5-28-2.5-54.5,2-62.5,2-23,1.5-34,0-41.5-4.84-41.5-4.84h-107s-46.5,2.34-52.5,2.34h-28c-2.5,0-24.66-3.73-45.16-8.39-20.5-4.66-50.68-35.13-64.68-43.77"/>
  <polyline id="rank4_3_3" class="cls-4" points="644.41 1940.03 570.41 1958.03 486.41 1974.03 390.41 1990.03"/>
  <path id="rank5_2" class="cls-3" d="M392.41,1616.03l55-13,71-10h62l56-2,50,5,46,5,46,9,54.64,19.77s31.36,5.73,42.89,7.73,32.46,10,49.46,11.5,29-6.5,38.5-9.5,13-2,34.5-3.5,16.5-.5,29.5-.5,20.5,.5,36.5,.5,25-2,61-2,21.5-3.5,38.5-5.5,49.5-18,55.5-20,20.53-8.11,26.02-7.81c5.49,.3,63.16-2.78,72.98-3.07,9.81-.29,69.41,.8,82.99,.96,13.59,.16,31.49,.56,33.99,.6,2.5,.04,57.52-1.18,64.52,.79,7,1.97,29.89,2.06,32.46,2.38,2.57,.32,30.04,6.15,54.54,6.15,24.5,0,49.5-3.49,57.5-1.91,8,1.58,91.17-5.58,95.5-6.61,4.33-1.03,61.05-.76,63.04-.89,1.99-.13,83.97-3.17,83.97-3.17,0,0,52.49-8.41,70.71-7.6,18.22,.8,28.85-7.04,39.28-9.16,10.43-2.12,30.09-5.93,43-10.15,12.9-4.21,49.95-1.8,49.95-1.8,0,0,72.55-4.7,77.05-5.2s14.49,.26,33.99,1.09c19.5,.83,12.99,1.08,31.51,1.13,18.51,.05,29.5-8.22,37.5-9.53,8-1.31,93.09-7.5,94.5-6.56,1.41,.94,21.5-.72,38,.2,16.5,.92,39.89,3.87,40,3.33,.11-.54,44.33,4,44.33,4,0,0,44.16-.2,57.53,2.62,13.37,2.82,16.73,3.4,16.73,3.4l21.69,4.5s30.16,5.43,45.22,6.21c15.06,.79,50.5,3.34,64.5,3.23,14-.11,36.5-.75,49.05-.74,12.56,0,27.84,2.5,30.78,2.87,2.94,.38,48.67,3.73,51.89,4.23,3.22,.5,13.28,1,24.78,3s18,5,34,8.5,35,3,49,1.5,19-1.5,42.5-1.5h43.5c22.5,0,23,0,46.5-2s30-1,45.5-2.5,39.5-7.5,61.5-7.04c22,.46,13-.46,26-2.82,13-2.36,28-1.65,43.42,0,15.42,1.64,16.58-.15,37.58,2.82,21,2.96,24,1.54,33.5,0,9.5-1.54,45.5-4.46,47.5-2.82,2,1.64,9-5.65,22.5-10.15s20.5-3,36.4-5c15.9-2,12.6,1.5,27.1,3.5s7,1.5,13,4.9c6,3.4,28.6,11.4,28.6,11.4,0,0,11.91,4.08,22.19,6.91,10.29,2.83,13.72,1.64,24.21,1.89,10.49,.26,21.42-.51,21.42-.51,0,0,16.58,1.4,28.08,1.4s16.61-1.28,30.01-.35c13.4,.93,19.5-.02,23-.06,3.5-.05,63.53-1.34,63.53-1.34,0,0,37.57-2.35,39.46-2.84s47.5-3.41,47.5-3.41c0,0,21.5,.5,38,3.41,16.5,2.91,11.77,4.09,23.5,2.59,11.73-1.49,14.5,0,14.5,0l71-2.59s39.5-4.41,50-4.41,11.5,0,23.5,1.5,18,0,37-.5,15-.5,34.5-.5,19-.5,37.5-.5,28.5,0,44.5-2.54c16-2.54,18,1.54,28.5,0,10.5-1.54,28-3.96,42.5-6.46s45.5-14.5,57-14.5,29-5,42-2c13,3,66-8.5,81.5-10s18.5,0,32.5,0h62c12,0,67-7.7,67-7.7,0,0,117-12.8,130-14.61,13-1.81,22.5-1.19,35-4.19s18.5-3.5,26.83-6,26.67-3.5,35.17-3,20,.5,29,1.5,25,3.5,33,3,26-2.5,35-2.5h12.5l18-2.5,15.25-.25,8.75-1,16.75-.75,14.75-1.75,17-.75,20.75-.25,17.75-1h11.5l10.25-2.75,16.25-2.25,11.5-1,15-.75,15-4.25,8-2.75,13.75-5,15.5-.75h13.25l19-.75,17.25-.25,18.75,2.25,21.75,3,26.25,2.25,20,1.5,20,2.75,18.75,1.25,14.25,2.75h30.5c11.5,0,59-2.5,75.5-2.27,16.5,.23,6.5-.23,21,3.28,14.5,3.51,16.5,5.49,36,6.41,19.5,.92,19.5-1.92,42.5,0,23,1.92,15.5-1.92,25,0,9.5,1.92,31.5-.92,41.5,0,10,.92,69.58,6.08,69.58,6.08,0,0,31.42-3,35.42-6.08,4-3.08,16-.92,21.5,0,5.5,.92,35.5,6.08,43.5,8.08s18,5.5,25.5,8.69c7.5,3.19,16.5,.31,29.5,0,13-.31,17-1.69,26,0,9,1.69,23.5-.19,30,0,6.5,.19,26,3.31,33.5,3.31,7.5,0,15,4,25.5,5.5s26.5,3.5,26.5,3.5c0,0,66.89,10.3,72.5,10.53s25.96,4.71,25.96,4.71c0,0,35.76,5.36,39.54,8.25,3.78,2.89,24,2.5,36.61,1.29,12.61-1.21,23.39-.79,23.39-.79,0,0,23.5-2,41-2h35c14.5,0,13.5,.5,26.72,1,13.22,.5,22.78,3.69,22.78,3.69,0,0,55.49,.76,57.98,.84,2.5,.07,71.94,3.92,90.36,5.54s16.61,1.8,23.49,2.69c6.89,.89,22.43,4.22,32.16,7.72,9.73,3.5,26.09,7.15,32.12,9.03,6.03,1.88,27.13,8.11,45.87,13.05,18.74,4.95,33.09,6.33,33.09,6.33l23.92,1.42s49.5,.17,53.11,.2c3.61,.03,34.38,.4,48.38,.64,13.99,.25,12.01,.26,23.04,.55,11.02,.29,12.01,.37,25,.86,12.99,.49,15.46,.74,28.9,1.59,13.43,.85,6.7,.7,17.35,3.4,10.65,2.7,16.98,4.3,24.16,5.62,7.17,1.33,23.64-.93,25.12-1.04,1.48-.1,13.54,.98,13.54,.98,0,0,13.92,.89,24.92,3.79,11,2.9,6,1.6,24.35,9.1,18.35,7.5,27.14,3.42,27.14,3.42,0,0,21.34-2.42,30.24-4.21,8.9-1.79,18.79-.92,34.29-1.31,15.51-.39,32.97-4.9,32.97-4.9h27.5c10,0,14,1.5,35.79,6.3,21.79,4.8,26.93,4.19,26.93,4.19,0,0,38.27,0,41.77,0s40,3.48,40,3.48l46.26-.77,50.16-9.71c24.9-3.37,99.96-25.92,119.25-30.17,32.77-7.21,44.31-7.95,69-15.67,15.21-4.75,51.18-10.28,69.33-14,18.09-3.71,101.79-18.84,123.33-25l36-10s43.67-9.67,45.17-9.67c1.5,0,34.5-10,38-11.5s26.5-11.5,26.5-11.5c0,0,8.5-2.47,18-3.24,9.5-.76,16,.24,22.5,2.24s20,4,26,6,14.5,4.5,26.5,5.5,18,.5,27,1,9.5,2,15.5,.5,22.52-2,27.01-3c4.49-1-3.01-2,12.49-2s26.5-2.5,28-2.5,11-1.5,17.5,1,9.5,4.5,16.5,5,15.5,1,20,.5-1.16-1,9.17-2,32.83-2.5,38.83-3,8-3.5,18,0,10.5,7.5,17.5,8,7.5,1,18.5-.5,18-7.5,24-8,19.67,.17,19.67,.17"/>
  <path id="rank5_1" class="cls-3" d="M8267.17,383.03h-54.76s-56,10-82,10h-116c-22,0-41-6-66,0s-62,13-95,13-103,14.62-115,12.81c-12-1.81-106,.81-109,0-3-.81-69-.87-85,.16-16,1.03-58.67-4.97-61.33-4.97s-61.33-1.33-61.33-1.33c0,0,6.67,4.67-30.67,0-37.33-4.67-50-4.67-68.67-4.67s-32-2.67-47.33-2c-15.33,.67-40.67,.67-48.67,.67s-64.67,2-74.67,2-78.67,3.33-82,3.33-18,2-40.67-.67c-22.67-2.67-23.33-6.67-46.67-3.33-23.33,3.33-22,3.33-33.33,3.33s-30-.67-38.67-.67-72-4-87.33-4h-42.67c-20,0-22.67,1.33-44,0-21.33-1.33-29.33,0-41.33,0s-45.33,7.33-45.33,7.33c0,0,6,3.51-22.67,5.09-28.67,1.58-24.67,1.76-41.33,0-16.67-1.76-24.33-5.09-37.33-6.09s-33-2-50.5-4-8.5-2.5-30-2.5-26-1-38.5-1-23,5.5-29.5,5.5-44,5.5-44,5.5c0,0-28.5,4.18-36.5,3.84-8-.34-10.5,3.38-29,.02-18.5-3.36-19.5-3.86-33-4.86s-5-.5-23-2-18-1-30.5-1-29.83,.5-29.83,.5c0,0-40.17,8.05-49.67,8.78s-13,.78-32.5,0c-19.5-.78-27.5-2.78-52.5-6.28s-8-4-41.5-6-42.5-7.16-61.5-6.83c-19,.33-20,.17-44,0-24-.17-48-1.17-68.5,2.83s-40,6.5-61,7-11,4.5-45.5,1.5-25.5-5-45.5-4-24-4.6-35.5-2.05-35,4.05-45,2.55-22-4.5-29.5-5.5-20.04-3.27-29.02-3.73c-8.97-.46-76.9-11.81-76.9-11.81,0,0-7.52-.61-21.52,.26-14,.86-26.03,1.36-33.07,1.27-7.04-.1-34.46-1.28-34.46-1.28l-77.01-2.53s-33.51-8.68-46.01-10.18-35.5-6.5-50.5-6.5-48.92-3.75-60.5,0c-11.58,3.75-32.68,2.31-48.83,2.02-16.16-.29-88.01,2.78-93.12,3.4-5.11,.62-52.55,8.58-58.05,9.08s-9.5,6-33,2.5-65.02-11.27-68.5-11.52c-3.48-.25-22,.28-31,.65-9,.37-45.5-9.28-45.5-9.28,0,0-34.05-9.25-39.5-7.97-5.45,1.28-62.33,.71-62.33,.71,0,0-14-3.75-43.58-4.05-29.59-.3-90.09-3.01-90.09-3.01h-25.79s-38.71,6.23-48.21,6.35-32.5,3.12-42.5,3.12-85.5-5.81-85.5-5.81c0,0-17.5-2.62-29-3.66-11.5-1.04-45.5-8.54-52-8.54s-24,1.5-41,4-40.12,5-40.12,5c0,0-39.88,11.5-49.88,11.5s-13-2-23-2-29-9-39-9.5-14-3.5-29-2-27.5,2.5-41,4-13.5,4.81-27.5,3.15-16-1.65-25-2.15-34.3-1.15-34.3-1.15c0,0-31.98,4.96-38.2,3.3-6.22-1.66-9-4.65-30-7.15s-40.51,2.76-50.01,2.86c-9.49,.1-12.3,.14-35.64-2.86s-26.19,.94-50.85,0-42.5-7-48-7-42.53,.09-47.27,0c-4.74-.09-32.73,2.5-39.73,0s-12-5.5-23.5-7-17.85-5-27.92-6c-10.08-1-17.63-2.85-26.35-3.67-8.73-.83-60.75,16.52-60.75,16.52,0,0-54.89,11.78-65.9,12.87-11,1.09-21.52-.03-44.58,1.44s-17.02,.63-41,0c-23.98-.63-25.5,.15-42,0s-56,8.74-56,8.74c0,0-46.5,4.11-53,5.11s-65.5,4.96-65.5,4.96c0,0-25,6.99-38.5,7.26-13.5,.28-69.5,10.28-82.5,10.28s-24.5,1-43,3-25,5.48-54,4.99c-29-.49-44-.51-52,0s-26.5-6.49-39-6.49-27-1.5-44,0-29.5,3-42,3-65.51-4.45-65.51-4.45l-194.95,6.96-113.54,4.5s-53.54-.04-64,1.49c-10.46,1.52-160.47,7.65-160.47,7.65l-181.03,6.7-32.29-1.69h-100.5l-69-3-67.5-4.5-46.5-1.5-51-7.5-54-9-73.5-4.5h-46.5l-57-9-63-4.5-57-4.5-63-13.5-64.5-7.5-45-6h-34.5l-76.5-1.5-55.5-6-60-16.5-42-18-31.5-15-52.5-19.5-46.5-19.5-48-16.5-64.5-24-49.5-19.5-21.61-7.5"/>
  <path id="rank6" class="cls-2" d="M393.65,1909.69c23.4,0,151.38,26.62,181.86,26.24l13.12,.77c4.63,0,169.76,5.4,210.66,10.8,40.9,5.4,148.93,.77,185.97-.77,37.04-1.54,181.34-9.26,211.43-13.12,30.09-3.86,205.22-28.83,230.73-32.41,43.98-6.17,125.76,28.05,151.25,8.49,33.18-25.46,88.72-34.49,96.46-35.88,50.87-9.13,172.14,20.63,214.52,18.13,26.24-1.54,58.98-19.15,71.76-16.21,30.09,6.95,158.19,30.1,193.69,36.27,21.77,3.79,171.31,23.15,219.92,23.92,48.61,.77,132.73,.77,159.73,0,27.01-.77,137.36-3.09,147.77-3.86,37.72-2.79,188.28-20.45,206.42-22.38,16.66-1.77,115.79-15.88,132.73-14.66,74.85,5.4,267.78,28.88,323.33,30.87,43.21,1.54,137.36,2.7,152.79,0,18.12-3.17,41.43-6.85,66.36-9.26,20.97-2.03,44.39-.07,60.96-.77,32.38-1.38,118.17,12.09,168.99,1.54,11.33-2.35,28.86,5.28,50.93,3.09,17.42-1.73,34.11-7.83,52.86-5.79,17.75,1.93,36.83-2.92,51.7-7.33,20.83-6.17,40.62-9.75,45.91-11.19,11.74-3.18,22.91-.58,36.65-4.24,11.57-3.09,32.46-7.83,44.76-14.66,13.89-7.72,32.02-21.22,38.58-27.01,4.09-3.61,16.98-13.53,27.39-18.52,48.3-23.14,74.33-28.57,86.43-27.01,23.92,3.09,54.34,15.58,93.37,19.29,32.41,3.09,87-7.57,121.92-10.03,19.1-1.35,106.23-7.46,128.87-6.94,36.27,.82,231.24-4.23,265.07-7.72,37.42-3.86,123.28-7.81,167.06-9.26,31.25-1.03,189.82,2.31,204.49,2.31,35.5,0,91.06-2.75,101.09-3.09,23.15-.77,68.68,0,84.88,5.4,17.81,5.94,74.08,15.43,91.06,17.75,16.98,2.31,91.83,9.85,100.32,10.03,35.5,.77,99.54,3.09,108.8,3.09s64.82,0,82.57-1.54c17.75-1.54,70.47-3.12,102.63-7.72,27.01-3.86,61.48-8.25,70.48-11.07,11.26-3.53,49.9-21.09,82.82-22.63,41.88-1.96,148.11-4.06,168.47-3.33,57.62,2.06,264.04,23.4,296.06,30.08,59.16,12.35,242.71-15.31,258.76-15.04,23.15,.39,111.16-8.16,158.96-11.58,43.21-3.09,392.93-12.91,422.87-15.05,43.21-3.09,272.31,7.93,317.92,0,53.24-9.26,199.09-29.32,254.65-29.32,28.54,0,154.59,6.64,177.48,8.48,21.43,1.72,61.73,1.8,80.51,11.57,10.19,5.3,93.16,6.27,103.3,6.27"/>
  <polyline id="rank7" class="cls-5" points="391.08 2315.36 411.08 2311.36 434.41 2306.7 458.41 2302.03 495.08 2293.36 517.08 2294.03 547.08 2294.03 577.08 2290.03 606.41 2280.7 623.75 2280.03 641.75 2282.03 663.08 2283.36 685.75 2284.03 707.08 2280.7 727.08 2272.03 753.08 2260.7 782.41 2254.03 805.08 2248.7 820.41 2240.7 832.41 2232.03 845.08 2217.36 862.46 2205.36 887.12 2204.03 921.12 2205.36 955.12 2199.36 977.12 2199.36 1009.79 2196.7 1042.46 2194.03 1069.12 2191.36 1089.79 2188.03 1117.79 2189.36 1151.12 2191.36 1188.46 2197.36 1209.12 2200.7 1235.12 2203.36 1272.45 2208.03 1294.45 2208.03 1315.12 2202.03 1343.78 2201.36 1375.78 2198.03 1410.45 2198.7 1429.12 2200.7 1461.12 2200.03 1485.12 2200.03 1513.78 2206.03 1534.45 2207.36 1562.44 2212.7 1593.78 2212.03 1618.44 2212.03 1639.78 2216.03 1658.44 2222.03 1682.44 2238.03 1707.11 2244.03 1731.78 2249.36 1755.11 2250.03 1777.78 2253.36 1805.11 2256.03 1816.44 2257.36 1845.78 2254.03 1863.78 2256.03 1885.11 2260.7 1919.11 2259.36 1951.11 2257.36 1969.77 2250.03 1997.11 2246.7 2018.44 2241.36 2038.44 2240.7 2068.44 2244.7 2092.44 2254.03 2118.44 2258.03 2135.11 2257.36 2157.11 2260.03 2179.11 2265.36 2225.11 2266.03 2251.11 2266.7 2283.1 2264.7 2319.77 2271.36 2344.43 2274.03 2373.77 2271.36 2395.1 2275.36 2412.43 2276.7 2439.1 2279.36 2467.1 2288.03 2486.43 2292.03 2511.77 2293.36 2539.1 2297.36 2567.1 2300.7 2603.77 2297.36 2636.43 2296.03 2658.43 2295.36 2679.76 2294.7 2707.76 2294.7 2737.76 2296.7 2771.09 2297.36 2797.76 2296.7 2825.76 2288.7 2855.09 2286.03 2877.76 2284.7 2913.09 2281.36 2953.76 2279.36 2979.76 2275.36 3007.76 2276.03 3036.42 2280.7 3066.42 2288.7 3089.09 2294.03 3108.42 2302.7 3129.76 2311.36 3174.42 2316.03 3194.42 2318.03 3213.09 2318.03 3233.09 2310.03 3251.09 2304.03 3273.76 2306.03 3296.42 2308.03 3328.42 2310.7 3357.08 2317.36 3382.42 2321.36 3417.08 2330.7 3442.42 2334.03 3465.08 2336.7 3485.75 2342.03 3501.08 2342.7 3527.08 2349.36 3550.42 2354.03 3573.75 2361.36 3600.42 2355.36 3627.08 2344.7 3641.75 2336.7 3658.42 2332.03 3678.41 2330.7 3704.41 2331.36 3729.08 2333.36 3757.75 2332.7 3791.08 2330.03 3829.75 2324.7 3853.75 2322.03 3870.41 2318.7 3899.08 2304.03 3928.41 2294.7 3959.08 2290.03 3987.75 2290.03 4007.75 2285.36 4039.08 2279.36 4063.08 2276.03 4082.41 2279.36 4109.75 2288.03 4129.75 2296.7 4154.41 2300.03 4178.41 2304.03 4199.08 2304.7 4225.08 2303.36 4253.08 2307.36 4276.41 2309.36 4306.41 2318.03 4338.41 2321.36 4367.74 2320.03 4385.08 2320.03 4403.08 2324.03 4431.74 2334.03 4459.08 2340.03 4479.74 2344.7 4503.74 2348.7 4520.41 2348.7 4545.08 2348.03 4559.74 2350.03 4579.08 2356.03 4599.08 2360.7 4631.08 2356.03 4655.08 2352.7 4690.41 2350.03 4719.74 2353.36 4765.74 2359.36 4805.08 2362.7 4829.74 2362.7 4861.74 2365.36 4895.74 2372.03 4915.75 2372.03 4945.08 2371.37 4974.42 2369.37 5010.42 2372.03 5037.08 2372.7 5071.75 2376.7 5101.75 2375.37 5133.75 2378.03 5168.42 2386.03 5201.08 2386.7 5233.41 2390.53 5258.41 2390.53 5301.41 2387.53 5325.41 2390.53 5348.41 2391.53 5373.41 2389.53 5405.91 2386.53 5433.41 2383.53 5457.41 2388.53 5481.41 2389.53 5501.91 2393.03 5536.91 2390.03 5565.41 2390.53 5594.41 2391.03 5617.91 2385.03 5642.41 2382.03 5669.91 2379.03 5690.91 2378.53 5716.91 2378.53 5744.41 2378.53 5772.41 2378.03 5808.41 2377.53 5834.91 2374.03 5857.91 2369.53 5877.41 2368.03 5902.91 2366.53 5924.41 2368.03 5961.91 2367.53 5992.41 2366.03 6020.91 2369.03 6045.91 2367.53 6075.91 2364.53 6105.91 2360.03 6133.91 2360.03 6164.91 2355.03 6195.91 2352.53 6219.91 2351.03 6237.41 2350.53 6274.41 2349.03 6298.91 2349.53 6335.91 2346.53 6357.91 2344.53 6375.41 2343.53 6404.41 2342.03 6431.91 2340.53 6474.41 2332.53 6497.41 2327.03 6531.91 2323.03 6559.91 2320.53 6586.91 2319.53 6607.91 2320.53 6640.41 2317.53 6664.91 2311.03 6681.91 2310.03 6700.91 2305.03 6717.91 2300.03 6734.41 2300.03 6760.91 2301.03 6785.91 2299.53 6807.41 2299.03 6825.41 2296.53 6853.91 2293.03 6879.91 2287.53 6907.91 2285.03 6924.41 2287.03 6944.41 2286.53 6962.91 2286.53 6985.41 2284.53 7009.41 2284.53 7031.41 2281.53 7056.91 2279.03 7083.41 2274.53 7108.91 2262.53 7130.41 2257.03 7155.41 2254.03 7177.41 2252.03 7196.41 2250.03 7220.41 2250.53 7238.41 2251.53 7259.41 2250.53 7274.91 2249.03 7301.41 2246.03 7330.41 2249.53 7356.41 2247.03 7381.41 2245.53 7406.41 2246.53 7422.91 2251.03 7440.91 2253.53 7465.91 2253.53 7490.91 2259.53 7506.41 2258.53 7528.41 2255.03 7547.41 2256.03 7560.91 2256.03 7590.41 2250.53 7613.91 2245.53 7628.91 2242.53 7651.91 2240.53 7679.91 2238.53 7697.41 2235.03 7717.41 2239.03 7738.41 2243.03 7764.91 2246.53 7784.91 2241.53 7803.41 2242.53 7832.41 2244.03 7851.41 2246.03 7875.41 2248.03 7909.91 2244.03 7938.91 2240.03 7969.41 2238.53 8003.41 2241.53 8023.41 2242.53 8051.41 2245.03 8068.91 2245.03 8108.41 2243.03 8130.41 2243.03 8163.41 2240.03 8187.41 2240.03 8212.41 2238.53 8237.41 2236.03 8260.41 2234.53 8272.41 2234.53"/>
  <g/>
</svg>