<svg id="Calque_1" data-name="Calque 1" xmlns="http://www.w3.org/2000/svg" viewBox="0 0 2871.77 2424.01">
  <defs>
    <style>
      .cls-1, .cls-2, .cls-3, .cls-4 {
        fill: none;
        stroke-miterlimit: 10;
      }

      .cls-1 {
        stroke: #c04894;
        stroke-width: 5.67px;
      }

      .cls-2 {
        stroke: #2b4b9b;
        stroke-width: 8.5px;
      }

      .cls-3 {
        stroke: #72b62b;
        stroke-width: 11.34px;
      }

      .cls-4 {
        stroke: #e52521;
        stroke-width: 12.76px;
      }
    </style>
  </defs>
  <polyline id="rank4_1" class="cls-1" points="2760.55 780.02 2723.53 770.68 2692.86 765.35 2664.19 757.35 2617.53 748.02 2580.19 742.02 2546.86 742.68 2505.53 746.02 2464.86 747.35 2427.53 751.35 2386.19 752.68 2349.53 756.02 2324.86 752.68 2288.19 750.02 2247.53 752.02 2219.53 758.02 2184.86 762.68 2155.53 763.35 2131.53 762.68 2096.86 760.68 2058.19 759.35 2024.86 758.02 1992.19 753.35 1974.19 754.02 1950.86 762.02 1917.53 768.68 1876.19 774.68 1836.19 775.35 1803.53 773.35 1769.53 767.35 1740.19 760.68 1725.53 757.02 1698.03 760.52 1656.03 759.52 1623.03 755.02 1596.19 758.02 1564.19 768.02 1523.53 778.02 1492.19 786.68 1458.86 796.68 1414.86 810.02 1382.19 811.35 1351.53 806.68 1330.19 800.02 1312.86 795.68 1291.53 798.35 1269.53 803.68 1243.86 804.35 1217.19 803.35 1183.53 802.35 1157.03 799.02 1136.86 805.35 1114.86 810.02 1092.86 812.02 1076.86 812.68 1052.19 825.35 1026.86 832.68 986.86 834.02 944.86 822.68 926.19 814.02 906.86 802.68 888.86 804.02 858.19 808.68 820.86 814.68 765.53 822.68 725.53 826.02 676.19 826.68 636.19 826.02 603.53 826.68 570.86 822.68 507.53 822.02 457.53 819.02"/>
  <polyline id="rank4_2" class="cls-1" points="2760.55 1115.52 2724.03 1119.52 2679.53 1121.52 2645.53 1124.52 2617.53 1127.02 2579.03 1126.02 2535.53 1131.02 2490.53 1138.02 2453.53 1146.68 2414.19 1162.02 2362.86 1172.02 2300.86 1178.68 2253.53 1187.35 2200.19 1192.68 2155.53 1198.02 2110.19 1206.02 2072.86 1211.35 2037.53 1217.02 1985.03 1220.02 1946.53 1227.52 1899.03 1238.52 1873.53 1248.02 1853.03 1250.02 1824.53 1248.02 1790.53 1239.02 1760.03 1230.52 1728.53 1227.52 1697.03 1222.02 1666.53 1222.68 1634.86 1226.35 1603.19 1228.68 1575.86 1230.68 1548.86 1232.68 1525.03 1234.52 1499.53 1237.52 1467.53 1241.52 1428.03 1242.52 1397.53 1240.02 1366.53 1237.52 1337.53 1239.52 1302.53 1237.02 1266.53 1234.52 1231.03 1237.52 1195.03 1245.52 1155.53 1250.68 1118.86 1252.02 1063.53 1254.68 1017.53 1259.35 959.53 1258.68 904.86 1255.35 833.53 1254.02 787.53 1254.02 748.86 1253.35 708.86 1252.68 671.53 1242.02 632.53 1241.02 582.53 1242.02 521.53 1243.02 478.53 1243.02 421.53 1244.02"/>
  <polyline id="rank4_3_2" class="cls-1" points="2535.53 1627.35 2561.53 1636.68 2591.53 1643.35 2629.53 1648.02 2665.53 1650.02 2691.53 1646.02 2725.53 1639.35 2760.55 1632.02"/>
  <polyline id="rank4_3_1" class="cls-1" points="2491.53 1625.02 2456.19 1636.68 2411.52 1650.02 2374.19 1659.35 2349.52 1676.68 2314.19 1681.35 2269.53 1689.02 2211.85 1690.68 2146.52 1694.02 2086.19 1700.35 2039.52 1705.68 1974.52 1715.68 1908.52 1726.35 1871.53 1738.02 1801.53 1748.02 1746.53 1746.02 1682.53 1752.02 1630.53 1749.02 1582.53 1750.02 1542.53 1762.02 1504.53 1771.52 1452.53 1776.02 1410.53 1773.02 1377.53 1765.52 1350.03 1771.02 1311.53 1784.52 1271.03 1788.02 1233.53 1785.52 1208.03 1789.52 1169.53 1804.02 1139.03 1811.52 1104.03 1806.02 1047.53 1803.52 996.53 1806.52 951.03 1812.52 886.53 1815.52 833.53 1820.02 770.86 1814.02 696.86 1804.02 646.86 1805.35 569.53 1805.02 510.53 1814.02 450.53 1841.02"/>
  <polyline id="rank4_4" class="cls-1" points="2760.55 1791.35 2731.53 1780.02 2690.19 1776.68 2619.53 1774.68 2539.03 1768.52 2471.53 1774.68 2416.53 1784.02 2360.53 1790.02 2296.86 1798.02 2232.19 1812.02 2172.86 1821.35 2106.03 1826.52 2066.03 1825.52 2032.53 1829.52 1981.53 1834.52"/>
  <polyline id="rank5_2" class="cls-2" points="2760.55 1379.35 2728.19 1382.02 2704.86 1382.68 2682.19 1381.35 2626.86 1380.02 2582.19 1378.68 2539.53 1376.68 2498.86 1365.35 2461.53 1352.52 2408.53 1349.52 2379.03 1349.52 2347.53 1347.02 2323.53 1344.52 2301.03 1346.02 2274.03 1353.52 2241.03 1362.52 2201.53 1363.52 2174.19 1363.35 2138.86 1370.02 2096.86 1380.02 2059.53 1377.35 2036.53 1372.52 2017.53 1372.02 1988.03 1371.52 1955.53 1372.52 1930.19 1370.02 1889.53 1369.35 1842.86 1373.35 1810.86 1374.68 1776.86 1374.02 1742.86 1373.35 1713.53 1374.02 1683.53 1377.35 1650.19 1385.35 1618.86 1389.35 1576.86 1388.68 1548.03 1383.02 1514.53 1378.52 1478.86 1376.68 1450.86 1372.02 1413.53 1371.35 1379.53 1374.02 1338.19 1388.02 1292.86 1402.02 1257.53 1403.35 1233.53 1410.02 1203.03 1420.02 1167.03 1420.52 1137.36 1414.18 1106.03 1413.02 1075.36 1413.52 1045.03 1409.52 1012.19 1410.02 988.86 1419.35 950.19 1421.35 924.19 1413.35 898.86 1410.02 868.86 1406.68 830.19 1400.68 794.2 1403.35 768.2 1404.68 736.2 1401.35 704.86 1395.35 684.2 1382.68 653.53 1366.02 609.53 1350.02 578.87 1330.68 540.2 1320.02 496.87 1314.02 462.87 1312.02 431.53 1320.02 400.2 1332.68"/>
  <polyline id="rank5_1" class="cls-2" points="2760.55 294.02 2702.2 300.68 2652.87 309.35 2602.87 316.68 2551.53 317.35 2506.2 315.35 2450.86 320.68 2398.86 315.35 2350.86 314.68 2307.53 315.35 2272.19 313.35 2244.85 316.02 2203.52 316.02 2151.52 314.02 2095.52 308.68 2060.18 304.68 2003.51 302.02 1956.18 296.02 1887.51 288.02 1836.18 284.02 1777.51 274.68 1733.51 268.02 1684.18 265.35 1631.51 262.68 1581.51 260.02 1536.84 258.02 1482.17 256.02 1414.17 252.68 1362.84 252.02 1308.17 249.35 1239.5 249.35 1160.17 249.35 1109.51 247.35 1081.51 248.68 1052.17 249.35 999.51 240.02 952.17 234.02 906.17 229.35 859.51 227.35 810.18 223.35 770.18 222.02 732.85 220.02 682.85 210.68 633.52 206.02 589.52 202.02 528.85 196.02 471.52 194.02"/>
  <polyline id="rank6" class="cls-3" points="375.53 1661.02 402.19 1648.02 425.86 1641.68 447.86 1638.02 473.86 1636.68 495.19 1642.68 520.19 1649.35 564.86 1651.35 601.53 1653.35 644.86 1649.35 694.86 1646.02 730.86 1642.68 769.53 1638.02 815.53 1629.52 841.03 1626.02 878.03 1624.52 905.03 1623.02 939.53 1622.02 966.03 1618.02 992.53 1617.52 1020.53 1621.52 1052.86 1623.02 1086.86 1625.68 1112.19 1619.68 1133.53 1620.02 1151.53 1624.02 1172.53 1626.35 1197.19 1624.02 1220.86 1623.68 1247.53 1626.68 1268.53 1633.35 1287.19 1640.68 1302.53 1644.02 1332.53 1646.02 1358.53 1645.02 1384.19 1640.68 1407.53 1637.02 1437.03 1637.52 1471.03 1637.52 1503.03 1634.52 1532.53 1628.02 1558.03 1628.52 1572.53 1632.52 1597.03 1637.52 1637.03 1638.02 1662.19 1635.02 1687.19 1635.02 1705.53 1635.68 1727.86 1637.35 1760.19 1637.02 1780.53 1632.35 1817.53 1627.02 1856.53 1625.02 1897.03 1625.52 1927.03 1616.52 1947.53 1613.02 1969.53 1613.52 1996.03 1611.02 2032.03 1609.52 2074.53 1616.02 2112.19 1616.68 2150.86 1618.02 2178.86 1622.02 2218.86 1620.68 2254.19 1618.68 2294.19 1620.02 2332.86 1623.35 2367.53 1624.68 2411.53 1619.52 2451.53 1620.52 2491.53 1625.02 2529.03 1626.02 2577.53 1618.02 2615.53 1609.52 2660.03 1602.52 2705.03 1597.02 2735.19 1586.35 2760.55 1575.68"/>
  <path id="rank7" class="cls-4" d="M2760.55,1815.35l-30.36-10h-22.66l-34,3.33-28.67-3.33-48,2-31.33,7.33-24.67,12-36,17.34-23.33,18.66L2440.19,1874l-31.66,3-43-4-27-3h-30l-25.5,4.5-27,2-29-11.5-16-7.5-33.5-7-16.67-1.17-28,2.67-31.33,4h-28l-30-5.34-27.34-5.33-28-4.67-34.66-1.33-38.67,5.33-40.67,6.67-34.66,7.67-23,2-35.5,6-25,7-29.5,3.5-32,4.5-21.5-.5-21-4-27.82,1.83-27.33,7.67-26.67,4.66-33.67,2.34-20,.33h-24l-20.33.67-19,2-25,7-31.66,3.66-21.67-1.66-36.33-.67-16,3.67-22,4.33-18-1.67-24-6-20.67,1-22,1.34-18.67-.34-35-.33-26-.67-20.66,1.34-46,4s-31.34,2.66-31.34.66-23.33,4.67-23.33,4.67H988.19L947.53,1910l-52-10-34-3.34h-38l-43.34,6L751.53,1906h-32l-42-4.67-50,7.67-40,10-34,16-31,20-22,19"/>
</svg>
